<?xml version="1.0" encoding="utf-8"?>
<!-- Generator: Adobe Illustrator 25.2.1, SVG Export Plug-In . SVG Version: 6.00 Build 0)  -->
<svg version="1.1" id="Layer_1" xmlns="http://www.w3.org/2000/svg" xmlns:xlink="http://www.w3.org/1999/xlink" x="0px" y="0px"
	 viewBox="0 0 300 300" style="enable-background:new 0 0 300 300;" xml:space="preserve">
<style type="text/css">
	.st0{fill:#E93C3C;}
</style>
<g>
	<path class="st0" d="M288.8,105.5c-1.2,4.2-2.1,8.6-3.7,12.7c-3.3,8.3-8.8,15.1-15.6,20.9c-1.8,1.5-2.5,3.1-2.5,5.5
		c0.1,30.4,0.1,60.7,0,91.1c0,11.5-5.1,20.1-15.4,25.4c-4.1,2.1-8.5,2.8-13.1,2.8c-37.4,0-74.8,0-112.3,0c-21.6,0-43.2,0-64.8,0
		c-17.1,0-28.7-11.7-28.7-28.8c0-29.6-0.1-59.1,0.1-88.7c0-3.7-1-6.1-3.8-8.5c-7.3-6.3-12.7-14-15.7-23.3c-4.6-14-2-27,6.2-38.9
		c9-13,21.6-21.4,35.8-27.6c19-8.4,39.1-11.9,59.9-12c22.1-0.1,44.1,0,66.2,0c19.5,0,38.5,2.8,56.8,9.8c13.4,5.2,25.9,12.1,36,22.5
		c7.4,7.6,12.6,16.5,14.2,27.1c0.1,0.4,0.3,0.8,0.4,1.3C288.8,99.7,288.8,102.6,288.8,105.5z M115.8,253.1c17.8,0,35.6,0,53.4,0
		c12.3,0,18.8-6.4,18.8-18.6c0-31.3,0-62.5-0.1-93.8c0-3.2,1.1-5.4,3.5-7.4c2.9-2.3,5.6-4.9,8.1-7.6c13.1-14.3,13.4-32.6,0.9-47.4
		c-9-10.6-20.5-17.4-33.3-22.1c-34.1-12.5-68.4-12.5-102.6,0c-13.3,4.9-25.3,12-34.3,23.3c-7,8.8-10,18.7-7.1,29.9
		c2.6,9.9,8.8,17.3,16.6,23.5c2.8,2.2,4,4.6,4,8.3c-0.1,31.3-0.1,62.5-0.1,93.8c0,11.5,6.6,18.2,18.2,18.2
		C79.8,253.1,97.8,253.1,115.8,253.1z M174.9,47.5c2.4,1.1,4.9,2.2,7.3,3.4c10.8,5.4,20.4,12.3,27.9,22c10.1,13,13.4,27.4,7.7,43.3
		c-3.4,9.4-9.4,17-17,23.4c-1.4,1.2-2,2.5-2,4.4c0.1,30.3,0,60.5,0.1,90.8c0,6.1-1.2,11.8-4.6,17c-0.2,0.3-0.2,0.7-0.4,1.3
		c14.8,0,29.3,0,43.9,0c12.1,0,18.6-6.5,18.6-18.5c0-31.3,0-62.5-0.1-93.8c0-3.3,1.2-5.5,3.6-7.7c3.9-3.5,7.8-7.1,10.9-11.2
		c8.1-11,9.7-23,3.4-35.4c-4.3-8.3-11-14.5-18.7-19.6C230.9,50.9,203.5,46.5,174.9,47.5z"/>
	<path class="st0" d="M152.6,129.8c-1.2,2-1.8,3.7-3,4.8c-19.9,20-39.9,40-59.9,60c-2.8,2.8-6.1,3-8.4,0.7c-2.3-2.3-2-5.6,0.7-8.4
		c20-20,40-40,59.9-60c1.9-1.9,4.2-2.9,6.6-1.6C150.2,126.2,151.2,128.2,152.6,129.8z"/>
	<path class="st0" d="M106.6,129.9c-1.2,2-1.7,3.6-2.8,4.6c-7.3,7.4-14.6,14.7-22,22c-2.7,2.7-5.9,2.7-8.2,0.4
		c-2.1-2.2-2.1-5.4,0.5-8c7.3-7.4,14.8-14.8,22.2-22.2c1.8-1.8,4.2-2.7,6.4-1.3C104.2,126.3,105.2,128.3,106.6,129.9z"/>
	<path class="st0" d="M160.3,168.1c-1.1,2-1.7,3.6-2.8,4.7c-7.3,7.4-14.6,14.7-22,22c-2.6,2.6-6,2.7-8.2,0.5
		c-2.2-2.3-2.1-5.5,0.5-8.2c7.3-7.4,14.6-14.7,22-22c1.8-1.8,4.1-2.9,6.3-1.4C157.8,164.7,158.9,166.5,160.3,168.1z"/>
	<path class="st0" d="M121.2,114.8c0,2.9-2.5,5.4-5.4,5.4c-2.9,0-5.4-2.5-5.4-5.3c0-2.8,2.5-5.4,5.4-5.4
		C118.6,109.4,121.2,112,121.2,114.8z"/>
	<path class="st0" d="M121.2,206.9c0,2.8-2.6,5.4-5.4,5.4c-2.8,0-5.4-2.6-5.4-5.4c0-2.9,2.5-5.4,5.4-5.4
		C118.7,201.5,121.2,204,121.2,206.9z"/>
	<path class="st0" d="M223.8,194.8c0-13.2,0.1-26.4,0-39.6c0-2.9,0.8-5.2,2.8-7.3c8.6-9.5,14.8-20.5,17.4-33.1
		c0.9-4.2,1.1-8.6,1.5-12.9c0.3-3.3,1.8-5.4,4.5-5.9c3.4-0.7,6.4,2,6.3,5.9c-0.1,10.1-2.2,19.9-6.2,29.2
		c-3.4,7.9-7.9,15.2-13.6,21.7c-1.5,1.7-2,3.4-2,5.6c0.1,25.4,0,50.8,0,76.2c0,4.9-1.9,7.6-5.4,7.6c-3.5,0-5.5-2.6-5.5-7.5
		C223.8,221.4,223.8,208.1,223.8,194.8z"/>
</g>
</svg>
