<?xml version="1.0" encoding="utf-8"?>
<!-- Generator: Adobe Illustrator 25.2.1, SVG Export Plug-In . SVG Version: 6.00 Build 0)  -->
<svg version="1.1" id="Layer_1" xmlns="http://www.w3.org/2000/svg" xmlns:xlink="http://www.w3.org/1999/xlink" x="0px" y="0px"
	 viewBox="0 0 300 300" style="enable-background:new 0 0 300 300;" xml:space="preserve">
<style type="text/css">
	.st0{fill:#E93C3C;}
</style>
<g>
	<path class="st0" d="M74.3,293.6c-5.3-2.2-7.3-6.2-8.1-11.9c-4.8-37.3-9.9-74.7-14.8-112c-0.1-0.7-0.2-1.5-0.2-2.2
		c-0.1-2.8,1.1-4.5,3.5-4.9c2.4-0.4,4.4,1.2,4.8,4c0.7,4.6,1.3,9.3,1.9,13.9c3.1,23.5,6.3,47,9.4,70.6c1.4,10.4,2.8,20.7,4.1,31.1
		c0.2,2,0.8,3,3.1,3c23.8-0.1,47.7,0,71.5,0c0.3,0,0.5-0.1,1.1-0.2c-1.3-10.1-2.7-20.3-4-30.4c-20.7,11.5-39.7,10.3-55.9-7.8
		c-11.1-12.5-12.4-31.2-4.2-45.9c5-8.8,12.2-15,21.7-18.6c9.4-3.5,18.8-3.4,28.7,0c-0.5-4-0.9-7.6-1.4-11.3c-1.1-0.3-2.1-0.5-3.1-1
		c-4.1-1.8-6.2-5-6.3-9.4c-0.1-4.4,0-8.7,0-13.4c-1.4,0-2.4,0-3.5,0c-24.5,0-49,0-73.5,0c-8,0-11.6-3.7-11.6-11.7
		c0-4.8,0-9.5,0-14.3c0.1-6.2,4.2-10.7,10.4-10.3c4.6,0.3,6.6-1.4,7.9-5.5c1.8-5.3,4.2-10.4,6.3-15.6c2.3-5.6,6.4-8.5,12.6-8.5
		c28.9,0,57.8,0,86.7,0c6.3,0,10.4,2.9,12.8,8.6c2.5,6,5.1,12,7.4,18.1c0.8,2.1,1.9,3,4.1,2.6c0.7-0.1,1.5,0,2.2,0
		c6.8,0.1,10.7,4,10.8,10.9c0,4.7-0.1,9.4-0.1,14c0,0.9,0,1.8,0,3.1c1.3,0,2.3,0,3.3,0c16.5,0,32.9,0,49.4,0
		c7.9,0,11.7,3.8,11.7,11.7c0,2.8,0,5.6,0,8.4c0,7.1-2.4,10.2-9.4,12c-0.9,7-1.9,14.2-2.8,21.3c-0.2,1.2-0.3,2.4-0.5,3.6
		c-0.5,2.5-2.7,3.9-4.9,3.4c-2.3-0.5-3.6-2.5-3.3-5.1c0.9-7.1,1.9-14.3,2.8-21.4c0.1-0.6,0.1-1.1,0.2-1.8c-11.2,0-22.2,0-33.6,0
		c0,16.1,0,32.2,0,48.6c1.5,0,2.8,0,4.2,0c5.1,0.1,8.8,3.4,9,8.5c0.2,6.2,0.2,12.3,0,18.5c-0.2,5.1-4,8.3-9.1,8.4
		c-5.7,0.1-11.4,0-17.1,0c-5.2,0-9-3.4-9.1-8.6c-0.2-6-0.2-12,0-18c0.2-5.4,3.9-8.7,9.3-8.8c1.3,0,2.6,0,4.1,0c0-16.3,0-32.3,0-48.6
		c-19.4,0-38.8,0-58.4,0c5,38,10.1,75.9,15.1,114c23.5,0,46.9,0,70.5,0c0.8-5.5,1.5-11,2.3-16.5c2.3-17.3,4.6-34.6,6.9-52
		c0.4-3.1,2.2-4.6,4.8-4.4c2.6,0.3,4,2.1,3.6,5.3c-1.5,12-3.1,23.9-4.7,35.8c-1.3,10.1-2.9,20.2-4,30.3c-0.6,5-2.8,8.4-7.6,10
		C178.6,293.6,126.4,293.6,74.3,293.6z M118,138.8C118,138.8,118,138.8,118,138.8c23,0,46-0.1,69,0c2.4,0,3.3-0.7,3.2-3.2
		c-0.2-4.1,0-8.2,0-12.3c0-4.1,0-4.1-4-4.1c-31.5,0-63,0-94.5,0c-14.2,0-28.4,0-42.6,0c-2.6,0-3.5,0.8-3.4,3.4
		c0.2,4.2,0.2,8.4,0,12.6c-0.1,2.8,0.8,3.7,3.6,3.7C72.2,138.8,95.1,138.8,118,138.8z M124.7,253.4c3.6,0,9.3-1.6,14.6-4.7
		c3.9-2.3,6.2-4.7,5.3-10.2c-2.5-14.5-4.1-29.2-5.9-43.8c-0.3-2-1.2-3.1-3-3.8c-6-2.5-12.1-3.4-18.6-2.3
		c-16.3,2.6-28.6,17.9-27.3,34.1C91.2,240.3,105.2,253.6,124.7,253.4z M173.3,110.7c-2.3-5.7-4.6-11.1-6.8-16.5
		c-1.6-4-2.1-4.3-6.5-4.3c-22.3,0-44.7,0-67,0c-6.2,0-12.3-0.1-18.5,0.1c-1.4,0.1-3.6,0.9-4.1,2.1c-2.8,6-5.3,12.3-7.9,18.6
		C99.6,110.7,136.2,110.7,173.3,110.7z M194.1,162.4c19,0,38,0,56.9,0.1c2.6,0,3.5-0.8,3.4-3.4c-0.2-2.5,0-5,0-7.6
		c0-4.2,0-4.2-4.2-4.2c-36.8,0-73.7,0-110.5,0c-0.9,0-1.9,0-2.8,0c-1.8-0.1-2.5,0.8-2.5,2.5c0.1,3,0,6,0,9c0,3.5,0.1,3.6,3.6,3.6
		C156.7,162.4,175.4,162.4,194.1,162.4z M215.8,246.4c0-6.3,0-12.3,0-18.3c-6.2,0-12.1,0-18.3,0c0,6.2,0,12.2,0,18.3
		C203.7,246.4,209.6,246.4,215.8,246.4z"/>
	<path class="st0" d="M136.5,6.4c2.1,0.7,4.3,1.3,6.3,2.2c16.4,7.3,19.6,29.2,5.7,40.6c-7.9,6.5-16.2,12.4-24.4,18.4
		c-3.5,2.6-7.5,2.5-11-0.1c-8.1-6-16.3-11.9-24.2-18.2c-7.5-6-10.2-14.2-8.3-23.6c2-9.7,8.3-15.8,17.8-18.6c0.7-0.2,1.4-0.5,2.1-0.7
		c2.4,0,4.9,0,7.3,0c3.3,1.4,6.6,2.7,9.9,4c0.5,0.2,1.2,0.2,1.8,0c3.2-1.3,6.4-2.7,9.6-4C131.7,6.4,134.1,6.4,136.5,6.4z M88.6,31.7
		c0.1,4.2,2.1,8.4,6.2,11.6c7.4,5.6,14.8,11.1,22.2,16.7c1.3,1,2.2,0.9,3.4,0c3.7-2.9,7.5-5.6,11.2-8.4c4-3,8-5.8,11.8-9
		c6.2-5.4,7.2-14.2,2.5-20.8c-4.6-6.6-13.5-9-20.3-4.9c-4.8,2.9-8.8,2.9-13.8,0.1C101.5,10.8,88.6,18.7,88.6,31.7z"/>
	<path class="st0" d="M242.5,78.2c-0.8,2.2-1.4,4.4-2.4,6.4c-1.4,2.6-1.6,5.1-0.1,7.7c2.9,5.1,2.9,10.3,0.1,15.4
		c-0.7,1.3-1,2.8-1.3,4.2c-0.5,2.4-1.9,3.6-4.2,3.7c-2.2,0.1-4.3-1.7-4-4.1c0.2-2.5,0.9-5.1,2-7.4c1.4-2.9,1.5-5.4-0.1-8.2
		c-2.7-4.8-2.6-9.8-0.1-14.7c0.6-1.2,1.1-2.6,1.3-3.9c0.5-3,2.2-4.6,4.8-4.3C240.9,73.3,242.1,75.1,242.5,78.2z"/>
	<path class="st0" d="M221.1,78.3c-0.7,2.1-1.2,4.3-2.3,6.2c-1.5,2.8-1.6,5.4,0,8.2c2.8,4.9,2.7,9.9,0,15c-0.7,1.3-1.1,2.8-1.4,4.2
		c-0.5,2.6-2.2,4.1-4.6,3.9c-2.2-0.2-4-2-3.7-4.4c0.3-2.4,0.9-4.8,1.9-6.9c1.5-3,1.7-5.6,0-8.5c-2.8-4.8-2.6-9.8,0-14.7
		c0.6-1.2,1.1-2.6,1.3-3.9c0.5-2.9,2.1-4.4,4.5-4.3C219.4,73.2,220.8,75.1,221.1,78.3z"/>
	<path class="st0" d="M116.2,239.8c-1-0.7-2.6-1.4-3.1-2.5c-0.5-1.2-0.6-3.5,0.1-4.3c4-4.4,8.2-8.6,12.6-12.7
		c1.6-1.5,3.7-1.1,5.3,0.5c1.5,1.6,1.8,3.7,0.3,5.3c-4,4.3-8.2,8.4-12.4,12.4C118.4,239.2,117.5,239.3,116.2,239.8z"/>
	<path class="st0" d="M124.9,200.1c1,0.8,2.6,1.5,3.1,2.6c0.5,1.3,0.5,3.5-0.3,4.3c-3.9,4.3-8.1,8.5-12.4,12.5
		c-1.6,1.5-3.7,1.2-5.3-0.3c-1.7-1.7-1.9-3.8-0.3-5.5c3.9-4.2,8.1-8.2,12.2-12.3C122.6,200.9,123.6,200.7,124.9,200.1z"/>
</g>
</svg>
