<?xml version="1.0" encoding="utf-8"?>
<!-- Generator: Adobe Illustrator 25.2.1, SVG Export Plug-In . SVG Version: 6.00 Build 0)  -->
<svg version="1.1" id="Layer_1" xmlns="http://www.w3.org/2000/svg" xmlns:xlink="http://www.w3.org/1999/xlink" x="0px" y="0px"
	 viewBox="0 0 300 300" style="enable-background:new 0 0 300 300;" xml:space="preserve">
<style type="text/css">
	.st0{fill:#E93C3C;}
</style>
<g>
	<path class="st0" d="M138.5,284.2c-5.1-1.2-9-3.7-10.7-8.8c-1.3-3.7-0.6-7.2,1.2-10.8c-11.8-6.8-23.4-13.5-35.2-20.3
		c-2.7,4.4-6.4,7.3-11.4,6.9c-2.7-0.2-5.6-1.3-8-2.7c-9.6-5.3-19.1-10.9-28.6-16.4c-2.6-1.5-3.5-3.8-2.3-5.8
		c1.2-2.1,3.6-2.5,6.4-0.9c9.6,5.5,19.2,11.1,28.8,16.6c4.3,2.5,6.2,1.9,8.7-2.4c1.3-2.3,2.6-4.5,4-6.9c-3.8-2.2-7.5-4.4-11.2-6.5
		c-7.9-4.6-15.9-9.1-23.8-13.8c-2.3-1.3-3-3.6-2-5.5c1.1-2,3.4-2.5,5.9-1.2c0.5,0.3,1.1,0.6,1.6,0.9c6.7,3.9,13.5,7.8,20.2,11.6
		c4.3,2.5,8.6,5,13.3,7.6c1.7-3.2,3.6-6.2,5.1-9.4c1.1-2.4,0-4.3-2.8-5.9c-7.6-4.4-15.3-8.8-22.9-13.2c-2.3-1.4-4.7-2.7-7-4.1
		c-2.5-1.5-3.1-3.7-1.9-5.7c1.2-1.9,3.4-2.4,5.8-1.1c10.4,5.9,20.8,11.8,31,18c5.9,3.5,7.5,9.8,4.7,16.2c-0.2,0.5-0.4,0.9-0.7,1.5
		c0.7,0.5,1.3,0.9,2,1.3c14.1,8.2,28.3,16.3,42.4,24.5c1.5,0.9,2.5,0.9,4,0c14.7-8.6,29.5-17,44.2-25.6c0.8-0.5,1.9-1.4,2-2.2
		c1.2-8.7,6.4-14.6,13.5-18.9c8.7-5.3,18.2-7.8,28.3-4.9c11.2,3.2,16.5,13.6,13.2,24.7c-4.1,13.4-19,24.6-33,24.6
		c-2.5,0-5-0.7-7.4-1.4c-1.5-0.4-2.6-0.5-3.9,0.4c-2.7,1.7-5.6,3.3-8.4,4.9c-2.6,1.4-4.7,0.9-5.9-1.2c-1.2-2.1-0.5-4.2,2.1-5.7
		c3.9-2.3,7.8-4.7,11.8-6.8c1.1-0.6,2.9-0.9,3.9-0.3c7.6,4.2,14.5,2.2,21.2-2.1c5-3.2,8.9-7.3,11.3-12.8c3.6-8.3-0.1-15.3-8.9-17.2
		c-9.1-1.9-22.5,3.3-27.5,11.2c-1.4,2.3-2.1,5.1-2.5,7.8c-0.4,2.5-1.3,4.1-3.5,5.4c-14,8-27.8,16-41.7,24.1
		c-0.9,0.5-1.8,1.1-2.9,1.7c3.1,1.8,5.8,3.5,8.7,5c0.7,0.3,1.9,0.2,2.6-0.2c4.5-2.4,9-5,13.5-7.5c0.6-0.3,1.2-0.7,1.9-1
		c2.1-0.9,4.2-0.3,5.3,1.5c1.1,1.9,0.6,4.1-1.6,5.4c-3.7,2.2-7.6,4.3-11.4,6.4c-0.8,0.5-1.6,1-2.4,1.4c3.2,8.6,1,15.3-6,18.5
		c-0.9,0.4-1.7,0.8-2.6,1.1c-1.6,0-3.1,0-4.7,0c-3.2-1.6-6.4-3.1-9.5-4.9c-1.2-0.7-2.1-0.6-3.3,0c-3.2,1.7-6.5,3.2-9.8,4.8
		C140.6,284.2,139.5,284.2,138.5,284.2z M97.7,237.3c0.6,0.4,1,0.7,1.5,1c21.2,12.3,42.5,24.5,63.7,36.8c0.5,0.3,1.1,0.6,1.6,0.8
		c2.4,1,4.8,0.1,6-2.1c1.3-2.3,0.8-4.6-1.4-6.2c-0.8-0.6-1.7-1.2-2.6-1.7c-20.9-12.1-41.9-24.2-62.8-36.3c-0.4-0.2-0.8-0.3-1.3-0.5
		C100.8,231.8,99.2,234.5,97.7,237.3z M145,273.8c-3.2-1.8-6.1-3.5-9-5.2c-1.6,2.5-1.4,4.4,0.4,6.2
		C138.6,276.9,140.7,276.7,145,273.8z"/>
	<path class="st0" d="M208.7,142.4c0,4.8,0,9.3,0,13.9c0,9.2,0,18.3,0,27.5c-0.1,8.1-5.3,13.3-13.3,13.4c-5.3,0-10.7,0-16,0
		c-3.2,0-5.1-1.5-5.1-4c0.1-2.4,1.8-3.8,5-3.8c5.2,0,10.5,0,15.7,0c4,0,5.7-1.7,5.8-5.7c0-2.5,0-5,0-7.7c-33.4,0-66.5,0-99.9,0
		c0,3.2-0.2,6.3,0.1,9.4c0.1,2.3,1.7,3.6,3.9,3.9c0.9,0.1,1.7,0.1,2.6,0.1c18.2,0,36.3,0,54.5,0c1,0,1.9-0.1,2.9,0.1
		c2,0.3,3.1,1.6,3.3,3.6c0.1,1.9-0.9,3.4-2.8,3.9c-0.9,0.3-1.9,0.3-2.8,0.3c-18.5,0-37,0-55.6,0c-9.1,0-14.1-5.1-14.1-14.1
		c0-12.6,0-25.2,0-37.7c0-0.9,0-1.9,0-2.9c-7.6-0.8-14.4-3-20.8-6.6C41.3,118.2,38.5,73.2,67,52c11.2-8.3,23.7-11.6,37.5-9.6
		c1.9,0.3,2.7-0.4,3.6-2c15-25.8,50.4-32.6,73.9-14.2c5.1,4,9.4,8.8,12.6,14.6c0.8,1.4,1.7,1.8,3.3,1.6c26.8-3.9,52.2,15,56.3,41.9
		c4.4,28.6-15.3,54.5-44.1,57.9C209.8,142.2,209.4,142.3,208.7,142.4z M173,167.7c0-4,0-7.7,0-11.5c0-3,1.4-4.6,3.8-4.7
		c2.5-0.1,4,1.7,4.1,4.7c0,1,0,2.1,0,3.1c0,2.8,0,5.5,0,8.2c6.8,0,13.3,0,19.9,0c0-7.7-0.1-15.2,0-22.7c0-1.9-0.5-2.5-2.5-2.9
		c-4.9-1.1-9.7-2.6-14.6-4.1c-1.9-0.6-2.9-2.3-2.5-4.4c0.3-1.9,1.5-3,3.4-3.1c1.2,0,2.4,0.3,3.5,0.8c7.7,3.1,15.7,3.9,23.9,2.5
		c18.8-3.1,34.4-20.8,34.9-39.8c0.6-21-14.1-39.4-34.8-43.3c-4.2-0.8-8.5-0.7-12.6-0.9c0.7,5.8,1.4,10.8,1.8,15.9
		c0.2,2.3-0.9,3.9-3.4,4.2c-2.3,0.3-3.9-1-4.3-3.5c-0.3-2-0.2-4-0.5-6c-3.5-23.7-25-38.9-47-36.2c-17.7,2.2-32.8,15.5-36.3,33
		c-0.6,3.1-0.7,6.2-1.2,9.3c-0.3,2.3-1.7,3.6-4.1,3.5c-2.1-0.1-3.6-1.6-3.6-4c0-2,0-4,0.3-6c0.5-3.2,1.2-6.3,1.8-9.5
		c-0.4-0.1-0.7-0.3-1.1-0.3c-27.1-3.2-50.8,21.3-46.7,48.2c2.7,18,17.4,32.8,35.2,35.6c8.3,1.3,16.2,0.3,23.9-2.8
		c3-1.2,5.1-0.5,6,1.7c1,2.3-0.1,4.6-3.2,5.6c-4.7,1.5-9.5,2.8-14.4,3.8c-1.7,0.4-2.3,0.8-2.3,2.6c0.1,6.4,0,12.8,0,19.1
		c0,1.3,0,2.5,0,3.8c6.3,0,12.2,0,18.3,0c0-3.8,0-7.3,0-10.9c0-3.3,1.4-5.1,3.9-5.2c2.5,0,4,1.8,4,5.1c0,3.6,0,7.3,0,11.1
		c6.4,0,12.6,0,19.1,0c0-1.6,0-3.1,0-4.5c0-2.8,0-5.6,0.2-8.4c0.2-2.1,1.7-3.2,3.8-3.2c2.1,0,3.4,1.2,3.7,3.3
		c0.2,1.2,0.1,2.4,0.1,3.7c0,3,0,6.1,0,9.2C160.4,167.7,166.5,167.7,173,167.7z"/>
</g>
</svg>
