<?xml version="1.0" encoding="utf-8"?>
<!-- Generator: Adobe Illustrator 25.2.1, SVG Export Plug-In . SVG Version: 6.00 Build 0)  -->
<svg version="1.1" id="Layer_1" xmlns="http://www.w3.org/2000/svg" xmlns:xlink="http://www.w3.org/1999/xlink" x="0px" y="0px"
	 viewBox="0 0 300 300" style="enable-background:new 0 0 300 300;" xml:space="preserve">
<style type="text/css">
	.st0{fill:#E93C3C;}
</style>
<g>
	<path class="st0" d="M292,285.9c0,0.9,0,1.8,0,2.8c-1.5,2.6-3.8,3.4-6.7,3.4C195,292,104.8,292,14.6,292c-1,0-2.1,0-3-0.2
		c-2.7-0.7-4.2-3.5-3.3-6c0.9-2.3,2.7-3.2,5-3.2c4.5,0,9,0,14.1,0c-5.9-6.1-9.2-12.8-9.8-20.6c-0.4-5.5-0.2-11.1-0.2-16.6
		c0-6.1,3.8-9.8,9.8-10.1c1.4-0.1,2.9-0.1,4.4-0.2c0-4.7,0.1-9-0.1-13.4c0-0.7-0.9-1.7-1.6-2.1c-7.9-3.4-12.5-9.9-12.5-17.6
		c0-7.9,4.6-14.4,12.4-17.6c0.7-0.3,1.7-1.1,1.7-1.7c0.1-4.5,0.1-9,0.1-13.7c-1.6,0-2.9,0-4.2,0c-6.1-0.1-10-3.9-10.1-10.1
		c0-2.2-0.1-4.4,0.1-6.7c1.6-20.2,11.4-35.1,29.6-44.3c8.6-4.4,17.8-5.4,27.2-5.1c1.7,0.1,3.4,0,5.4,0c-1.7-14.5-3.3-28.5-5-42.6
		c-1.9,0-3.5,0.1-5,0c-2.3-0.2-4.6-1.1-4.6-3.6c-0.1-6.5-0.6-13.2,0.6-19.5c1.2-6.5,6.6-9.4,13.3-10.1c0-1.6-0.1-3.2,0-4.7
		c0.4-7.6,4.7-11.9,11.6-14.1c38.1,0,76.2,0,114.3,0c0.4,0.2,0.8,0.5,1.2,0.6c6.2,2.2,9.7,6.5,10.1,13.2c0.1,1.6,0,3.3,0,4.9
		c0.8,0.2,1.2,0.3,1.7,0.4c8.1,1.5,12.5,6.8,12.6,15c0,4.1,0,8.1,0,12.2c0,4-1.8,5.7-5.8,5.8c-1.4,0-2.7,0-4.2,0
		c-2,17.6-4,34.8-6.1,52.2c4.4,1.5,6.5,4.7,6.6,9.1c0.4,0.1,0.6,0.3,0.7,0.3c5.6,0,11.3,0,16.9,0.1c4.2,0,5.9,1.7,6,5.8
		c0.1,2.7,0,5.3,0,7.8c0.5,0.2,0.6,0.4,0.8,0.4c4.2,0,8.3,0.1,12.5,0.1c7.3,0,10.3,3,10.3,10.3c0,4.4,0,8.8,0,13.4c1.9,0,3.5,0,5,0
		c6.4,0.1,10,4.5,9,10.8c-1,6.6-2,13.1-3,19.7c-3.8,24.7-7.6,49.5-11.4,74.2c-0.9,6-1.8,12-2.8,18.3c7,0,13.6,0.1,20.2,0
		C288.2,282.4,290.5,283.2,292,285.9z M272.8,169.2c-0.7-0.2-0.9-0.3-1.2-0.3c-7.2-0.4-12.1,2.8-15.2,9.7
		c-4.5,10.4-11.4,18.7-21.4,24.3c-10,5.6-20.8,7.4-32.1,6.9c-13.1-0.5-24.4-5.3-34.1-14.1c-5.6-5.1-9.3-11.3-12.4-18.2
		c-2.9-6.5-9.2-9.8-15.8-8.4c0.1,1.2,0.2,2.4,0.4,3.6c5.5,35.6,11,71.2,16.4,106.8c0.4,2.3,1,3,3.4,3c30.5-0.1,61-0.1,91.5-0.1
		c0.9,0,1.8,0,3,0C261.2,244.7,267,207,272.8,169.2z M210.9,60.2c-42.3,0-84.3,0-126.5,0c0.1,1.4,0.2,2.5,0.3,3.7
		c1.4,11.9,2.9,23.8,4.1,35.8c0.3,2.4,1,3,3.3,3c20.4-0.1,40.8,0,61.3-0.1c10,0,19.4,2.2,28,7.5c2.7,1.7,5.2,3.6,8,5.5
		c4.1-5.5,10.1-2.8,15.5-3.8C206.9,94.8,208.9,77.6,210.9,60.2z M27,159.2c37.9,0,75.6,0,113.5,0c0-3.2,0-6.1,0-9.1
		c0-6.3,3.2-9.6,9.5-9.6c4.6,0,9.2,0,14.2,0c0-3.5-0.1-6.8,0-10.1c0.2-5.5,3.4-8.7,8.9-8.8c2.4,0,4.9,0,8,0
		c-8-6.3-16.5-9.4-25.7-9.4c-28.9-0.1-57.8-0.3-86.8,0.1C43.6,112.6,25,133.9,27,159.2z M148.5,282.5c-0.9-5.9-1.7-11.4-2.6-17
		c-6.2,3.8-6.3,3.8-11.5-1.4c-5.9-5.9-11.7-11.8-17.7-17.6c-1.1-1-2.8-1.8-4.3-1.8c-27.5-0.1-55.1-0.1-82.6-0.1
		c-0.9,0-1.8,0.1-3.2,0.2c0.4,6.6-0.1,13.2,1.3,19.5c2.4,11.5,12,18.2,24.3,18.2c31.1,0,62.3,0,93.4,0
		C146.4,282.5,147.3,282.5,148.5,282.5z M74.5,50.4c48.9,0,97.6,0,146.5,0c0-2.4,0-4.6,0-6.8c0-6-1.3-7.3-7.4-7.3
		c-44,0-88,0-131.9,0c-1.3,0-2.8-0.2-3.8,0.4c-1.3,0.7-3.1,2-3.2,3.3C74.2,43.4,74.5,46.9,74.5,50.4z M131.1,169.1
		c-30.1,0-59.9,0-89.7,0c0,4.7,0,9.3,0,14.1c3.5,0,6.9,0.3,10.1-0.1c7.4-0.9,13.1,1.6,18,7.3c5.2,6.1,11.3,11.5,17,17.1
		c0.6,0.6,1.3,1.2,2.1,1.9c7.5-7.5,14.9-14.8,22.2-22.3c2.8-2.8,5.9-4.2,9.9-4.1c4.1,0.2,8.3,0,12.7,0
		C132.5,178.3,131.8,173.7,131.1,169.1z M41.3,235.2c1.4,0,2.5,0,3.6,0c22.7,0,45.5,0,68.2,0c4,0,7.1,1.2,9.9,4.1
		c5.1,5.3,10.4,10.5,15.7,15.7c0.6,0.6,1.3,1.2,1.8,1.7c3-1.8,3.9-3.9,3.1-7.1c-1-4.1-1.3-8.4-1.9-12.6c-0.8-5.3-1.7-10.5-2.5-15.8
		c-32.7,0-65.2,0-97.8,0C41.3,225.8,41.3,230.3,41.3,235.2z M197.3,121.7c0,1.2,0,2.1,0,3c0,23.9,0,47.8,0,71.8c0,0.6-0.1,1.2,0,1.6
		c0.2,0.6,0.7,1.5,1.2,1.5c4.3,0.4,8.6,0.6,12.9,0.9c0-26.7,0-52.7,0-78.8C206.7,121.7,202.2,121.7,197.3,121.7z M206.5,26.8
		c0.9-7.6-0.6-9.4-7.7-9.4c-34.3,0-68.6,0-102.9,0c-1,0-2-0.1-3,0.1c-2.5,0.4-4,1.8-4.3,4.3c-0.2,1.6,0,3.2,0,4.9
		C128,26.8,167.1,26.8,206.5,26.8z M221.1,199.1c4.3-2.2,8.1-4.2,11.9-6.1c1.8-0.9,2.3-2.2,2.3-4.2c-0.1-18.2,0-36.4,0-54.6
		c0-1,0-2,0-2.9c-5,0-9.6,0-14.1,0C221.1,153.8,221.1,176,221.1,199.1z M174,131.2c-0.1,0.4-0.2,0.6-0.2,0.8c0,17.9,0,35.9,0,53.8
		c0,0.6,0.1,1.4,0.4,1.8c3.7,4,8.1,7.1,13.4,9.2c0-22.1,0-43.8,0-65.6C182.9,131.2,178.5,131.2,174,131.2z M77,211.5
		c-6.4-6.4-12.2-12.2-18.1-18c-0.5-0.5-1.4-0.9-2.2-0.9c-7-0.1-14-0.1-21.1,0c-3.9,0.1-7.2,2.9-8.3,6.6c-1.8,6.2,2.9,12.1,9.9,12.2
		c8.8,0.1,17.6,0,26.3,0C67.8,211.5,72,211.5,77,211.5z M99.9,211.4c13,0,25.3,0,37.7,0c-1-6.3-1.9-12.4-2.8-18.7
		c-5.2,0-10.3,0-15.3,0c-0.5,0-1.1,0.4-1.4,0.7C112.1,199.2,106.2,205.1,99.9,211.4z M244.8,179.4c0.2,0.1,0.4,0.1,0.5,0.2
		c0.7-1.3,1.4-2.5,2-3.8c2.2-5.3,5.3-9.9,10.4-12.9c0.5-0.3,1.1-1.1,1.1-1.7c0.1-5.2,0-10.5,0-15.7c-4.8,0-9.4,0-14,0
		C244.8,156.9,244.8,168.2,244.8,179.4z M164,171.3c0-7.7,0-14.4,0-21.2c-4.7,0-9.3,0-13.9,0c0,3.5,0,6.8,0,10.2
		C155.8,162.2,160.4,165.5,164,171.3z"/>
	<path class="st0" d="M230.4,247.4c-0.1,14.3-12,25.8-26.5,25.7c-13.9-0.1-25.7-12.2-25.5-26.1c0.2-14.4,11.8-26.1,25.9-26
		C218.8,221.1,230.5,232.9,230.4,247.4z M221,246.9c-0.1-9.1-7.7-16.6-16.7-16.4c-9,0.2-16.3,7.6-16.4,16.5c0,9,7.6,16.7,16.6,16.6
		C213.5,263.5,221,255.9,221,246.9z"/>
	<path class="st0" d="M71.7,135.7c-0.6,0-1.1,0-1.7,0c-3.2-0.2-5.1-1.9-5.2-4.6c-0.1-2.7,1.8-4.6,5-4.8c1.6-0.1,3.3-0.1,5,0.2
		c2.6,0.4,4.2,2.4,4.1,4.7c-0.1,2.4-1.8,4.2-4.4,4.4C73.6,135.8,72.6,135.7,71.7,135.7C71.7,135.7,71.7,135.7,71.7,135.7z"/>
	<path class="st0" d="M128.6,135.7c-4.7,0.1-7-1.5-6.9-4.7c0.1-3.1,2.3-4.7,6.8-4.6c1.1,0,2.2,0,3.3,0.2c2.6,0.5,4.1,2.4,3.8,4.9
		c-0.2,2.6-1.8,4-4.3,4.2C130.4,135.7,129.5,135.7,128.6,135.7z"/>
	<path class="st0" d="M100.3,145.2c-4.8,0-7-1.5-7-4.7c0-3.2,2.2-4.8,7-4.8c4.7,0,7,1.6,7,4.8C107.3,143.7,105.1,145.2,100.3,145.2z
		"/>
</g>
</svg>
