<?xml version="1.0" encoding="utf-8"?>
<!-- Generator: Adobe Illustrator 25.2.1, SVG Export Plug-In . SVG Version: 6.00 Build 0)  -->
<svg version="1.1" id="Layer_1" xmlns="http://www.w3.org/2000/svg" xmlns:xlink="http://www.w3.org/1999/xlink" x="0px" y="0px"
	 viewBox="0 0 300 300" style="enable-background:new 0 0 300 300;" xml:space="preserve">
<style type="text/css">
	.st0{fill:#E93C3C;}
</style>
<g>
	<path class="st0" d="M186.1,76.8c1.6,0,2.8,0,4,0c17.8,0,35.6,0,53.4,0c2.8,0,4.7,0.9,6.5,2.9c13.6,15.5,27.3,30.9,41.1,46.2
		c1.7,1.9,2.5,3.9,2.5,6.5c-0.1,28.6,0,57.1,0,85.7c0,5-1.2,6.2-6.2,6.2c-7,0-14.1-0.1-21.1,0.1c-1.2,0-2.7,0.8-3.4,1.7
		c-15.5,21.4-45.4,21.4-60.8,0.1c-0.7-1-2.4-1.8-3.6-1.8c-32.3-0.1-64.6-0.1-96.9-0.1c-1.8,0-2.9,0.7-3.9,2.1
		c-15,21.1-45.3,21.1-60.3-0.1c-1.1-1.5-2.2-2-4-2c-7.2,0.1-14.5,0.1-21.7,0c-3.8,0-5.3-1.5-5.3-5.3c0-51.9,0-103.8,0-155.7
		c0-4.1,1.5-5.6,5.7-5.6c56.1,0,112.2,0,168.4,0c4.1,0,5.6,1.5,5.6,5.7C186.1,67.7,186.1,72.1,186.1,76.8z M15,186.5
		c6.3,0,12.2-0.1,18.1,0c2,0,3.2-0.6,4.4-2.3c14.8-21,45.3-20.9,60.1,0.1c1.2,1.7,2.5,2.2,4.5,2.2c24,0,48.1,0,72.1,0
		c1.1,0,2.1-0.1,3.3-0.2c0-40.2,0-80,0-119.9c-54.3,0-108.3,0-162.4,0C15,106.4,15,146.2,15,186.5z M186.3,85.4
		c0,33.8,0,67.3,0,101.1c4.7,0,9.2,0.1,13.6-0.1c0.7,0,1.5-0.9,2-1.6c15.8-21.8,45-21.8,61.1,0.1c0.5,0.7,1.3,1.5,2,1.5
		c6.6,0.1,13.2,0.1,20,0.1c0-5.6,0-10.7,0-16.3c-2.3,0-4.3,0.1-6.4,0c-1.9-0.1-3.9,0-5.7-0.5c-6.3-1.6-10.2-7.6-9.5-14.3
		c0.7-6.3,6-11.2,12.4-11.4c3.1-0.1,6.1,0,9.4,0c0-2.7-0.2-4.9,0-7.1c0.4-3.6-1-6.2-3.4-8.8c-12.2-13.5-24.2-27.2-36.4-40.7
		c-1-1.1-2.8-2-4.3-2c-17.3-0.1-34.6-0.1-51.9-0.1C188.3,85.3,187.4,85.4,186.3,85.4z M196.2,215.8c0-7,0-13.8,0-20.6
		c-30.7,0-61.9,0-92.5,0c0,7,0,13.7,0,20.6C134.4,215.8,165.5,215.8,196.2,215.8z M95.9,205.7c0.3-15.3-12.1-28.3-27.4-28.6
		c-16.1-0.4-29,12-29.3,28c-0.2,15.4,12.3,28.3,27.8,28.7C82.6,234.2,95.6,221.6,95.9,205.7z M204.1,205.3
		c0,15.7,12.8,28.5,28.3,28.5c15.7-0.1,28.6-13,28.5-28.7c-0.1-15.5-12.7-28-28.4-28.1C216.7,177,204.1,189.6,204.1,205.3z
		 M284.9,215.8c0-6.9,0-13.7,0-20.6c-5.7,0-11.3,0-16.3,0c0,7,0,13.7,0,20.6C273.6,215.8,279.2,215.8,284.9,215.8z M15.1,195.2
		c0,7,0,13.8,0,20.6c5.8,0,11.3,0,16.3,0c0-6.9,0-13.7,0-20.6C26.2,195.2,20.7,195.2,15.1,195.2z M285,152.5c-3.3,0-6.3-0.2-9.2,0.1
		c-2.3,0.2-3.8,1.7-4,4.1c-0.2,2.4,0.8,4.5,3.2,4.7c3.3,0.4,6.7,0.1,10.1,0.1C285,158.4,285,155.6,285,152.5z"/>
	<path class="st0" d="M96.1,158c-20.2,0-40.4,0-60.7,0c-5.3,0-6.3-1-6.3-6.4c0-21.7,0-43.5,0-65.2c0-5.2,1.1-6.3,6.4-6.3
		c40.4,0,80.9,0,121.3,0c5.3,0,6.4,1.1,6.4,6.3c0,21.7,0,43.5,0,65.2c0,5.4-1,6.4-6.3,6.4C136.8,158,116.4,158,96.1,158z
		 M154.8,116.8c-10.3,5.4-19.2,4.2-27.1-4.2c-4.2,4.7-9.3,7.4-15.6,7.5c-6.4,0-11.6-2.7-15.8-7.5c-4.3,4.9-9.4,7.5-15.7,7.5
		c-6.4,0-11.5-2.8-15.7-7.5c-8,8.5-17,9.5-27,4.3c0,10.9,0,21.7,0,32.5c39.1,0,78,0,117,0C154.8,138.4,154.8,127.8,154.8,116.8z
		 M123.4,88.8c-7.8,0-15.3,0-22.9,0c0,4.2-0.2,8.3,0,12.2c0.3,6,5.4,10.5,11.4,10.5c5.9,0,11-4.4,11.4-10.3
		C123.6,97.2,123.4,93.1,123.4,88.8z M37.6,88.7c0,4.1-0.1,7.9,0,11.7c0.1,5.8,4.3,10.4,9.9,11c6,0.7,11.6-2.8,12.5-8.7
		c0.7-4.5,0.1-9.3,0.1-14.1C52.8,88.7,45.4,88.7,37.6,88.7z M69.1,88.7c0,4-0.1,7.8,0,11.5c0.1,5.8,4.4,10.5,9.8,11.2
		c6,0.7,11.6-2.7,12.6-8.6c0.7-4.5,0.1-9.3,0.1-14C84.2,88.7,76.8,88.7,69.1,88.7z M154.8,88.8c-7.8,0-15.2,0-22.9,0
		c0,3.5,0,6.8,0,10c0,1,0,2,0.2,3c1,5.8,5.9,9.7,11.7,9.6c5.5-0.1,10.5-4.4,10.9-9.8C155.1,97.5,154.8,93.2,154.8,88.8z"/>
	<path class="st0" d="M238.6,134.5c-9.8,0-19.7,0-29.5,0c-4.6,0-5.9-1.3-5.9-5.9c0-10.5,0-20.9,0-31.4c0-4.4,1.4-5.8,5.7-5.8
		c9.6,0,19.3,0.1,28.9,0c2.3,0,4,0.8,5.5,2.5c9.6,10.9,19.3,21.8,29,32.7c1.4,1.6,2.5,3.2,1.4,5.4c-1,2.2-2.9,2.5-5,2.5
		C258.7,134.5,248.6,134.5,238.6,134.5z M260.4,125.9c-7.8-8.7-15-16.9-22.4-25c-0.6-0.7-1.9-0.9-3-0.9c-5.6-0.1-11.3,0-16.9,0
		c-2.2,0-4.3,0-6.4,0c0,9,0,17.5,0,26C227.9,125.9,243.8,125.9,260.4,125.9z"/>
	<path class="st0" d="M212.7,151.3c-1.8,0-3.6,0.1-5.4,0c-2.5-0.1-4-1.5-4.1-3.9c-0.2-2.4,1.3-4.2,3.6-4.4c4-0.3,8-0.3,12,0
		c2.3,0.2,3.8,1.8,3.7,4.3c-0.1,2.5-1.6,3.8-4,4C216.5,151.3,214.6,151.3,212.7,151.3z"/>
	<path class="st0" d="M67.7,189.1c9,0.1,16.2,7.3,16.2,16.3c0,8.9-7.4,16.3-16.3,16.3c-9,0-16.5-7.5-16.4-16.6
		C51.3,196.2,58.6,189,67.7,189.1z M75.4,205.4c0-4.3-3.4-7.8-7.8-7.9c-4.4,0-7.9,3.3-8,7.7c-0.1,4.3,3.6,8.1,8,8.1
		C71.9,213.3,75.4,209.7,75.4,205.4z"/>
	<path class="st0" d="M232.6,189.1c9,0.1,16.2,7.4,16.2,16.4c-0.1,8.9-7.6,16.3-16.4,16.2c-9.1-0.1-16.4-7.5-16.3-16.7
		C216.3,196.1,223.6,189,232.6,189.1z M224.5,205.5c0.1,4.3,3.7,7.9,7.9,7.8c4.4-0.1,8-3.9,7.9-8.2c-0.2-4.3-3.7-7.6-8.1-7.5
		C227.8,197.7,224.5,201.2,224.5,205.5z"/>
</g>
</svg>
