<?xml version="1.0" encoding="utf-8"?>
<!-- Generator: Adobe Illustrator 27.5.0, SVG Export Plug-In . SVG Version: 6.00 Build 0)  -->
<svg version="1.1" xmlns="http://www.w3.org/2000/svg" xmlns:xlink="http://www.w3.org/1999/xlink" x="0px" y="0px"
	 viewBox="0 0 750 500" style="enable-background:new 0 0 750 500;" xml:space="preserve">
<g id="BACKGROUND">
	<rect style="fill:#FFFFFF;" width="750" height="500"/>
</g>
<g id="OBJECTS">
	<g>
		<g>
			<path style="fill:#FFBD70;" d="M491.141,275.039l-5.96-0.669c-1.318-0.148-2.541-0.757-3.453-1.719l-2.222-2.343
				c0,0,0.159-1.894,2.175-1.565l-3.797-4.129c0,0,2.219-2.422,5.407,0.855l-2.641-3.671c0,0,1.585-2.944,6.524,2.116
				c4.939,5.06,11.318-0.133,11.318-0.133L491.141,275.039z"/>
			<path style="opacity:0.2;" d="M491.141,275.039l-5.96-0.669c-1.318-0.148-2.541-0.757-3.453-1.719l-2.222-2.343
				c0,0,0.159-1.894,2.175-1.565l-3.797-4.129c0,0,2.219-2.422,5.407,0.855l-2.641-3.671c0,0,1.585-2.944,6.524,2.116
				c4.939,5.06,11.318-0.133,11.318-0.133L491.141,275.039z"/>
			<path style="fill:#FFBD70;" d="M489.101,225.384l2.808,16.011c0.605,3.453,1.712,6.799,3.284,9.932l3.993,7.959
				c1.22,2.432,1.449,5.244,0.636,7.841l-2.223,7.107c-0.732,2.339-2.81,4-5.253,4.197l-6.433,0.52
				c-1.174,0.095-1.88-1.322-1.062-2.17c0.975-1.011,2.198-1.774,3.569-2.199l2.292-0.711l3.044-6.754l-8.238-3.767
				c0,0-4.425-4.902-3.302-11.784c1.122-6.882-4.696-17.85-4.696-17.85L489.101,225.384z"/>
			<path style="opacity:0.1;" d="M491.064,263.241c1.112,1.34,2.23,2.691,3.07,4.217c0.84,1.526,1.393,3.254,1.281,4.992
				c-0.112,1.738-0.961,3.477-2.436,4.402c-0.605-1.058-1.448-2.43-1.777-3.604c-0.028-0.099-0.049-0.2-0.073-0.3l2.628-5.83
				l-2.785-1.273C491.013,264.973,491.053,264.101,491.064,263.241z"/>
			<path style="fill:#FFBD70;" d="M491.452,262.871l1.746,6.79l1.008,4.508c0.116,0.517,0.06,1.058-0.157,1.541l-0.043,0.096
				c-0.36,0.798-1.118,1.343-1.988,1.431l0,0c-0.871,0.087-1.722-0.296-2.233-1.007l-0.359-0.499
				c-1.331-1.849-2.247-3.963-2.688-6.198l-1.219-6.18L491.452,262.871z"/>
			<path style="opacity:0.2;fill:#FFFFFF;" d="M492.892,272.448c0.026,0.473,0.258,0.905,0.437,1.343
				c0.178,0.439,0.305,0.941,0.121,1.378c-0.111,0.263-0.323,0.471-0.553,0.641c-0.322,0.239-0.698,0.421-1.098,0.456
				c-0.646,0.056-1.276-0.283-1.723-0.753c-0.448-0.469-0.744-1.059-1.034-1.639C490.073,273.052,491.575,272.507,492.892,272.448z"
				/>
			<path style="opacity:0.2;fill:#FFFFFF;" d="M484.585,278.068c1.061-0.49,2.249-0.703,3.413-0.607
				c0.201,0.4,0.32,0.853,0.322,1.296l-2.407,0.195C485.263,279.004,484.768,278.59,484.585,278.068z"/>
		</g>
		<path style="fill:#5C3B1F;" d="M455.37,85.685c1.897,2.386,4.08,4.543,6.489,6.411c1.25,0.969,2.71,1.903,4.285,1.749
			c1.994-0.195,3.702-3.681,3.133-5.603c0.645,0.085,1.324-0.266,1.628-0.841c0.303-0.575,0.61-1.958,0.176-2.442
			c1.057-0.177,1.927-1.005,2.368-1.982c0.441-0.977,0.503-2.086,0.416-3.154c-0.412-5.085-4.068-9.392-9.04-10.537
			c0.465-0.623,0.491-1.538,0.064-2.187c-0.427-0.649-0.838-1.591-1.594-1.411c0.373,0.318,1.013,0.115,1.238-0.32
			c0.226-0.434,0.101-0.987-0.19-1.381c-0.291-0.394-0.721-0.659-1.151-0.893c-2.521-1.375-5.268-2.007-7.966-1.024
			c0.659-0.354,0.806-1.328,0.399-1.956c-0.407-0.628-1.215-0.909-1.961-0.849c-0.745,0.06-1.155,0.427-1.781,0.837
			c0.174-1.01-0.842-1.803-1.775-2.228c-2.938-1.337-6.369-1.558-9.454-0.609c-3.086,0.949-5.327,3.151-7.006,5.908
			c0.386-1.035-0.555-2.201-1.642-2.396c-1.087-0.195-2.181,0.32-3.07,0.975c-2.237,1.646-3.704,4.296-3.912,7.065
			c-3.455,0.918-6.348,3.979-8.629,6.732c-0.693,0.837-1.42,1.756-1.473,2.841c-0.08,1.647,1.376,2.91,2.695,3.899
			c-0.491,0.507-0.529,1.851-0.182,2.466c0.347,0.615,1.119,0.956,1.808,0.799c-0.503,0.558-0.588,2.088-0.344,2.798
			c0.243,0.71,0.891,1.266,1.631,1.398c1.917,4.008,3.623,8.525,6.611,11.813c2.988,3.288,7.209,5.74,11.648,5.555
			c-2.136-5.026-2.583-10.353-2.102-15.793c0.208-2.348,0.726-4.802,2.307-6.55c1.91-2.114,5.044-2.759,7.863-2.349
			C449.677,82.836,453.597,83.454,455.37,85.685z"/>
		<path style="fill:#FFFFFF;" d="M424.816,416.79c0.181,4.177-0.797,8.398-2.797,12.07c-4.888-0.321-9.923-0.143-14.795-0.652
			c-0.028-5.353,0.343-11.069,0.315-16.423C413.096,411.617,420.729,413.021,424.816,416.79z"/>
		<path style="fill:#FFFFFF;" d="M468.32,417.157c-1.752,5.502-3.046,11.15-3.864,16.867c-4.98-0.326-9.994-1.74-14.792-3.114
			c1.493-5.846,1.764-12.102,1.054-18.094C457.304,413.401,462.284,414.458,468.32,417.157z"/>
		<path style="fill:#47311E;" d="M475.209,233.082c1.712,62.407-2.529,124.872-4.497,187.253c-7.948,3.43-17.404,2.479-24.756-2.661
			c1.606-54.656-5.45-110.534-9.738-165.059c2.072-3.687,5.227-7.309,8.857-9.481c4.78-2.861,10.368-3.999,15.85-4.989
			C465.743,237.274,470.363,233.797,475.209,233.082z"/>
		<path style="opacity:0.2;" d="M475.209,233.082c1.712,62.407-2.529,124.872-4.497,187.253c-7.948,3.43-17.404,2.479-24.756-2.661
			c1.606-54.656-5.45-110.534-9.738-165.059c2.072-3.687,5.227-7.309,8.857-9.481c4.78-2.861,10.368-3.999,15.85-4.989
			C465.743,237.274,470.363,233.797,475.209,233.082z"/>
		<path style="fill:#47311E;" d="M463.659,242.293c-3.745,12.009-12.26,22.459-23.266,28.551
			c-5.903,48.791-12.745,100.255-12.742,149.403c-8.055,4.9-18.123,4.066-25.537-2.358c3.642-48.217,1.794-95.832,1.085-144.282
			c-0.208-14.19,1.781-28.019,7.433-41.036C429.199,230.664,446.958,233.958,463.659,242.293z"/>
		<path style="opacity:0.2;" d="M475.468,244.255c-21.522,12.165-47.023,17.163-71.547,14.009c1.009-8.815,3.117-17.419,6.71-25.694
			c15.905-1.633,31.214,0.562,45.776,6.461c1.501-0.327,3.012-0.614,4.516-0.886c3.242-0.586,6.393-2.348,9.582-3.658
			c1.643,0.795,3.248,1.664,4.796,2.617C475.364,239.488,475.412,241.871,475.468,244.255z"/>
		<path style="fill:#FFBD70;" d="M442.494,125.899c2.256-1.993,5.159-3.243,8.157-3.513c5.725-0.516,12.007-0.442,16.506,3.135
			c4.499,3.578,7.308,8.855,9.445,14.191c5.188,12.952,7.113,27.195,5.551,41.059c-2.407,21.363,10.57,44.163,10.798,65.66
			c-3.17,2.524-5.373,6.692-9.193,5.338c-8.282-18.818-16.344-40.203-20.533-60.331
			C458.539,168.915,452.512,146.609,442.494,125.899z"/>
		<path style="fill:#78C9DE;" d="M457.288,120.208c9.207,2.377,16.824,9.169,21.88,17.222c5.056,8.053,7.813,17.325,9.927,26.596
			c-2.611,6.911-9.13,12.296-16.518,12.234C462.331,159.327,456.454,139.982,457.288,120.208z"/>
		<path style="opacity:0.2;" d="M457.288,120.208c9.207,2.377,16.824,9.169,21.88,17.222c5.056,8.053,7.813,17.325,9.927,26.596
			c-2.611,6.911-9.13,12.296-16.518,12.234C462.331,159.327,456.454,139.982,457.288,120.208z"/>
		<path style="fill:#78C9DE;" d="M445.111,115.537c10.048,1.426,19.558,6.88,25.466,15.132c5.14,7.18,7.418,16.073,8.101,24.877
			c0.683,8.804-0.124,17.645-0.599,26.463c-1.029,19.108-0.498,38.3,1.585,57.322c-1.183,2.299-2.458,5.249-4.406,6.949
			c0,0-36.799,9.316-62.819-0.368c-4.017-1.495-6.763-5.213-6.926-9.496c-0.039-1.032-0.105-2.225-0.206-3.598
			c-1.208-16.415-0.179-32.755-3.611-48.852c-2.139-10.034-2.232-21.721-1.229-31.931c1.003-10.21,4.534-20.494,11.705-27.83
			C420.75,115.431,432.963,113.814,445.111,115.537z"/>
		<path style="fill:#FF8B29;" d="M417.264,167.003c4.284-5.992,7.185-14.59,7.81-22.343c0.173-2.14,2.023-3.725,4.164-3.571
			c11.47,0.826,22.984,1.033,34.476,0.622c1.93-0.069,3.657,1.264,3.972,3.169c1.459,8.843,5.699,17.621,11.083,24.839
			c-0.181,4.098-0.469,8.196-0.689,12.29c-1.029,19.108-0.498,38.3,1.585,57.322c-1.183,2.299-2.458,5.249-4.406,6.95
			c0,0-25.444,6.432-48.979,3.033c-5.738-1.106-11.651-2.447-16.099-6.196c-1.882-1.586-3.363-3.488-4.558-5.586
			c-0.054-0.368-0.095-0.738-0.109-1.116c-0.039-1.032-0.105-2.225-0.206-3.598c-1.208-16.415-0.179-32.755-3.611-48.852
			c-0.257-1.206-0.481-2.439-0.681-3.688C407.466,177.375,413.148,172.76,417.264,167.003z"/>
		
			<path style="opacity:0.3;fill:none;stroke:#FFFFFF;stroke-linecap:round;stroke-linejoin:round;stroke-miterlimit:10;stroke-dasharray:2;" d="
			M450.759,275.645c3.002,33.657,1.321,103.408-0.04,137.171"/>
		
			<path style="opacity:0.3;fill:none;stroke:#FFFFFF;stroke-linecap:round;stroke-linejoin:round;stroke-miterlimit:10;stroke-dasharray:2;" d="
			M412.748,271.42c1.339,34.454-3.945,105.908-5.209,140.365"/>
		<path style="fill:#FF8B29;" d="M479.482,236.479c-0.188,39.046-0.375,78.092-0.563,117.138
			c-26.385,6.176-54.811,5.789-80.622-2.465c-0.321-42.473-0.863-86.414,9.933-127.493
			C431.658,226.899,456.781,229.839,479.482,236.479z"/>
		<path style="opacity:0.2;" d="M445.97,282.617h1.57c10.831,0,19.611-8.78,19.611-19.61v-55.912H426.36v55.912
			C426.36,273.837,435.14,282.617,445.97,282.617z"/>
		<path style="opacity:0.2;" d="M429.091,115.582c5.132-0.91,10.581-0.816,16.02-0.044c3.576,0.507,7.079,1.534,10.38,3.006
			c0.272,1.253,0.459,2.519,0.424,3.797c-0.058,2.086-0.786,4.247-2.389,5.584c-2.032,1.695-4.979,1.725-7.577,1.22
			C438.583,127.715,432.125,122.42,429.091,115.582z"/>
		<path style="fill:#FFBD70;" d="M432.276,115.151c4.176-0.406,8.508-0.228,12.835,0.386c2.584,0.367,5.131,1.004,7.591,1.883
			c0.721,1.455,1.183,2.995,0.802,4.535c-0.53,2.143-2.647,3.633-4.832,3.948c-2.185,0.315-4.402-0.352-6.393-1.305
			C438.074,122.587,434.557,119.214,432.276,115.151z"/>
		<path style="fill:#FFBD70;" d="M452.273,105.34c-0.608,4.448-0.968,8.93-1.078,13.417c-0.839,1.319-1.867,2.76-3.414,2.983
			c-1.041,0.15-2.065-0.306-3.006-0.775c-3.409-1.699-6.656-3.724-9.682-6.036c-0.029-4.516-0.118-9.406,0.29-13.904
			C441.322,100.681,447.208,102.22,452.273,105.34z"/>
		<path style="opacity:0.2;" d="M451.309,115.805c-5.891-3.065-11.343-6.967-16.133-11.566c0.033-0.754,0.089-1.494,0.144-2.233
			c2.327-0.242,4.863-0.244,6.997,0.148c3.375,0.621,6.716,2.052,8.976,4.634c0.253,0.289,0.478,0.602,0.69,0.924
			C451.669,110.402,451.441,113.101,451.309,115.805z"/>
		<path style="fill:#FFBD70;" d="M460.547,77.981c2.399,11.012,1.196,22.778-3.382,33.076c-2.018,0.349-3.992,0.446-5.982-0.042
			c-7.164-1.756-15.191-4.092-19.839-9.818c-4.648-5.727-6.664-13.508-5.381-20.771c0.858-4.854,3.398-9.711,7.791-11.946
			c3.293-1.675,7.208-1.68,10.838-0.992C450.831,68.67,459.195,71.777,460.547,77.981z"/>
		<path style="fill:#5C3B1F;" d="M467.151,85.681c-7.331,1.033-15.052-1.071-20.846-5.68c-1.192,2.165-4.207,3.464-6.679,3.442
			c-0.172,3.206-0.472,6.719-1.341,9.81c-0.467,0.046-1-0.038-1.324-0.377c-1.318-1.378-1.812-3.097-3.072-4.528
			c-0.218-0.248-0.472-0.508-0.8-0.544c-0.383-0.041-0.742,0.26-0.875,0.622c-0.133,0.362-0.083,0.766,0.014,1.139
			c0.447,1.719,1.842,3.131,2.021,4.898c0.164,1.614-0.762,3.184-2.014,4.215c-1.252,1.032-2.799,1.623-4.316,2.197
			c-2.859-6.596-5.733-13.752-4.485-20.832c0.529-3.002,1.798-5.836,3.391-8.435c1.439-2.347,3.223-4.589,5.65-5.888
			c3.43-1.837,7.565-1.524,11.437-1.141c2.821,0.279,5.659,0.573,8.377,1.379c2.717,0.806,5.335,2.162,7.224,4.275
			C463.336,74.508,464.07,80.842,467.151,85.681z"/>
		<path style="fill:#5C3B1F;" d="M432.738,94.749c1.51,3.236,2.279,6.814,2.232,10.385c-1.295-0.633-2.75-1.221-3.9-2.089
			c-1.15-0.868-2.151-1.99-2.645-3.344c-0.493-1.354-0.421-2.958,0.403-4.14C429.652,94.379,431.399,94.216,432.738,94.749z"/>
		<g>
			<path style="fill:#FFBD70;" d="M433.802,96.811c-3.22-2.623-5.128-6.785-5.014-10.937c0.044-1.584,0.537-3.39,1.98-4.046
				c0.992-0.451,2.2-0.203,3.101,0.409c0.901,0.612,1.54,1.54,2.057,2.5c1.113,2.065,1.526,4.326,0.993,6.611
				C436.387,93.633,435.127,94.875,433.802,96.811z"/>
			<path style="opacity:0.2;" d="M435.342,86.91c-0.118-0.782-0.241-1.58-0.606-2.281c-0.365-0.701-1.024-1.3-1.811-1.377
				c-0.995-0.098-1.911,0.67-2.314,1.585c-0.403,0.915-0.406,1.949-0.402,2.949c0.336-0.94,1.241-2.117,2.111-2.608
				c0.446-0.252,1.032-0.41,1.448-0.111c-0.262,0.333-0.561,0.979-0.662,1.391c-0.102,0.412,0.012,0.908,0.376,1.126
				c-0.622,0.151-1.094,0.776-1.069,1.416c0.025,0.64,0.545,1.226,1.177,1.328c0.015,0.96-0.21,2.135-0.926,2.775
				c1.352-0.06,2.708-0.951,3.183-2.218S435.543,88.249,435.342,86.91z"/>
		</g>
		<path style="opacity:0.2;" d="M404.28,207.022c-0.335-7.728-0.956-15.42-2.584-23.057c-1.131-5.303-1.677-11.068-1.804-16.833
			c2.572-7.924,7.297-15.046,14.431-19.02c0.096,14.734-2.581,29.481-7.848,43.242c-2.457,6.419,0.516,14.987,1.154,21.83
			C406.445,211.162,405.321,209.108,404.28,207.022z"/>
		<path style="fill:#3B3B3B;" d="M388.183,237.229l22.809,21.069c2.258,2.086,5.779,1.946,7.865-0.312l37.57-40.672
			c2.086-2.258,1.946-5.779-0.312-7.865l-22.809-21.069c-2.258-2.086-5.779-1.946-7.865,0.312l-37.57,40.672
			C385.785,231.622,385.925,235.143,388.183,237.229z"/>
		<path style="fill:#FFBD70;" d="M415.266,122.163c-11.523,6.538-20.611,16.765-27.625,28.005
			c-7.014,11.241-12.112,23.548-17.177,35.791c-0.467,1.13-0.535,2.273-0.427,3.432c0.343,3.698,2.204,7.085,4.979,9.552
			c12.165,10.817,25.201,21.542,38.547,30.601c2.847-1.513,5.077-4.35,5.47-7.549c-8.621-11.071-19.258-21.832-30.214-30.599
			C404.946,171.633,412.064,147.47,415.266,122.163z"/>
		<path style="opacity:0.2;" d="M378.159,168.047c1.017,0.516,1.986,1.18,2.869,1.875c5.141,4.046,9.155,9.874,11.95,15.957
			c-0.829,1.172-1.687,2.33-2.573,3.475c-6.618-0.694-13.035-3.252-18.329-7.284C374.034,177.366,376.027,172.671,378.159,168.047z"
			/>
		<path style="fill:#78C9DE;" d="M397.436,184.604c-10.842-2.859-14.915-8.223-20.635-17.867c5.41-9.001,11.007-18.536,17.588-26.72
			c6.581-8.184,14.393-15.545,23.683-20.443C419.032,152.089,406.353,163.328,397.436,184.604z"/>
		<g>
			<path style="fill:#FFBD70;" d="M410.876,212.233l6,5.975c4.002,3.986,8.97,6.865,14.417,8.356v0
				c1.438,0.394,2.72,1.215,3.685,2.352c1.574,1.854,4.15,4.726,6.174,6.199c0,0-0.368,1.383-2.046,0.909l2.022,2.999
				c0.482,0.715,0.368,1.675-0.267,2.258l-0.56,0.514c-0.611,0.56-1.532,0.612-2.202,0.124l-0.512-0.372l0.327,1.165
				c0.168,0.598,0.004,1.24-0.429,1.685l-0.857,0.88c-0.604,0.621-1.573,0.703-2.273,0.194l-0.826-0.601l0.275,0.72
				c0.294,0.768,0.01,1.637-0.68,2.084l-1.1,0.713c-0.605,0.392-1.389,0.371-1.972-0.053l-0.484-0.352l0.039,0.393
				c0.073,0.747-0.341,1.456-1.026,1.761l0,0c-0.591,0.263-1.277,0.179-1.785-0.223c-1.879-1.487-6.559-5.585-10.759-12.435
				c-0.756-1.233-1.674-2.36-2.757-3.318l-10.409-12.252L410.876,212.233z"/>
			<path style="opacity:0.2;fill:#FFFFFF;" d="M438.819,233.086c0.801,0.782,1.603,1.496,2.333,2.028c0,0-0.077,0.284-0.317,0.551
				c-0.918-0.148-1.792-0.567-2.47-1.203C438.34,233.98,438.517,233.479,438.819,233.086z"/>
			<path style="opacity:0.2;fill:#FFFFFF;" d="M436.123,236.829c-0.92,0.88-1.795,1.771-2.683,2.645
				c-0.893,0.868-1.78,1.734-2.699,2.566c-0.906,0.846-1.841,1.66-2.78,2.478c-0.943,0.814-1.903,1.613-2.855,2.458
				c1.179-0.482,2.288-1.111,3.342-1.82c1.059-0.704,2.049-1.506,2.99-2.36c0.928-0.869,1.809-1.79,2.596-2.788
				C434.826,239.017,435.544,237.964,436.123,236.829z"/>
		</g>
		<path style="opacity:0.3;fill:#FFFFFF;" d="M415.33,220.46c-7.199-8.335-15.317-15.875-24.16-22.439
			C397.776,206.988,406.302,213.936,415.33,220.46z"/>
		<path style="opacity:0.3;fill:#FFFFFF;" d="M480.251,198.798c5.007,11.674,7.925,24.24,8.574,36.926
			C485.883,223.107,483.194,211.416,480.251,198.798z"/>
		
			<path style="opacity:0.2;fill:none;stroke:#000000;stroke-width:0.75;stroke-linecap:round;stroke-linejoin:round;stroke-miterlimit:10;" d="
			M456.927,91.711c-0.171,1.947,0.42,3.95,1.618,5.493c0.48,0.618,1.092,1.295,0.943,2.062c-0.112,0.579-0.656,0.996-1.228,1.137
			c-0.572,0.141-1.173,0.06-1.756-0.028"/>
		
			<path style="opacity:0.2;fill:none;stroke:#000000;stroke-width:0.75;stroke-linecap:round;stroke-linejoin:round;stroke-miterlimit:10;" d="
			M458.584,103.037c-2.407,0.565-5.044,0.068-7.08-1.335"/>
		<path style="fill:#5C3B1F;" d="M444.55,84.863c3.049-1.327,6.741-1.062,9.569,0.687c0.355,0.22-0.211,0.885-0.622,0.964
			c-0.41,0.079-0.825-0.099-1.199-0.285C448.401,84.292,443.669,86.409,444.55,84.863z"/>
		<path style="fill:#5C3B1F;" d="M465.23,84.863c-3.049-1.327-6.74-1.062-9.569,0.687c-0.355,0.22,0.211,0.885,0.622,0.964
			c0.41,0.079,0.825-0.099,1.199-0.285C461.379,84.292,466.112,86.409,465.23,84.863z"/>
		<g>
			<path style="fill:#363636;" d="M491.78,440.33c1.087-1.94,0.227-4.529-1.447-5.992c-1.675-1.463-3.951-2.019-6.158-2.292
				c-2.207-0.274-4.463-0.319-6.59-0.97c-2.831-0.867-5.222-2.739-7.773-4.241c-2.551-1.503-5.704-2.291-8.574-1.565
				c-1.75,2.145-4.886,3.037-7.503,2.135c-1.131-0.39-2.142-1.071-3.263-1.488c-1.121-0.416-3.095-0.814-3.738,0.195
				c-2.688,4.218-2.956,9.868-0.679,14.321C460.897,441.333,476.959,441.53,491.78,440.33z"/>
			<path style="fill:#DEDEDE;" d="M481.639,431.785c-0.938,2.988-1.523,6.086-1.732,9.211c4.013-0.135,7.987-0.352,11.874-0.666
				c1.087-1.94,0.227-4.529-1.447-5.992c-1.675-1.463-3.951-2.019-6.158-2.292C483.333,431.941,482.485,431.869,481.639,431.785z"/>
			<path style="fill:#DEDEDE;" d="M446.055,440.432c14.842,0.901,30.904,1.098,45.725-0.102c0.32-0.571,0.467-1.199,0.479-1.837
				c-15.747-0.26-31.495-0.52-47.243-0.78C445.268,438.652,445.611,439.565,446.055,440.432z"/>
			<g>
				<path style="fill:#B0B0B0;" d="M464.711,430.479c-0.045-0.002-0.091-0.01-0.136-0.024c-0.293-0.09-0.457-0.401-0.367-0.694
					c0.507-1.645,0.057-3.594-1.118-4.85c-0.209-0.224-0.198-0.575,0.026-0.784c0.225-0.209,0.575-0.197,0.784,0.026
					c1.461,1.561,1.999,3.891,1.369,5.935C465.192,430.336,464.958,430.492,464.711,430.479z"/>
			</g>
			<g>
				<path style="fill:#B0B0B0;" d="M468.186,431.255c-0.045-0.002-0.091-0.01-0.135-0.024c-0.293-0.09-0.457-0.401-0.367-0.694
					c0.507-1.645,0.057-3.594-1.119-4.85c-0.209-0.224-0.198-0.575,0.026-0.784c0.224-0.209,0.575-0.197,0.784,0.026
					c1.462,1.561,1.999,3.891,1.37,5.935C468.668,431.112,468.434,431.267,468.186,431.255z"/>
			</g>
			<g>
				<path style="fill:#B0B0B0;" d="M471.632,432.59c-0.046-0.002-0.091-0.01-0.136-0.024c-0.293-0.09-0.457-0.401-0.367-0.694
					c0.507-1.644,0.058-3.593-1.119-4.85c-0.209-0.224-0.198-0.575,0.026-0.784c0.224-0.209,0.575-0.198,0.784,0.026
					c1.462,1.562,1.999,3.892,1.369,5.936C472.114,432.447,471.88,432.603,471.632,432.59z"/>
			</g>
			<g>
				<path style="fill:#B0B0B0;" d="M474.79,434.852c-0.045-0.002-0.091-0.01-0.135-0.024c-0.293-0.09-0.457-0.401-0.367-0.694
					c0.507-1.644,0.057-3.594-1.118-4.85c-0.209-0.224-0.198-0.575,0.026-0.784c0.224-0.209,0.575-0.198,0.784,0.026
					c1.461,1.562,1.999,3.892,1.369,5.935C475.271,434.709,475.037,434.865,474.79,434.852z"/>
			</g>
			<g>
				<path style="fill:#B0B0B0;" d="M477.924,436.378c-0.045-0.002-0.091-0.01-0.136-0.024c-0.293-0.09-0.457-0.401-0.367-0.694
					c0.507-1.645,0.057-3.594-1.119-4.85c-0.209-0.224-0.198-0.575,0.026-0.784c0.224-0.209,0.575-0.198,0.784,0.026
					c1.461,1.561,1.999,3.891,1.369,5.935C478.405,436.235,478.171,436.391,477.924,436.378z"/>
			</g>
		</g>
		<g>
			<path style="fill:#363636;" d="M403.363,433.228c0.441-3.212,3.722-6.326,6.94-6.715c1.172-1.577,3.077-2.586,5.041-2.668
				c1.964-0.083,3.946,0.762,5.247,2.235c1.438,1.628,4.604,3.331,5.251,5.404c0.605,1.938-0.033,4.025-0.724,5.934
				c-0.433,1.196-0.894,2.432-1.087,3.68c-0.213,1.376-1.27,2.472-2.65,2.655c-7.048,0.93-14.516,0.46-21.25-1.596
				C399.615,438.627,400.625,435.514,403.363,433.228z"/>
			<path style="fill:#DEDEDE;" d="M400.409,437.649c-0.415,1.393-0.513,2.904-0.278,4.508c6.734,2.056,14.202,2.525,21.25,1.596
				c1.38-0.182,2.438-1.279,2.651-2.655c0.091-0.592,0.246-1.182,0.427-1.766C416.425,440.211,408.24,439.64,400.409,437.649z"/>
			<path style="fill:#DEDEDE;" d="M402.65,438.737c1.433-2.425,3.501-4.534,6.075-5.676c2.574-1.142,5.675-1.23,8.162,0.093
				c2.487,1.323,4.195,4.146,3.882,6.945c-2.745,0.773-6.054,1.054-8.905,1.064C409.013,441.173,404.617,440.801,402.65,438.737z"/>
			<g>
				<path style="fill:#B0B0B0;" d="M420.057,434.813c-0.209-0.006-0.395-0.149-0.45-0.36c-0.189-0.741-0.794-1.425-1.66-1.876
					c-0.842-0.436-1.839-0.632-2.72-0.804c-1.571-0.307-2.881-0.546-4.237-0.53c-1.534,0.014-2.88,0.38-3.895,1.061
					c-0.218,0.147-0.517,0.09-0.665-0.131c-0.148-0.22-0.089-0.518,0.131-0.665c1.171-0.785,2.699-1.208,4.421-1.224
					c1.439-0.011,2.803,0.231,4.43,0.549c0.944,0.185,2.014,0.394,2.978,0.894c1.108,0.577,1.89,1.485,2.147,2.489
					c0.065,0.257-0.09,0.518-0.346,0.583C420.145,434.81,420.101,434.815,420.057,434.813z"/>
			</g>
			<g>
				<path style="fill:#B0B0B0;" d="M419.934,431.871c-0.094-0.003-0.188-0.033-0.269-0.093c-2.827-2.077-6.553-2.827-9.964-2.007
					c-0.258,0.063-0.516-0.096-0.578-0.354c-0.061-0.258,0.096-0.516,0.354-0.578c3.684-0.887,7.703-0.076,10.755,2.166
					c0.213,0.157,0.259,0.457,0.103,0.67C420.238,431.808,420.086,431.875,419.934,431.871z"/>
			</g>
			<g>
				<path style="fill:#B0B0B0;" d="M419.401,429.775c-0.094-0.003-0.188-0.033-0.27-0.094c-1.303-0.96-2.911-1.478-4.527-1.467
					c-0.294,0.004-0.481-0.212-0.484-0.476c-0.002-0.264,0.211-0.48,0.476-0.484c1.82-0.008,3.634,0.572,5.104,1.655
					c0.213,0.156,0.258,0.457,0.101,0.67C419.705,429.712,419.553,429.78,419.401,429.775z"/>
			</g>
		</g>
		<path style="fill:#5C3B1F;" d="M450.443,89.204c0.459,0,0.841,0.606,0.964,1.431c-0.29,0.189-0.616,0.322-0.958,0.373
			c0.305,0.294,0.615,0.576,0.941,0.839c-0.139,0.769-0.508,1.324-0.947,1.324c-0.557,0-1.008-0.888-1.008-1.983
			C449.435,90.092,449.886,89.204,450.443,89.204z"/>
		<path style="fill:#5C3B1F;" d="M459.36,89.204c0.459,0,0.841,0.606,0.964,1.431c-0.29,0.189-0.616,0.322-0.958,0.373
			c0.305,0.294,0.615,0.576,0.941,0.839c-0.139,0.769-0.508,1.324-0.947,1.324c-0.557,0-1.008-0.888-1.008-1.983
			C458.352,90.092,458.803,89.204,459.36,89.204z"/>
		<path style="fill:#B3611D;" d="M429.775,143.3c1.136-6.159,1.222-12.51,0.251-18.697c-0.53-3.382-1.65-7.093-4.65-8.742
			c-1.803-0.991-4.103-1.012-5.924-0.056c-1.821,0.957-3.109,2.863-3.316,4.91c1.585-0.803,3.158-1.582,4.743-2.385
			c3.42-1.137,9.148,6.272,5.753,25.51C427.811,143.975,428.66,143.709,429.775,143.3z"/>
		<circle style="fill:#FFF821;" cx="429.091" cy="143.876" r="2.731"/>
		<path style="fill:#B3611D;" d="M456.974,118.331c-0.308,0.156-0.615,0.309-0.923,0.464c-0.867-0.402-1.752-0.762-2.647-1.1
			c0.563-0.78,1.291-1.441,2.143-1.889c1.821-0.957,4.121-0.935,5.924,0.056c3,1.648,4.12,5.36,4.65,8.742
			c0.97,6.187,0.885,12.538-0.251,18.697c-1.115,0.409-1.964,0.675-3.144,0.541C466.122,124.603,460.394,117.194,456.974,118.331z"
			/>
		<circle style="fill:#FFF821;" cx="464.42" cy="143.876" r="2.731"/>
		<path style="opacity:0.3;fill:#FFFFFF;" d="M468.792,174.169c0.634,12.235,1.267,24.469,1.901,36.704
			C473.521,199.119,472.741,185.595,468.792,174.169z"/>
		<path style="opacity:0.3;fill:#FFFFFF;" d="M401.484,160.761c4.244-7.316,6.658-15.685,6.962-24.137
			c1.378,4.106,1.474,8.645,0.317,12.819C407.606,153.617,404.779,157.95,401.484,160.761z"/>
		<ellipse style="fill:#FFB070;" cx="446.503" cy="96.785" rx="2.834" ry="1.735"/>
		<path style="fill:#FFB070;" d="M460.098,96.785c0,0.507,0.361,0.959,0.928,1.276c0.149-0.908,0.277-1.82,0.38-2.735
			C460.621,95.635,460.098,96.171,460.098,96.785z"/>
	</g>
	<g>
		<path style="fill:#5C3B1F;" d="M232.563,139.357c-7.346-0.946-14.054-5.883-17.142-12.616c-3.088-6.733-2.453-15.037,1.623-21.222
			c2.383-3.616,5.825-6.516,7.74-10.4c2.035-4.128,2.124-8.901,2.975-13.424c1.484-7.89,5.771-15.621,12.833-19.439
			s17.014-2.603,21.682,3.928c5.317-0.154,10.373,6.075,10.749,11.38s-2.064,10.383-4.743,14.978
			c-2.679,4.595-5.72,9.148-6.755,14.366c-1.52,7.666,1.564,15.553,5.841,22.094c-1.871,6.016-8.54,11.193-14.687,12.576
			C246.532,142.961,238.813,140.162,232.563,139.357z"/>
		<path style="fill:#FFBD70;" d="M255.5,121.195c-1.837,11.772,0.284,23.89,4.28,35.115c3.996,11.225,9.814,21.697,15.605,32.109
			c0.534,0.961,1.302,1.647,2.178,2.22c2.796,1.826,6.222,2.409,9.511,1.834c14.42-2.52,29.262-5.706,43.105-10.041
			c0.526-2.851-0.225-6.008-2.259-8.074c-12.618-0.117-26.144,1.358-38.444,4.173C284.574,156.122,271.535,137.599,255.5,121.195z"
			/>
		<path style="fill:#FFFFFF;" d="M225.217,411.893c0.181,4.177,3.213,13.416,1.213,17.088c-4.888-0.322-9.923-0.143-14.795-0.652
			c-0.028-5.353,0.343-11.069,0.315-16.423C217.507,411.738,221.13,408.125,225.217,411.893z"/>
		<path style="fill:#FFFFFF;" d="M269.94,414.487c-1.752,5.502-0.255,13.942-1.073,19.658c-4.98-0.326-9.994-1.74-14.791-3.114
			c1.493-5.845,1.764-12.102,1.054-18.094C261.715,413.522,263.904,411.788,269.94,414.487z"/>
		<path style="fill:#47311E;" d="M279.62,233.204c1.712,62.407-6.74,124.872-8.131,187.253c-5.615,3.43-12.296,2.479-17.489-2.661
			c1.134-54.656-9.083-110.534-13.372-165.059c2.072-3.687,5.227-7.309,8.857-9.481c4.78-2.861,10.368-3.999,15.85-4.989
			C270.154,237.395,274.774,233.918,279.62,233.204z"/>
		<path style="opacity:0.2;" d="M279.62,233.204c1.712,62.407-6.74,124.872-8.131,187.253c-5.615,3.43-12.296,2.479-17.489-2.661
			c1.134-54.656-9.083-110.534-13.372-165.059c2.072-3.687,5.227-7.309,8.857-9.481c4.78-2.861,10.368-3.999,15.85-4.989
			C270.154,237.395,274.774,233.918,279.62,233.204z"/>
		<path style="fill:#47311E;" d="M268.07,242.414c-3.745,12.009-12.26,22.459-23.266,28.551
			c-5.903,48.791-15.802,100.255-15.8,149.403c-6.126,4.9-13.783,4.066-19.421-2.358c2.769-48.217-1.263-95.832-1.973-144.282
			c-0.208-14.19,1.781-28.019,7.433-41.036C233.61,230.785,251.369,234.079,268.07,242.414z"/>
		<path style="opacity:0.2;" d="M279.879,244.376c-21.522,12.165-47.023,17.163-71.547,14.009c1.009-8.815,3.117-17.419,6.71-25.694
			c15.905-1.633,31.214,0.562,45.776,6.461c1.501-0.327,3.012-0.614,4.516-0.886c3.241-0.586,6.392-2.348,9.582-3.658
			c1.643,0.795,3.248,1.664,4.796,2.617C279.775,239.609,279.823,241.992,279.879,244.376z"/>
		<path style="fill:#C191FF;" d="M256.063,121.152c8.279,2.137,15.129,8.246,19.676,15.487c4.546,7.242,7.026,15.58,8.927,23.916
			c-2.348,6.215-8.21,11.057-14.854,11.001C260.598,156.33,255.312,138.934,256.063,121.152z"/>
		<path style="opacity:0.2;" d="M256.063,121.152c8.279,2.137,15.129,8.246,19.676,15.487c4.546,7.242,7.026,15.58,8.927,23.916
			c-2.348,6.215-8.21,11.057-14.854,11.001C260.598,156.33,255.312,138.934,256.063,121.152z"/>
		<path style="fill:#C191FF;" d="M249.523,115.659c23.681,2.793,32.884,24.351,33.566,33.155
			c0.683,8.804-10.48,23.138-10.954,31.956c-1.029,19.108,9.858,39.66,11.941,58.682c-1.183,2.299-2.458,5.249-4.406,6.95
			c0,0-36.799,9.316-62.819-0.368c-4.018-1.495-6.763-5.213-6.927-9.496c-0.039-1.032-0.105-2.225-0.206-3.598
			c-1.208-16.415-0.179-32.755-3.611-48.852c-2.139-10.034-2.232-21.721-1.229-31.931c1.003-10.21,4.534-20.493,11.705-27.83
			C225.162,115.552,237.337,114.221,249.523,115.659z"/>
		<path style="fill:#FF8B29;" d="M221.675,167.124c4.284-5.992,7.185-14.59,7.81-22.343c0.173-2.14,2.023-3.725,4.164-3.571
			c11.47,0.826,22.984,1.033,34.476,0.622c1.93-0.069,3.657,1.264,3.972,3.169c1.459,8.843,1.255,20.187,6.638,27.405
			c-0.181,4.098-0.951,6.24-1.172,10.334c-1.029,19.108,4.429,37.69,6.513,56.712c-1.183,2.299-2.458,5.249-4.406,6.95
			c0,0-25.444,6.432-48.979,3.033c-5.738-1.106-11.651-2.447-16.099-6.196c-1.882-1.586-3.363-3.488-4.558-5.586
			c-0.053-0.367-0.095-0.738-0.109-1.116c-0.039-1.032-0.105-2.225-0.206-3.598c-1.208-16.415-0.179-32.755-3.611-48.852
			c-0.257-1.206-0.481-2.439-0.681-3.688C211.877,177.496,217.559,172.881,221.675,167.124z"/>
		
			<path style="opacity:0.3;fill:none;stroke:#FFFFFF;stroke-linecap:round;stroke-linejoin:round;stroke-miterlimit:10;stroke-dasharray:2;" d="
			M255.17,275.766c3.002,33.657,1.321,103.408-0.04,137.171"/>
		
			<path style="opacity:0.3;fill:none;stroke:#FFFFFF;stroke-linecap:round;stroke-linejoin:round;stroke-miterlimit:10;stroke-dasharray:2;" d="
			M217.159,271.541c1.34,34.454-3.945,105.908-5.209,140.365"/>
		<path style="fill:#FF8B29;" d="M283.893,236.6c-0.188,39.046-0.375,78.092-0.563,117.137c-26.385,6.176-54.811,5.789-80.622-2.465
			c-0.321-42.473-0.863-86.414,9.933-127.493C236.07,227.02,261.192,229.96,283.893,236.6z"/>
		<path style="opacity:0.2;" d="M250.381,282.739h1.57c10.83,0,19.61-8.78,19.61-19.61v-55.912h-40.791v55.912
			C230.771,273.959,239.551,282.739,250.381,282.739z"/>
		<path style="opacity:0.2;" d="M233.502,115.703c5.133-0.91,10.582-0.816,16.02-0.044c3.576,0.507,7.079,1.534,10.38,3.006
			c0.272,1.253,0.459,2.519,0.424,3.797c-0.058,2.086-0.786,4.247-2.388,5.584c-2.032,1.695-4.98,1.725-7.577,1.22
			C242.994,127.836,236.537,122.541,233.502,115.703z"/>
		<path style="fill:#FFBD70;" d="M236.687,115.272c4.176-0.406,8.508-0.228,12.835,0.386c2.584,0.367,5.131,1.004,7.591,1.883
			c0.721,1.455,1.183,2.994,0.802,4.535c-0.53,2.143-2.647,3.633-4.832,3.948c-2.185,0.316-4.402-0.352-6.393-1.304
			C242.485,122.708,238.968,119.335,236.687,115.272z"/>
		<path style="fill:#FFBD70;" d="M256.684,105.461c-0.608,4.448-0.968,8.93-1.078,13.417c-0.839,1.319-1.867,2.76-3.414,2.983
			c-1.041,0.15-2.065-0.306-3.006-0.775c-3.409-1.699-6.656-3.724-9.682-6.037c-0.029-4.516-0.118-9.406,0.29-13.904
			C245.733,100.802,251.619,102.342,256.684,105.461z"/>
		<path style="opacity:0.2;" d="M255.72,115.926c-5.891-3.065-11.343-6.967-16.133-11.566c0.033-0.754,0.089-1.494,0.144-2.233
			c2.327-0.242,4.863-0.244,6.997,0.148c3.375,0.62,6.716,2.052,8.976,4.634c0.253,0.289,0.478,0.602,0.69,0.924
			C256.08,110.523,255.852,113.222,255.72,115.926z"/>
		<path style="fill:#FFBD70;" d="M264.958,78.103c2.399,11.012,1.196,22.778-3.382,33.076c-2.018,0.349-3.992,0.446-5.982-0.042
			c-7.164-1.756-15.191-4.092-19.839-9.818c-4.648-5.727,9.618-34.397,13.248-33.709C255.242,68.791,263.606,71.898,264.958,78.103z
			"/>
		<g>
			<path style="fill:#FF8B29;" d="M251.078,91.504h-6.976c-0.207,0-0.375-0.168-0.375-0.375s0.168-0.375,0.375-0.375h6.976
				c0.207,0,0.375,0.168,0.375,0.375S251.285,91.504,251.078,91.504z"/>
		</g>
		<path style="fill:#FFB070;" d="M264.509,96.906c0,0.507,0.361,0.959,0.928,1.276c0.149-0.908,0.277-1.82,0.38-2.735
			C265.033,95.756,264.509,96.292,264.509,96.906z"/>
		<g>
			<path style="fill:#FF8B29;" d="M265.164,97.307c-2.293,0-4.158-2.771-4.158-6.178c0-3.406,1.865-6.178,4.158-6.178
				c2.292,0,4.157,2.771,4.157,6.178C269.321,94.536,267.456,97.307,265.164,97.307z M265.164,85.702
				c-1.879,0-3.408,2.435-3.408,5.428s1.529,5.428,3.408,5.428c1.879,0,3.407-2.435,3.407-5.428S267.043,85.702,265.164,85.702z"/>
		</g>
		<path style="fill:#5C3B1F;" d="M237.149,94.871c1.51,3.236,2.279,6.814,2.232,10.385c-1.295-0.633-2.75-1.221-3.9-2.089
			c-1.15-0.868-2.151-1.99-2.645-3.344c-0.493-1.354-0.421-2.957,0.403-4.14C234.063,94.5,235.811,94.337,237.149,94.871z"/>
		<g>
			<path style="fill:#FFBD70;" d="M238.213,96.932c-3.22-2.623-5.128-6.784-5.014-10.937c0.044-1.584,0.537-3.39,1.98-4.046
				c0.992-0.451,2.2-0.203,3.101,0.409c0.901,0.612,1.54,1.54,2.058,2.5c1.113,2.065,1.526,4.326,0.993,6.611
				C240.798,93.754,239.538,94.996,238.213,96.932z"/>
			<path style="opacity:0.2;" d="M239.753,87.031c-0.118-0.782-0.241-1.58-0.606-2.281c-0.365-0.701-1.024-1.3-1.811-1.377
				c-0.995-0.098-1.911,0.67-2.314,1.585c-0.403,0.915-0.406,1.949-0.402,2.949c0.336-0.94,1.241-2.117,2.111-2.608
				c0.446-0.252,1.032-0.41,1.448-0.111c-0.262,0.333-0.561,0.98-0.662,1.391c-0.102,0.412,0.012,0.908,0.376,1.126
				c-0.622,0.151-1.094,0.776-1.069,1.416c0.025,0.64,0.545,1.226,1.177,1.328c0.015,0.96-0.21,2.135-0.926,2.775
				c1.352-0.06,2.708-0.951,3.182-2.218C240.732,89.737,239.955,88.37,239.753,87.031z"/>
		</g>
		<path style="opacity:0.2;" d="M208.691,207.144c-0.335-7.728-0.956-15.42-2.584-23.057c-1.131-5.303-1.677-11.068-1.805-16.833
			c2.572-7.924,7.297-15.046,14.431-19.02c0.096,14.734-2.581,29.481-7.848,43.242c-2.457,6.419,0.516,14.987,1.154,21.83
			C210.856,211.283,209.732,209.229,208.691,207.144z"/>
		<path style="fill:#FFBD70;" d="M219.677,122.285c-11.524,6.538-20.611,16.765-27.625,28.005
			c-7.014,11.241-12.112,23.548-17.177,35.791c-0.467,1.13-0.535,2.273-0.427,3.432c0.343,3.698,2.204,7.084,4.979,9.552
			c12.165,10.817,25.201,21.542,38.547,30.601c2.847-1.513,5.077-4.35,5.47-7.55c-8.621-11.071-19.258-21.832-30.214-30.599
			C209.357,171.755,216.475,147.591,219.677,122.285z"/>
		<path style="fill:#C191FF;" d="M201.847,184.725c-10.842-2.859-14.915-8.223-20.636-17.867c5.41-9.001,11.007-18.536,17.588-26.72
			c6.581-8.184,14.393-15.545,23.683-20.442C223.443,152.21,210.764,163.449,201.847,184.725z"/>
		<g>
			<path style="fill:#FFBD70;" d="M214.305,213.506l5.103,5.082c3.404,3.389,7.629,5.838,12.262,7.106v0
				c1.223,0.335,2.313,1.033,3.134,2c1.339,1.577,3.53,4.019,5.251,5.272c0,0-0.313,1.176-1.741,0.773l1.72,2.551
				c0.41,0.608,0.313,1.424-0.227,1.92l-0.477,0.437c-0.52,0.476-1.303,0.52-1.872,0.106l-0.435-0.317l0.278,0.991
				c0.143,0.508,0.004,1.054-0.365,1.433l-0.729,0.749c-0.514,0.528-1.338,0.598-1.933,0.165l-0.703-0.511l0.234,0.612
				c0.25,0.653,0.009,1.392-0.578,1.772l-0.936,0.606c-0.515,0.333-1.181,0.315-1.677-0.046l-0.411-0.299l0.033,0.334
				c0.062,0.635-0.29,1.239-0.873,1.498l0,0c-0.503,0.223-1.086,0.152-1.518-0.19c-1.598-1.265-5.578-4.75-9.151-10.576
				c-0.643-1.049-1.423-2.007-2.344-2.822l-8.853-10.42L214.305,213.506z"/>
			<path style="opacity:0.2;fill:#FFFFFF;" d="M238.07,231.241c0.681,0.665,1.363,1.273,1.984,1.725c0,0-0.066,0.242-0.27,0.468
				c-0.78-0.126-1.524-0.482-2.101-1.023C237.662,232.001,237.813,231.575,238.07,231.241z"/>
			<path style="opacity:0.2;fill:#FFFFFF;" d="M235.776,234.424c-0.782,0.749-1.527,1.507-2.282,2.249
				c-0.759,0.738-1.514,1.475-2.295,2.183c-0.77,0.72-1.566,1.412-2.364,2.107c-0.802,0.692-1.618,1.372-2.428,2.091
				c1.003-0.41,1.946-0.945,2.842-1.548c0.9-0.598,1.743-1.28,2.543-2.007c0.789-0.739,1.538-1.522,2.208-2.371
				C234.673,236.285,235.284,235.39,235.776,234.424z"/>
		</g>
		<path style="opacity:0.3;fill:#FFFFFF;" d="M219.741,220.582c-7.199-8.335-15.317-15.875-24.16-22.44
			C202.187,207.11,210.713,214.057,219.741,220.582z"/>
		
			<path style="opacity:0.2;fill:none;stroke:#000000;stroke-width:0.75;stroke-linecap:round;stroke-linejoin:round;stroke-miterlimit:10;" d="
			M262.995,103.159c-2.407,0.565-5.044,0.068-7.08-1.335"/>
		<path style="fill:#5C3B1F;" d="M248.962,84.984c3.049-1.327,6.741-1.062,9.569,0.687c0.355,0.22-0.211,0.885-0.622,0.964
			c-0.411,0.079-0.825-0.099-1.199-0.285C252.812,84.413,248.08,86.53,248.962,84.984z"/>
		<path style="fill:#5C3B1F;" d="M269.641,84.984c-3.049-1.327-6.741-1.062-9.569,0.687c-0.355,0.22,0.211,0.885,0.622,0.964
			c0.41,0.079,0.825-0.099,1.199-0.285C265.791,84.413,270.523,86.53,269.641,84.984z"/>
		<path style="fill:#5C3B1F;" d="M268.94,88.156c-2.779-1.486-5.154-3.717-6.811-6.397c-15.334,10.073-23.763,10.741-28.012,17.716
			c-2.168-2.286-3.626-5.679-3.566-8.829c0.06-3.15,0.969-6.218,1.977-9.203c1.229-3.639,2.643-7.276,4.93-10.362
			c2.287-3.086,5.561-5.601,9.347-6.251c3.564-0.611,7.227,0.468,10.45,2.106c3.94,2.002,7.491,4.911,9.794,8.682
			C269.354,79.388,270.051,83.879,268.94,88.156z"/>
		<path style="fill:#5C3B1F;" d="M258.55,77.919c-5.851,1.964-10.729,6.639-12.939,12.401c-1.413,3.683-1.77,7.71-3.242,11.37
			c-1.472,3.66-4.587,7.132-8.531,7.188c-2.954-7.803-2.393-17.167,3.112-23.437C242.453,79.171,250.43,76.001,258.55,77.919z"/>
		<g>
			<path style="fill:#363636;" d="M296.191,440.451c1.087-1.94,0.227-4.529-1.447-5.992c-1.675-1.463-3.951-2.019-6.158-2.292
				c-2.207-0.274-4.463-0.319-6.59-0.97c-2.831-0.867-5.222-2.739-7.773-4.242c-2.551-1.503-5.704-2.291-8.574-1.565
				c-1.75,2.145-4.886,3.037-7.503,2.135c-1.131-0.39-2.142-1.071-3.263-1.487c-1.121-0.417-3.095-0.814-3.738,0.195
				c-2.688,4.218-2.956,9.868-0.679,14.321C265.308,441.454,281.37,441.651,296.191,440.451z"/>
			<path style="fill:#DEDEDE;" d="M286.05,431.906c-0.938,2.988-1.523,6.086-1.732,9.211c4.013-0.135,7.987-0.351,11.874-0.666
				c1.087-1.94,0.227-4.529-1.447-5.992c-1.675-1.463-3.951-2.019-6.158-2.292C287.744,432.062,286.896,431.991,286.05,431.906z"/>
			<path style="fill:#DEDEDE;" d="M250.466,440.553c14.842,0.901,30.904,1.098,45.725-0.102c0.32-0.571,0.467-1.199,0.479-1.837
				c-15.748-0.26-31.495-0.52-47.243-0.779C249.679,438.773,250.023,439.686,250.466,440.553z"/>
			<g>
				<path style="fill:#B0B0B0;" d="M269.122,430.601c-0.045-0.002-0.091-0.01-0.135-0.024c-0.293-0.09-0.457-0.401-0.367-0.694
					c0.507-1.645,0.057-3.594-1.118-4.85c-0.209-0.224-0.198-0.575,0.026-0.784c0.224-0.209,0.575-0.198,0.784,0.026
					c1.461,1.561,1.999,3.891,1.369,5.935C269.603,430.458,269.369,430.613,269.122,430.601z"/>
			</g>
			<g>
				<path style="fill:#B0B0B0;" d="M272.597,431.376c-0.045-0.002-0.091-0.01-0.135-0.024c-0.293-0.09-0.457-0.401-0.367-0.694
					c0.507-1.645,0.057-3.594-1.119-4.85c-0.209-0.224-0.198-0.575,0.026-0.784c0.224-0.209,0.575-0.198,0.784,0.026
					c1.462,1.561,1.999,3.891,1.37,5.935C273.079,431.233,272.845,431.388,272.597,431.376z"/>
			</g>
			<g>
				<path style="fill:#B0B0B0;" d="M276.043,432.711c-0.045-0.002-0.091-0.01-0.136-0.024c-0.293-0.09-0.457-0.401-0.367-0.694
					c0.507-1.644,0.058-3.593-1.119-4.85c-0.209-0.224-0.198-0.575,0.026-0.784c0.224-0.209,0.575-0.198,0.784,0.026
					c1.462,1.562,1.999,3.892,1.369,5.936C276.525,432.568,276.291,432.724,276.043,432.711z"/>
			</g>
			<g>
				<path style="fill:#B0B0B0;" d="M279.201,434.973c-0.045-0.002-0.091-0.01-0.135-0.024c-0.293-0.09-0.457-0.401-0.367-0.694
					c0.506-1.644,0.057-3.594-1.119-4.85c-0.209-0.224-0.198-0.575,0.026-0.784c0.224-0.209,0.575-0.198,0.784,0.026
					c1.461,1.562,1.999,3.892,1.369,5.935C279.682,434.83,279.448,434.986,279.201,434.973z"/>
			</g>
			<g>
				<path style="fill:#B0B0B0;" d="M282.335,436.499c-0.045-0.002-0.091-0.01-0.136-0.024c-0.293-0.09-0.457-0.401-0.367-0.694
					c0.507-1.645,0.057-3.594-1.118-4.85c-0.21-0.224-0.198-0.575,0.026-0.784c0.224-0.209,0.575-0.198,0.784,0.026
					c1.461,1.561,1.999,3.891,1.369,5.935C282.816,436.356,282.582,436.512,282.335,436.499z"/>
			</g>
		</g>
		<g>
			<path style="fill:#363636;" d="M207.774,433.349c0.441-3.212,3.722-6.326,6.94-6.715c1.172-1.577,3.077-2.586,5.041-2.668
				c1.963-0.083,3.946,0.762,5.247,2.235c1.438,1.628,4.604,3.331,5.251,5.405c0.605,1.938-0.033,4.025-0.724,5.934
				c-0.433,1.196-0.894,2.432-1.087,3.68c-0.213,1.376-1.27,2.473-2.651,2.655c-7.048,0.93-14.516,0.461-21.25-1.596
				C204.026,438.748,205.036,435.635,207.774,433.349z"/>
			<path style="fill:#DEDEDE;" d="M204.82,437.77c-0.415,1.393-0.513,2.904-0.279,4.508c6.734,2.056,14.202,2.525,21.25,1.596
				c1.38-0.182,2.438-1.279,2.651-2.655c0.092-0.592,0.246-1.182,0.427-1.766C220.836,440.332,212.651,439.761,204.82,437.77z"/>
			<path style="fill:#DEDEDE;" d="M207.061,438.858c1.433-2.425,3.501-4.534,6.075-5.676c2.574-1.142,5.675-1.23,8.162,0.093
				c2.486,1.323,4.195,4.146,3.882,6.945c-2.744,0.773-6.054,1.054-8.905,1.064C213.424,441.294,209.029,440.922,207.061,438.858z"
				/>
			<g>
				<path style="fill:#B0B0B0;" d="M224.468,434.935c-0.209-0.007-0.395-0.149-0.45-0.36c-0.189-0.741-0.794-1.425-1.66-1.876
					c-0.842-0.436-1.84-0.632-2.72-0.804c-1.571-0.307-2.881-0.546-4.237-0.53c-1.533,0.014-2.88,0.38-3.895,1.061
					c-0.218,0.147-0.517,0.09-0.665-0.131c-0.148-0.22-0.089-0.518,0.131-0.665c1.171-0.785,2.699-1.208,4.421-1.224
					c1.439-0.011,2.803,0.231,4.43,0.549c0.944,0.185,2.013,0.394,2.978,0.893c1.108,0.577,1.89,1.485,2.146,2.489
					c0.065,0.257-0.09,0.518-0.346,0.583C224.556,434.932,224.512,434.936,224.468,434.935z"/>
			</g>
			<g>
				<path style="fill:#B0B0B0;" d="M224.345,431.992c-0.094-0.003-0.188-0.033-0.269-0.093c-2.827-2.077-6.553-2.827-9.964-2.007
					c-0.258,0.063-0.516-0.096-0.578-0.354c-0.061-0.258,0.096-0.516,0.354-0.578c3.683-0.887,7.703-0.076,10.755,2.167
					c0.213,0.157,0.259,0.457,0.103,0.67C224.649,431.929,224.497,431.996,224.345,431.992z"/>
			</g>
			<g>
				<path style="fill:#B0B0B0;" d="M223.812,429.896c-0.094-0.003-0.188-0.033-0.27-0.094c-1.303-0.96-2.911-1.478-4.527-1.467
					c-0.294,0.004-0.48-0.211-0.484-0.476c-0.002-0.264,0.21-0.48,0.476-0.484c1.82-0.008,3.634,0.572,5.104,1.655
					c0.213,0.156,0.259,0.457,0.101,0.67C224.116,429.834,223.964,429.901,223.812,429.896z"/>
			</g>
		</g>
		<path style="fill:#5C3B1F;" d="M254.854,89.325c0.459,0,0.842,0.606,0.964,1.431c-0.29,0.189-0.616,0.322-0.958,0.373
			c0.305,0.294,0.615,0.576,0.941,0.839c-0.139,0.769-0.508,1.324-0.947,1.324c-0.557,0-1.008-0.888-1.008-1.983
			S254.297,89.325,254.854,89.325z"/>
		<path style="fill:#5C3B1F;" d="M263.771,89.325c0.459,0,0.841,0.606,0.964,1.431c-0.29,0.189-0.616,0.322-0.958,0.373
			c0.305,0.294,0.615,0.576,0.941,0.839c-0.139,0.769-0.508,1.324-0.947,1.324c-0.557,0-1.008-0.888-1.008-1.983
			S263.214,89.325,263.771,89.325z"/>
		<path style="fill:#B3611D;" d="M234.186,143.421c1.136-6.159,1.222-12.51,0.251-18.697c-0.53-3.382-1.65-7.093-4.65-8.742
			c-1.803-0.991-4.103-1.012-5.924-0.056c-1.821,0.957-3.109,2.863-3.316,4.91c1.585-0.803,3.158-1.582,4.743-2.385
			c3.42-1.137,9.148,6.272,5.753,25.51C232.222,144.096,233.071,143.83,234.186,143.421z"/>
		<circle style="fill:#FFF821;" cx="233.502" cy="143.997" r="2.731"/>
		<path style="fill:#B3611D;" d="M261.385,118.452c-0.308,0.156-0.615,0.309-0.923,0.464c-0.867-0.402-1.752-0.763-2.647-1.1
			c0.563-0.78,1.291-1.441,2.143-1.889c1.821-0.957,4.121-0.935,5.924,0.056c3,1.648,4.12,5.36,4.65,8.742
			c0.97,6.187,0.885,12.538-0.251,18.697c-1.115,0.409-1.964,0.674-3.144,0.541C270.533,124.725,264.805,117.315,261.385,118.452z"
			/>
		<circle style="fill:#FFF821;" cx="268.831" cy="143.997" r="2.731"/>
		<path style="opacity:0.3;fill:#FFFFFF;" d="M205.895,160.882c4.244-7.316,6.658-15.685,6.962-24.137
			c1.378,4.106,1.474,8.645,0.317,12.819C212.018,153.738,209.19,158.071,205.895,160.882z"/>
		<path style="fill:#FFB070;" d="M253.748,96.906c0,0.958-1.269,1.735-2.834,1.735c-1.565,0-2.834-0.777-2.834-1.735
			c0-0.958,1.269-1.735,2.834-1.735C252.48,95.171,253.748,95.948,253.748,96.906z"/>
		<path style="fill:#FFBD70;" d="M325.393,175.459c3.357-3.411,8.107-5.409,12.893-5.42c0.48,0.42,0.809,1.535,0.525,2.106
			c-0.284,0.571-0.976,0.907-1.6,0.777c3.139-1.221,6.643-1.353,9.958-1.951c0.476,3.221,0.155,7.097-2.405,9.109
			c-5.39,4.237-12.944,4.231-19.703,3.083C324.628,180.691,325.826,177.928,325.393,175.459z"/>
		<path style="opacity:0.2;" d="M228.25,175.591c6.055,3.54,14.351,2.712,19.586-1.956
			C241.941,175.519,234.438,175.713,228.25,175.591z"/>
		<path style="opacity:0.2;" d="M228.87,85.294c-0.229-1.065,0.008-2.194,0.489-3.186c0.49-0.994,1.243-1.86,2.147-2.51
			c0.903-0.651,1.965-1.088,3.064-1.236c1.094-0.139,2.241-0.003,3.176,0.557c-1.044,0.276-1.931,0.571-2.762,0.96
			c-0.829,0.379-1.592,0.829-2.312,1.343c-0.718,0.516-1.388,1.095-2.013,1.76C230.025,83.645,229.463,84.392,228.87,85.294z"/>
		<path style="opacity:0.2;" d="M248.858,74.776c-0.033-0.758,0.383-1.462,0.945-1.959c0.572-0.497,1.304-0.797,2.053-0.876
			c0.749-0.08,1.529,0.062,2.191,0.431c0.654,0.37,1.206,0.974,1.328,1.725c-0.731-0.161-1.28-0.219-1.811-0.228
			c-0.524-0.014-1.012,0.014-1.5,0.062c-0.488,0.051-0.972,0.125-1.482,0.247C250.063,74.295,249.538,74.466,248.858,74.776z"/>
		<path style="opacity:0.2;" d="M242.68,68.068c0.266-0.805,0.841-1.435,1.509-1.913c0.676-0.47,1.469-0.773,2.286-0.893
			c0.817-0.121,1.664-0.055,2.446,0.203c0.777,0.267,1.507,0.709,1.99,1.408c-0.84,0.062-1.533,0.086-2.209,0.149
			c-0.671,0.054-1.306,0.128-1.94,0.218c-0.634,0.091-1.264,0.201-1.923,0.34C244.172,67.712,243.501,67.888,242.68,68.068z"/>
		<path style="opacity:0.2;" d="M264.96,70.219c0.718,0.052,1.323,0.416,1.809,0.882c0.479,0.476,0.828,1.078,1.018,1.726
			c0.192,0.647,0.223,1.343,0.076,2.003c-0.156,0.655-0.471,1.288-1.05,1.718c-0.224-0.679-0.366-1.21-0.523-1.718l-0.422-1.441
			l-0.419-1.442L264.96,70.219z"/>
		<path style="opacity:0.2;" d="M234.142,89.227c-0.333,0.734-0.555,1.326-0.701,1.911c-0.151,0.576-0.232,1.118-0.253,1.646
			c-0.019,0.528,0.017,1.074,0.12,1.66c0.099,0.594,0.27,1.203,0.54,1.963c-0.811-0.113-1.499-0.643-1.973-1.315
			c-0.469-0.679-0.723-1.53-0.685-2.391c0.035-0.861,0.357-1.688,0.881-2.325C232.598,89.748,233.326,89.275,234.142,89.227z"/>
		<g>
			<path style="fill:#FF8B29;" d="M254.86,97.307c-2.292,0-4.157-2.771-4.157-6.178c0-3.406,1.865-6.178,4.157-6.178
				c2.292,0,4.157,2.771,4.157,6.178C259.017,94.536,257.152,97.307,254.86,97.307z M254.86,85.702
				c-1.879,0-3.407,2.435-3.407,5.428s1.528,5.428,3.407,5.428c1.879,0,3.407-2.435,3.407-5.428S256.739,85.702,254.86,85.702z"/>
		</g>
		
			<path style="opacity:0.2;fill:none;stroke:#000000;stroke-width:0.75;stroke-linecap:round;stroke-linejoin:round;stroke-miterlimit:10;" d="
			M261.338,91.832c-0.171,1.946,0.42,3.95,1.619,5.493c0.48,0.618,1.092,1.295,0.943,2.062c-0.112,0.579-0.656,0.996-1.228,1.137
			c-0.572,0.141-1.173,0.06-1.756-0.028"/>
		<g>
			<path style="fill:#FF8B29;" d="M261.38,91.504c-0.096,0-0.192-0.037-0.266-0.11c-1.014-1.014-2.102-0.095-2.221,0.013
				c-0.153,0.137-0.391,0.127-0.529-0.027c-0.139-0.153-0.128-0.389,0.024-0.528c0.588-0.534,2.023-1.219,3.257,0.012
				c0.146,0.146,0.146,0.384,0,0.53C261.573,91.468,261.476,91.504,261.38,91.504z"/>
		</g>
	</g>
	<g>
		<rect x="129.026" y="139.545" style="fill:#404040;" width="12.185" height="55.804"/>
		<rect x="61.568" y="384.777" style="fill:#34495E;" width="288.977" height="62.901"/>
		<g>
			<rect x="67.885" y="248.921" style="fill:#34495E;" width="276.342" height="13.998"/>
			<rect x="88.028" y="262.919" style="fill:#4A6987;" width="236.056" height="121.858"/>
			<g style="opacity:0.1;">
				<polygon style="fill:#FFFFFF;" points="173.744,384.777 248.586,262.919 186.134,262.919 111.291,384.777 				"/>
				<polygon style="fill:#FFFFFF;" points="299.249,262.919 260.376,262.919 185.533,384.777 224.406,384.777 				"/>
			</g>
			<polygon style="opacity:0.1;" points="324.084,262.919 88.028,262.919 324.084,323.848 			"/>
		</g>
		<g>
			<g>
				<path style="opacity:0.3;fill:#34495E;" d="M95.329,434.015L95.329,434.015c-1.92,0-3.476-1.556-3.476-3.476v-29.912
					c0-1.92,1.556-3.476,3.476-3.476l0,0c1.92,0,3.476,1.556,3.476,3.476v29.912C98.806,432.459,97.249,434.015,95.329,434.015z"/>
				<path style="opacity:0.3;fill:#34495E;" d="M110.642,434.015L110.642,434.015c-1.92,0-3.476-1.556-3.476-3.476v-29.912
					c0-1.92,1.556-3.476,3.476-3.476l0,0c1.92,0,3.476,1.556,3.476,3.476v29.912C114.118,432.459,112.562,434.015,110.642,434.015z"
					/>
				<path style="opacity:0.3;fill:#34495E;" d="M125.955,434.015L125.955,434.015c-1.92,0-3.476-1.556-3.476-3.476v-29.912
					c0-1.92,1.556-3.476,3.476-3.476l0,0c1.92,0,3.476,1.556,3.476,3.476v29.912C129.431,432.459,127.875,434.015,125.955,434.015z"
					/>
				<path style="opacity:0.3;fill:#34495E;" d="M141.268,434.015L141.268,434.015c-1.92,0-3.476-1.556-3.476-3.476v-29.912
					c0-1.92,1.556-3.476,3.476-3.476l0,0c1.92,0,3.476,1.556,3.476,3.476v29.912C144.744,432.459,143.187,434.015,141.268,434.015z"
					/>
				<path style="opacity:0.3;fill:#34495E;" d="M156.58,434.015L156.58,434.015c-1.92,0-3.476-1.556-3.476-3.476v-29.912
					c0-1.92,1.556-3.476,3.476-3.476l0,0c1.92,0,3.476,1.556,3.476,3.476v29.912C160.056,432.459,158.5,434.015,156.58,434.015z"/>
			</g>
			<g>
				<path style="opacity:0.3;fill:#34495E;" d="M257.402,434.015L257.402,434.015c-1.92,0-3.476-1.556-3.476-3.476v-29.912
					c0-1.92,1.556-3.476,3.476-3.476l0,0c1.92,0,3.476,1.556,3.476,3.476v29.912C260.878,432.459,259.322,434.015,257.402,434.015z"
					/>
				<path style="opacity:0.3;fill:#34495E;" d="M272.715,434.015L272.715,434.015c-1.92,0-3.476-1.556-3.476-3.476v-29.912
					c0-1.92,1.556-3.476,3.476-3.476l0,0c1.92,0,3.476,1.556,3.476,3.476v29.912C276.191,432.459,274.635,434.015,272.715,434.015z"
					/>
				<path style="opacity:0.3;fill:#34495E;" d="M288.027,434.015L288.027,434.015c-1.92,0-3.476-1.556-3.476-3.476v-29.912
					c0-1.92,1.556-3.476,3.476-3.476l0,0c1.92,0,3.476,1.556,3.476,3.476v29.912C291.503,432.459,289.947,434.015,288.027,434.015z"
					/>
				<path style="opacity:0.3;fill:#34495E;" d="M303.34,434.015L303.34,434.015c-1.92,0-3.476-1.556-3.476-3.476v-29.912
					c0-1.92,1.556-3.476,3.476-3.476h0c1.92,0,3.476,1.556,3.476,3.476v29.912C306.816,432.459,305.26,434.015,303.34,434.015z"/>
				<path style="opacity:0.3;fill:#34495E;" d="M318.653,434.015L318.653,434.015c-1.92,0-3.476-1.556-3.476-3.476v-29.912
					c0-1.92,1.556-3.476,3.476-3.476l0,0c1.92,0,3.476,1.556,3.476,3.476v29.912C322.129,432.459,320.572,434.015,318.653,434.015z"
					/>
			</g>
		</g>
		<rect x="98.2" y="195.35" style="fill:#FFE7BC;" width="147.678" height="53.571"/>
		<polygon style="fill:#FFE7BC;" points="224.727,174.942 168.296,174.942 158.902,195.35 234.121,195.35 		"/>
		<g style="opacity:0.4;">
			<polygon style="fill:#FFFFFF;" points="152.485,248.921 206.056,195.35 165.319,195.35 111.748,248.921 			"/>
			<polygon style="fill:#FFFFFF;" points="239.102,195.35 213.746,195.35 160.174,248.921 185.531,248.921 			"/>
		</g>
		<rect x="98.2" y="139.545" style="fill:#4A4A4A;" width="73.839" height="17.803"/>
		<rect x="102.959" y="144.305" style="fill:#6D8A41;" width="64.319" height="8.283"/>
	</g>
	<g>
		<path style="fill:#BA661E;" d="M606.539,75.177c0,0-8.016,1.606-2.327,8.62c4.729,5.831,17.757-5.088,17.757-5.088l-3.62-3.495
			l-6.181-0.02L606.539,75.177z"/>
		<path style="opacity:0.4;" d="M606.539,75.177c0,0-8.016,1.606-2.327,8.62c4.729,5.831,17.757-5.088,17.757-5.088l-3.62-3.495
			l-6.181-0.02L606.539,75.177z"/>
		<g>
			<path style="fill:#A17747;" d="M542.967,206.506l0.591-5.266c0.131-1.164,0.669-2.245,1.519-3.051l2.07-1.963
				c0,0,1.674,0.14,1.383,1.922l3.649-3.355c0,0,2.14,1.96-0.755,4.778l3.244-2.334c0,0,2.601,1.4-1.87,5.764
				c-4.471,4.364,0.117,10.001,0.117,10.001L542.967,206.506z"/>
			<path style="opacity:0.2;fill:#A17747;" d="M542.967,206.506l0.591-5.266c0.131-1.164,0.669-2.245,1.519-3.051l2.07-1.963
				c0,0,1.674,0.14,1.383,1.922l3.649-3.355c0,0,2.14,1.96-0.755,4.778l3.244-2.334c0,0,2.601,1.4-1.87,5.764
				c-4.471,4.364,0.117,10.001,0.117,10.001L542.967,206.506z"/>
			<path style="fill:#A17747;" d="M586.844,204.703l-14.148,2.481c-3.051,0.535-6.008,1.512-8.776,2.902l-7.033,3.529
				c-2.149,1.078-4.634,1.28-6.929,0.562l-6.28-1.964c-2.067-0.646-3.534-2.483-3.709-4.642l-0.459-5.684
				c-0.084-1.038,1.168-1.661,1.917-0.939c0.893,0.862,1.567,1.943,1.943,3.154l0.628,2.025l5.968,2.69l3.328-7.28
				c0,0,4.331-3.91,10.413-2.918c6.082,0.992,15.773-4.15,15.773-4.15L586.844,204.703z"/>
			<path style="opacity:0.1;fill:#A17747;" d="M553.392,206.438c-1.184,0.982-2.378,1.971-3.726,2.713
				c-1.348,0.742-2.876,1.231-4.411,1.132c-1.536-0.099-3.072-0.849-3.89-2.152c0.935-0.535,2.147-1.279,3.184-1.57
				c0.088-0.025,0.176-0.044,0.265-0.065l5.152,2.322l1.125-2.461C551.862,206.393,552.632,206.428,553.392,206.438z"/>
			<path style="fill:#A17747;" d="M553.719,206.781l-6,1.542l-3.983,0.891c-0.457,0.102-0.935,0.053-1.361-0.139l-0.085-0.038
				c-0.705-0.318-1.187-0.988-1.264-1.757l0,0c-0.077-0.769,0.262-1.522,0.889-1.973l0.441-0.317
				c1.634-1.176,3.502-1.986,5.477-2.375l5.461-1.077L553.719,206.781z"/>
			<path style="opacity:0.2;fill:#A17747;" d="M545.256,208.053c-0.418,0.023-0.799,0.228-1.187,0.386
				c-0.388,0.158-0.832,0.269-1.217,0.107c-0.233-0.098-0.416-0.286-0.566-0.489c-0.211-0.285-0.372-0.617-0.403-0.97
				c-0.049-0.571,0.25-1.127,0.665-1.523c0.415-0.396,0.935-0.657,1.448-0.913C544.722,205.562,545.205,206.89,545.256,208.053z"/>
			<path style="opacity:0.2;fill:#A17747;" d="M540.29,200.712c0.432,0.937,0.621,1.987,0.536,3.016
				c-0.353,0.177-0.754,0.283-1.145,0.284l-0.172-2.127C539.463,201.312,539.829,200.875,540.29,200.712z"/>
		</g>
		<path style="fill:#5C3B1F;" d="M614.258,74.555c-0.295,1.294-2.315,1.746-1.759,2.952c-1.824,0.769-3.557,2.48-4.141,4.371
			c-0.584,1.891-0.288,4.035,0.785,5.697c-0.805,1.243-1.454,3.473-0.958,4.868c0.496,1.395,1.668,2.532,3.077,2.987
			c0.233,2.118,1.451,4.776,3.444,5.529c1.993,0.753,4.391,0.295,5.967-1.139c0.087-3.172,2.311-7.544,3.917-10.281
			c2.158-3.675,6.268-6.385,10.775-5.368c0.877,0.198,1.722,0.555,2.467,1.058c3.715,2.51,3.613,6.728,2.605,10.332
			c-0.721,2.577-1.868,5.042-2.31,7.682c-0.433,2.591,0.378,3.859,1.755,6.048c0.795,1.265,2.21,2.073,3.699,1.959
			c1.572-0.121,2.851-1.083,3.329-2.565c1.758,0.101,3.546-0.621,4.742-1.914c1.195-1.293,1.958-3.924,1.72-5.669
			c1.148-0.59,2.029-1.676,2.372-2.92c0.343-1.244-0.188-3.638-0.871-4.732c0.006-0.005,0.012-0.009,0.018-0.014
			c1.007-0.784,1.252-2.197,0.765-3.376C648.336,72.338,630.842,66.069,614.258,74.555z"/>
		<path style="fill:#FFFFFF;" d="M653.118,420.259c-0.181,4.177,0.797,8.399,2.797,12.07c4.888-0.322,9.923-0.143,14.795-0.652
			c0.028-5.353-0.343-11.069-0.315-16.423C664.838,415.087,657.205,416.491,653.118,420.259z"/>
		<path style="fill:#FFFFFF;" d="M609.614,420.626c1.752,5.502,3.046,11.15,3.864,16.867c4.98-0.326,9.994-1.74,14.792-3.114
			c-1.493-5.845-1.764-12.102-1.054-18.094C620.63,416.871,615.65,417.928,609.614,420.626z"/>
		<path style="fill:#0062B1;" d="M602.725,236.552c-1.712,62.407,2.529,124.872,4.497,187.253c7.948,3.43,17.405,2.479,24.756-2.661
			c-1.606-54.656,5.45-110.533,9.738-165.059c-2.072-3.687-5.227-7.309-8.857-9.481c-4.78-2.861-10.368-3.999-15.85-4.989
			C612.191,240.743,607.571,237.266,602.725,236.552z"/>
		<path style="opacity:0.2;" d="M602.725,236.552c-1.712,62.407,2.529,124.872,4.497,187.253c7.948,3.43,17.405,2.479,24.756-2.661
			c-1.606-54.656,5.45-110.533,9.738-165.059c-2.072-3.687-5.227-7.309-8.857-9.481c-4.78-2.861-10.368-3.999-15.85-4.989
			C612.191,240.743,607.571,237.266,602.725,236.552z"/>
		<path style="fill:#0062B1;" d="M614.275,245.762c3.745,12.009,12.26,22.459,23.267,28.551
			c5.903,48.792,12.745,100.256,12.742,149.403c8.055,4.9,18.123,4.066,25.537-2.358c-3.642-48.217-1.794-95.832-1.085-144.282
			c0.208-14.19-1.781-28.019-7.433-41.036C648.735,234.133,630.976,237.427,614.275,245.762z"/>
		<path style="opacity:0.2;" d="M602.466,247.724c21.522,12.165,47.023,17.163,71.547,14.009c-1.009-8.815-3.117-17.419-6.71-25.694
			c-15.905-1.633-31.214,0.562-45.776,6.461c-1.501-0.326-3.012-0.614-4.516-0.886c-3.242-0.586-6.392-2.348-9.582-3.658
			c-1.643,0.795-3.248,1.664-4.796,2.617C602.57,242.957,602.522,245.341,602.466,247.724z"/>
		<path style="fill:#FFD010;" d="M620.646,123.678c-9.207,2.377-16.824,9.169-21.88,17.222s-7.813,17.325-9.926,26.596
			c2.611,6.911,9.13,12.296,16.518,12.234C615.603,162.796,621.48,143.451,620.646,123.678z"/>
		<path style="opacity:0.2;" d="M620.646,123.678c-9.207,2.377-16.824,9.169-21.88,17.222s-7.813,17.325-9.926,26.596
			c2.611,6.911,9.13,12.296,16.518,12.234C615.603,162.796,621.48,143.451,620.646,123.678z"/>
		<path style="fill:#FFD010;" d="M632.823,119.007c-10.048,1.426-19.558,6.88-25.466,15.132c-5.14,7.18-7.418,16.073-8.101,24.877
			c-0.683,8.804,0.124,17.645,0.599,26.463c1.029,19.108,0.498,38.3-1.585,57.322c1.183,2.299,2.458,5.249,4.406,6.95
			c0,0,36.799,9.316,62.819-0.368c4.018-1.495,6.763-5.213,6.927-9.496c0.039-1.032,0.105-2.225,0.206-3.598
			c1.208-16.415,0.179-32.755,3.611-48.852c2.139-10.034,2.232-21.721,1.229-31.931c-1.003-10.21-4.534-20.493-11.705-27.83
			C657.184,118.9,644.971,117.283,632.823,119.007z"/>
		<path style="fill:#FF8B29;" d="M660.67,170.472c-4.284-5.992-7.185-14.59-7.81-22.343c-0.173-2.14-2.023-3.726-4.164-3.571
			c-11.47,0.826-22.984,1.033-34.476,0.622c-1.93-0.069-3.657,1.264-3.972,3.169c-1.459,8.843-5.699,17.621-11.083,24.839
			c0.181,4.098,0.469,8.196,0.689,12.29c1.029,19.108,0.498,38.3-1.585,57.322c1.183,2.299,2.458,5.249,4.406,6.95
			c0,0,25.444,6.432,48.979,3.034c5.739-1.106,11.651-2.447,16.099-6.196c1.882-1.586,3.363-3.488,4.558-5.586
			c0.054-0.367,0.095-0.738,0.109-1.116c0.039-1.032,0.105-2.225,0.206-3.598c1.208-16.415,0.179-32.755,3.611-48.852
			c0.257-1.206,0.481-2.439,0.681-3.687C670.468,180.844,664.786,176.229,660.67,170.472z"/>
		
			<path style="opacity:0.3;fill:none;stroke:#FFFFFF;stroke-linecap:round;stroke-linejoin:round;stroke-miterlimit:10;stroke-dasharray:2;" d="
			M627.175,279.115c-3.002,33.657-1.32,103.408,0.04,137.171"/>
		
			<path style="opacity:0.3;fill:none;stroke:#FFFFFF;stroke-linecap:round;stroke-linejoin:round;stroke-miterlimit:10;stroke-dasharray:2;" d="
			M665.186,274.89c-1.339,34.454,3.945,105.908,5.209,140.365"/>
		<path style="fill:#FF8B29;" d="M598.453,239.948c0.188,39.046,0.375,78.092,0.563,117.137c26.385,6.176,54.811,5.789,80.622-2.465
			c0.321-42.473,0.863-86.414-9.933-127.493C646.276,230.368,621.153,233.309,598.453,239.948z"/>
		<path style="opacity:0.2;" d="M631.964,286.087h-1.57c-10.831,0-19.61-8.78-19.61-19.611v-55.912h40.791v55.912
			C651.574,277.307,642.794,286.087,631.964,286.087z"/>
		<path style="opacity:0.2;" d="M648.843,119.051c-5.133-0.91-10.582-0.816-16.021-0.044c-3.575,0.507-7.079,1.534-10.38,3.006
			c-0.272,1.253-0.459,2.519-0.424,3.797c0.058,2.086,0.786,4.247,2.389,5.584c2.032,1.695,4.979,1.725,7.577,1.22
			C639.351,131.184,645.808,125.89,648.843,119.051z"/>
		<path style="fill:#A17747;" d="M645.658,118.62c-4.176-0.406-8.508-0.228-12.835,0.387c-2.584,0.367-5.131,1.004-7.591,1.883
			c-0.721,1.455-1.183,2.994-0.802,4.535c0.53,2.143,2.647,3.633,4.832,3.948c2.185,0.316,4.402-0.352,6.393-1.304
			C639.86,126.056,643.377,122.683,645.658,118.62z"/>
		<path style="fill:#A17747;" d="M625.661,108.809c0.608,4.448,0.968,8.929,1.078,13.417c0.839,1.319,1.867,2.76,3.414,2.983
			c1.041,0.15,2.065-0.306,3.006-0.775c3.409-1.699,6.656-3.724,9.682-6.037c0.029-4.516,0.118-9.406-0.29-13.904
			C636.612,104.151,630.726,105.69,625.661,108.809z"/>
		<path style="opacity:0.2;" d="M626.625,119.275c5.891-3.065,11.344-6.967,16.133-11.566c-0.033-0.754-0.089-1.494-0.144-2.233
			c-2.327-0.242-4.863-0.244-6.997,0.148c-3.375,0.621-6.716,2.052-8.976,4.635c-0.253,0.289-0.478,0.601-0.69,0.924
			C626.265,113.871,626.493,116.57,626.625,119.275z"/>
		<path style="fill:#A17747;" d="M617.387,81.451c-2.399,11.012-1.196,22.778,3.382,33.076c2.018,0.349,3.992,0.446,5.982-0.042
			c7.164-1.756,15.191-4.092,19.839-9.818s6.664-13.508,5.381-20.771c-0.858-4.855-3.397-9.711-7.791-11.946
			c-3.293-1.675-7.207-1.68-10.838-0.992C627.103,72.14,618.739,75.247,617.387,81.451z"/>
		<path style="fill:#5C3B1F;" d="M614.931,83.204c-0.03,0.924,0.509,1.844,1.33,2.27s1.884,0.335,2.621-0.223
			c0.702,1.076,2.085,1.673,3.36,1.513c1.275-0.16,2.421-1.094,2.835-2.31c0.626,1.051,2.087,1.49,3.311,1.481
			c1.223-0.009,2.419-0.706,3.029-1.767c0.504,1.08,1.992,1.995,3.148,2.284c1.156,0.29,2.437,0.032,3.392-0.682
			c-0.35,1.546,0.717,3.478,2.163,4.126c-0.07,1.252-0.046,2.464-0.116,3.716c0.922-0.155,1.849,0.161,2.771,0.006
			c-0.069,1.863,0.434,3.48,1.07,5.233c0.26,0.715,0.591,1.432,1.162,1.935c0.57,0.503,3.822,2.724,4.503,2.385
			c3.944-1.966,4.161-9.75,4.007-14.154c-0.154-4.404-1.445-9.901-3.008-14.021c-0.737-1.941-3.702-2.743-5.362-3.99
			c-1.803-1.355-4.199-1.557-6.453-1.632c-5.485-0.183-11.159,0.129-16.109,2.498C617.633,74.24,615.11,77.719,614.931,83.204z"/>
		<path style="fill:#5C3B1F;" d="M645.196,98.219c-1.51,3.236-2.485,6.424-2.438,9.994c1.295-0.633,2.956-0.831,4.106-1.699
			c1.15-0.868,2.151-1.99,2.645-3.344c0.494-1.354,0.421-2.958-0.404-4.14C648.282,97.848,646.535,97.685,645.196,98.219z"/>
		
			<path style="opacity:0.2;fill:none;stroke:#000000;stroke-width:0.75;stroke-linecap:round;stroke-linejoin:round;stroke-miterlimit:10;" d="
			M621.007,95.18c0.171,1.946-0.419,3.95-1.619,5.493c-0.48,0.618-1.092,1.295-0.943,2.062c0.112,0.579,0.656,0.996,1.228,1.137
			c0.572,0.141,1.173,0.06,1.756-0.028"/>
		
			<path style="opacity:0.2;fill:none;stroke:#000000;stroke-width:0.75;stroke-linecap:round;stroke-linejoin:round;stroke-miterlimit:10;" d="
			M619.35,106.507c2.407,0.565,5.044,0.068,7.08-1.335"/>
		<path style="fill:#5C3B1F;" d="M633.383,88.333c-3.049-1.327-6.741-1.062-9.569,0.687c-0.355,0.22,0.211,0.885,0.622,0.964
			c0.41,0.079,0.825-0.099,1.199-0.285C629.533,87.762,634.265,89.878,633.383,88.333z"/>
		<path style="fill:#5C3B1F;" d="M612.704,88.333c3.049-1.327,6.74-1.062,9.569,0.687c0.355,0.22-0.211,0.885-0.622,0.964
			c-0.41,0.079-0.825-0.099-1.199-0.285C616.555,87.762,611.822,89.878,612.704,88.333z"/>
		<g>
			<path style="fill:#363636;" d="M586.154,443.799c-1.087-1.94-0.227-4.529,1.447-5.992c1.675-1.463,3.951-2.019,6.158-2.292
				c2.207-0.274,4.463-0.319,6.59-0.97c2.831-0.867,5.222-2.739,7.773-4.242c2.551-1.503,5.704-2.291,8.574-1.565
				c1.75,2.145,4.886,3.037,7.503,2.135c1.131-0.39,2.142-1.071,3.263-1.487c1.121-0.417,3.095-0.814,3.738,0.195
				c2.688,4.218,2.956,9.868,0.679,14.321C617.037,444.802,600.975,444.999,586.154,443.799z"/>
			<path style="fill:#DEDEDE;" d="M596.295,435.255c0.938,2.988,1.523,6.086,1.732,9.211c-4.013-0.135-7.987-0.352-11.873-0.666
				c-1.087-1.94-0.227-4.529,1.447-5.992c1.675-1.463,3.951-2.019,6.158-2.292C594.601,435.41,595.449,435.339,596.295,435.255z"/>
			<path style="fill:#DEDEDE;" d="M631.879,443.901c-14.842,0.901-30.904,1.098-45.725-0.102c-0.32-0.571-0.468-1.199-0.479-1.837
				c15.747-0.26,31.495-0.52,47.243-0.779C632.666,442.121,632.323,443.034,631.879,443.901z"/>
			<g>
				<path style="fill:#B0B0B0;" d="M613.223,433.949c0.045-0.002,0.091-0.01,0.135-0.024c0.293-0.09,0.457-0.401,0.367-0.694
					c-0.507-1.645-0.057-3.594,1.119-4.85c0.209-0.224,0.198-0.575-0.026-0.784c-0.224-0.209-0.575-0.198-0.784,0.026
					c-1.461,1.561-1.999,3.891-1.369,5.935C612.742,433.806,612.976,433.962,613.223,433.949z"/>
			</g>
			<g>
				<path style="fill:#B0B0B0;" d="M609.748,434.724c0.045-0.002,0.091-0.01,0.135-0.024c0.293-0.09,0.457-0.401,0.367-0.694
					c-0.507-1.645-0.057-3.594,1.119-4.85c0.209-0.224,0.198-0.575-0.026-0.784c-0.224-0.209-0.576-0.198-0.784,0.026
					c-1.462,1.561-1.999,3.891-1.37,5.935C609.266,434.581,609.5,434.737,609.748,434.724z"/>
			</g>
			<g>
				<path style="fill:#B0B0B0;" d="M606.302,436.06c0.045-0.002,0.091-0.01,0.136-0.024c0.293-0.09,0.457-0.401,0.367-0.694
					c-0.507-1.644-0.058-3.593,1.118-4.85c0.21-0.224,0.198-0.575-0.026-0.784c-0.224-0.209-0.575-0.198-0.784,0.026
					c-1.462,1.562-1.999,3.892-1.369,5.936C605.82,435.917,606.054,436.072,606.302,436.06z"/>
			</g>
			<g>
				<path style="fill:#B0B0B0;" d="M603.145,438.322c0.045-0.002,0.091-0.01,0.135-0.024c0.293-0.09,0.457-0.401,0.367-0.694
					c-0.506-1.644-0.057-3.594,1.119-4.85c0.209-0.224,0.198-0.575-0.026-0.784c-0.224-0.209-0.575-0.198-0.784,0.026
					c-1.461,1.562-1.999,3.892-1.369,5.935C602.663,438.178,602.897,438.334,603.145,438.322z"/>
			</g>
			<g>
				<path style="fill:#B0B0B0;" d="M600.01,439.847c0.045-0.002,0.091-0.01,0.135-0.024c0.293-0.09,0.457-0.401,0.367-0.694
					c-0.507-1.645-0.057-3.594,1.118-4.85c0.209-0.224,0.198-0.575-0.026-0.784c-0.224-0.209-0.575-0.198-0.784,0.026
					c-1.461,1.561-1.999,3.891-1.369,5.935C599.529,439.704,599.763,439.86,600.01,439.847z"/>
			</g>
		</g>
		<g>
			<path style="fill:#363636;" d="M674.571,436.697c-0.441-3.212-3.722-6.326-6.94-6.715c-1.172-1.577-3.077-2.586-5.041-2.668
				c-1.964-0.083-3.946,0.762-5.247,2.235c-1.438,1.628-4.604,3.331-5.251,5.405c-0.605,1.938,0.033,4.025,0.724,5.934
				c0.433,1.196,0.894,2.432,1.087,3.68c0.213,1.376,1.27,2.473,2.65,2.655c7.048,0.93,14.516,0.461,21.25-1.596
				C678.319,442.096,677.309,438.984,674.571,436.697z"/>
			<path style="fill:#DEDEDE;" d="M677.525,441.118c0.415,1.393,0.513,2.904,0.279,4.508c-6.734,2.056-14.202,2.525-21.25,1.596
				c-1.38-0.182-2.438-1.279-2.65-2.655c-0.092-0.592-0.246-1.182-0.427-1.766C661.509,443.681,669.694,443.11,677.525,441.118z"/>
			<path style="fill:#DEDEDE;" d="M675.284,442.207c-1.433-2.425-3.501-4.534-6.075-5.676c-2.574-1.142-5.675-1.23-8.162,0.093
				c-2.486,1.323-4.195,4.146-3.882,6.945c2.745,0.773,6.054,1.054,8.905,1.064C668.921,444.642,673.317,444.271,675.284,442.207z"
				/>
			<g>
				<path style="fill:#B0B0B0;" d="M657.877,438.283c0.209-0.007,0.395-0.149,0.45-0.36c0.189-0.741,0.794-1.425,1.66-1.876
					c0.842-0.436,1.84-0.632,2.72-0.804c1.571-0.307,2.881-0.546,4.237-0.53c1.534,0.013,2.88,0.38,3.895,1.061
					c0.218,0.147,0.517,0.09,0.665-0.131c0.148-0.22,0.089-0.518-0.131-0.665c-1.17-0.785-2.699-1.208-4.421-1.224
					c-1.439-0.011-2.803,0.231-4.43,0.549c-0.944,0.185-2.014,0.394-2.978,0.894c-1.108,0.577-1.89,1.485-2.147,2.489
					c-0.065,0.257,0.09,0.518,0.346,0.583C657.789,438.28,657.833,438.284,657.877,438.283z"/>
			</g>
			<g>
				<path style="fill:#B0B0B0;" d="M658,435.34c0.094-0.003,0.188-0.033,0.269-0.093c2.827-2.077,6.553-2.827,9.964-2.007
					c0.258,0.063,0.516-0.096,0.578-0.354c0.061-0.258-0.096-0.516-0.354-0.578c-3.684-0.887-7.703-0.076-10.755,2.167
					c-0.213,0.157-0.259,0.457-0.103,0.67C657.696,435.277,657.848,435.345,658,435.34z"/>
			</g>
			<g>
				<path style="fill:#B0B0B0;" d="M658.533,433.245c0.095-0.003,0.188-0.033,0.27-0.094c1.303-0.96,2.911-1.478,4.527-1.467
					c0.294,0.004,0.481-0.211,0.484-0.476c0.002-0.264-0.211-0.48-0.476-0.484c-1.82-0.008-3.634,0.572-5.104,1.655
					c-0.213,0.156-0.258,0.457-0.101,0.67C658.229,433.182,658.381,433.249,658.533,433.245z"/>
			</g>
		</g>
		<path style="fill:#5C3B1F;" d="M627.491,92.674c-0.459,0-0.841,0.606-0.964,1.431c0.29,0.189,0.616,0.322,0.958,0.373
			c-0.305,0.295-0.615,0.576-0.941,0.839c0.139,0.769,0.508,1.324,0.947,1.324c0.557,0,1.008-0.888,1.008-1.983
			C628.499,93.562,628.048,92.674,627.491,92.674z"/>
		<path style="fill:#5C3B1F;" d="M618.574,92.674c-0.459,0-0.842,0.606-0.964,1.431c0.29,0.189,0.616,0.322,0.958,0.373
			c-0.305,0.295-0.615,0.576-0.941,0.839c0.139,0.769,0.508,1.324,0.947,1.324c0.557,0,1.008-0.888,1.008-1.983
			C619.582,93.562,619.131,92.674,618.574,92.674z"/>
		<path style="fill:#B3611D;" d="M648.159,146.77c-1.136-6.159-1.221-12.51-0.251-18.697c0.53-3.382,1.65-7.093,4.65-8.742
			c1.803-0.991,4.103-1.012,5.924-0.056c1.821,0.957,3.109,2.863,3.316,4.91c-1.585-0.803-3.158-1.582-4.743-2.385
			c-3.42-1.137-9.148,6.272-5.753,25.51C650.123,147.444,649.274,147.179,648.159,146.77z"/>
		<circle style="fill:#FFF821;" cx="648.843" cy="147.345" r="2.731"/>
		<path style="fill:#B3611D;" d="M620.96,121.8c0.308,0.156,0.615,0.309,0.923,0.464c0.867-0.402,1.752-0.762,2.647-1.1
			c-0.562-0.78-1.291-1.441-2.143-1.889c-1.821-0.957-4.121-0.935-5.924,0.056c-3,1.648-4.12,5.36-4.65,8.742
			c-0.97,6.187-0.885,12.538,0.251,18.697c1.115,0.409,1.964,0.674,3.144,0.541C611.812,128.073,617.54,120.663,620.96,121.8z"/>
		<circle style="fill:#FFF821;" cx="613.514" cy="147.345" r="2.731"/>
		<path style="opacity:0.3;fill:#FFFFFF;" d="M609.142,177.639c-0.634,12.234-1.267,24.469-1.901,36.704
			C604.413,202.589,605.193,189.064,609.142,177.639z"/>
		<path style="fill:#A16847;" d="M628.596,100.254c0,0.958,1.269,1.735,2.834,1.735c1.565,0,2.834-0.777,2.834-1.735
			c0-0.958-1.269-1.735-2.834-1.735C629.866,98.519,628.596,99.296,628.596,100.254z"/>
		<path style="fill:#A16847;" d="M617.836,100.254c0,0.507-0.361,0.959-0.928,1.276c-0.149-0.908-0.277-1.82-0.38-2.735
			C617.313,99.104,617.836,99.641,617.836,100.254z"/>
		<rect x="549.193" y="138.678" style="fill:#FFBE60;" width="37.651" height="23.695"/>
		<rect x="578.556" y="129.452" style="fill:#C191FF;" width="23.616" height="32.921"/>
		<rect x="591.429" y="129.452" style="opacity:0.2;" width="10.743" height="32.921"/>
		<g>
			<path style="fill:#A17747;" d="M613.738,204.402l0.591-5.266c0.131-1.164,0.669-2.245,1.519-3.051l2.07-1.963
				c0,0,1.674,0.14,1.383,1.922l3.649-3.355c0,0,2.14,1.961-0.755,4.778l3.243-2.334c0,0,2.601,1.4-1.87,5.764
				c-4.471,4.364,0.117,10.001,0.117,10.001L613.738,204.402z"/>
			<path style="opacity:0.2;" d="M613.738,204.402l0.591-5.266c0.131-1.164,0.669-2.245,1.519-3.051l2.07-1.963
				c0,0,1.674,0.14,1.383,1.922l3.649-3.355c0,0,2.14,1.961-0.755,4.778l3.243-2.334c0,0,2.601,1.4-1.87,5.764
				c-4.471,4.364,0.117,10.001,0.117,10.001L613.738,204.402z"/>
			<rect x="543.567" y="147.345" style="fill:#594127;" width="95.724" height="58.993"/>
			<rect x="613.514" y="147.345" style="opacity:0.2;" width="25.777" height="58.993"/>
			<path style="fill:#A17747;" d="M657.615,202.599l-17.955,3.74c-3.051,0.535-2.2,0.254-4.969,1.643l-7.033,3.529
				c-2.149,1.079-4.634,1.28-6.929,0.562l-6.28-1.964c-2.067-0.646-3.535-2.483-3.709-4.642l-0.459-5.685
				c-0.084-1.038,1.168-1.661,1.917-0.939c0.893,0.862,1.567,1.943,1.943,3.154l0.628,2.025l5.968,2.69l3.328-7.28
				c0,0,4.411-4.314,10.413-2.918c7.309,1.7,15.875-3.827,15.875-3.827L657.615,202.599z"/>
			<path style="opacity:0.1;" d="M624.163,204.333c-1.184,0.982-2.378,1.971-3.726,2.713c-1.348,0.742-2.876,1.23-4.411,1.132
				c-1.536-0.099-3.072-0.849-3.89-2.152c0.935-0.535,2.147-1.279,3.184-1.57c0.088-0.024,0.176-0.043,0.265-0.065l5.152,2.322
				l1.125-2.461C622.633,204.289,623.404,204.324,624.163,204.333z"/>
			<path style="fill:#A17747;" d="M624.491,204.676l-6,1.543l-3.983,0.89c-0.457,0.102-0.935,0.053-1.362-0.139l-0.085-0.038
				c-0.705-0.318-1.187-0.988-1.264-1.757l0,0c-0.077-0.769,0.262-1.522,0.889-1.973l0.441-0.317
				c1.634-1.176,3.502-1.986,5.477-2.375l5.461-1.077L624.491,204.676z"/>
			<path style="opacity:0.2;fill:#FFFFFF;" d="M616.028,205.949c-0.418,0.023-0.799,0.228-1.187,0.386
				c-0.388,0.158-0.832,0.269-1.217,0.107c-0.233-0.098-0.416-0.286-0.566-0.489c-0.211-0.285-0.372-0.617-0.403-0.97
				c-0.049-0.571,0.25-1.127,0.665-1.523c0.415-0.395,0.936-0.657,1.448-0.913C615.494,203.458,615.976,204.785,616.028,205.949z"/>
			<path style="opacity:0.2;fill:#FFFFFF;" d="M611.061,198.608c0.432,0.937,0.621,1.987,0.536,3.016
				c-0.353,0.177-0.754,0.283-1.145,0.284l-0.172-2.127C610.234,199.207,610.601,198.77,611.061,198.608z"/>
			<path style="opacity:0.2;" d="M583.862,156.197H573.25c-1.241,0-2.247-1.006-2.247-2.247l0,0c0-1.241,1.006-2.247,2.247-2.247
				h10.611c1.241,0,2.247,1.006,2.247,2.247l0,0C586.109,155.191,585.103,156.197,583.862,156.197z"/>
		</g>
		<path style="opacity:0.2;" d="M663.349,136.843c-0.942,0.056-1.853,0.511-2.464,1.23c-1.369,1.612-3.322,3.131-3.707,5.21
			c-0.384,2.079-0.143,4.219,0.151,6.313c0.948,6.745,2.436,13.414,4.444,19.923c0.753,0.137,1.848,1.053,2.6,1.19
			c1.859,3.378,3.988,7.018,6.316,10.092c2.492-1.767,4.16-4.93,4.108-7.985c-0.051-3.055-1.083-5.997-2.104-8.877
			C669.502,154.927,666.542,145.856,663.349,136.843z"/>
		<path style="fill:#A17747;" d="M659.765,131.895c-1.825,16.068,2.454,32.754,11.787,45.961
			c-5.518,2.506-10.768,7.776-15.709,11.286c-4.941,3.51-12.659,8.249-18.668,7.46c-1.842,3.687-0.425,6.492,2.116,9.738
			c17.964-0.315,36.024-8.822,47.181-22.906c1.446-1.826,1.218-4.668,1.631-6.96c2.303-12.786-7.956-25.209-14.964-36.148
			C670.293,135.884,665.023,131.475,659.765,131.895z"/>
		<path style="opacity:0.2;" d="M684.299,158.077c-1.203-2.356-2.584-4.678-4.033-6.957c-3.194,0.106-6.479-0.078-9.378,0.965
			c-3.236,1.165-6.59,2.434-9.213,4.577c2.029,7.57,5.354,14.792,9.877,21.193c-2.562,1.163-5.066,2.925-7.508,4.828
			c4.173-1.701,8.711-2.873,13.041-3.403c-1.527-2.395-2.424-5.124-3.951-7.518C678.249,168.623,682.192,163.688,684.299,158.077z"
			/>
		<path style="fill:#FFD010;" d="M659.816,129.02c-1.965,2.492-2.041,5.946-1.879,9.115c0.547,10.666,2.804,21.243,6.658,31.203
			c8.213-3.203,16.251-9.347,21.203-16.64c-3.56-8.328-9.275-15.647-15.561-22.167c-1.538-1.596-3.214-3.215-5.349-3.808
			C662.753,126.13,661.189,127.28,659.816,129.02z"/>
		<path style="opacity:0.2;fill:#FFFFFF;" d="M648.19,196.21c7.842-5,15.956-9.574,24.294-13.695
			C666.905,189.877,657.364,195.13,648.19,196.21z"/>
		<path style="opacity:0.2;fill:#FFFFFF;" d="M638.324,133.05c-2.795,1.421-5.709,2.783-8.833,3.057
			c-3.123,0.275-6.534-0.737-8.376-3.275c0.015,2.272,0.939,4.127,2.99,5.105c2.051,0.978,4.494,0.927,6.645,0.196
			C632.903,137.403,636.667,134.605,638.324,133.05z"/>
		<path style="fill:#FF8B29;" d="M654.082,86.713c0.012-4.498-1.907-9.322-3.691-13.45c-1.784-4.129-4.708-7.829-8.563-10.147
			c-4.954-2.978-11.332-3.451-16.671-1.236s-9.509,7.065-10.899,12.675c6.896,0.748,13.216,3.33,19.627,5.98
			C640.295,83.184,647.146,86.76,654.082,86.713z"/>
		<path style="fill:#FFFFFF;" d="M615.356,73.858c3.287-4.937,6.998-10.203,12.653-11.992c2.171-0.687,4.767-0.716,6.488,0.775
			c1.761,1.526,2.067,4.114,2.084,6.444c0.03,3.949-0.417,7.901-1.328,11.744C630.551,75.438,622.41,72.677,615.356,73.858z"/>
		<path style="fill:#BA661E;" d="M641.174,83.423c-3.669-3.194-7.392-6.424-11.753-8.579c-4.361-2.155-9.507-3.15-14.136-1.653
			c-2.872,0.929-5.767,1.495-8.745,1.986c3.681,0.012,7.865,0.93,10.929,3.311c3.065,2.381,5.762,5.36,9.323,6.902
			C631.315,87.349,637.381,86.573,641.174,83.423z"/>
		<path style="opacity:0.2;fill:#FFFFFF;" d="M621.797,77.887c2.995,3.418,7.569,5.392,12.11,5.226
			c-2.068,1.22-5.097,0.827-7.221-0.294C624.563,81.697,623.034,79.945,621.797,77.887z"/>
		<path style="opacity:0.2;fill:#FFFFFF;" d="M618.543,70.437c1.972-4.556,6.768-7.74,11.731-7.789
			C626.46,65.391,622.357,67.694,618.543,70.437z"/>
		<g>
			<path style="fill:#A17747;" d="M644.252,99.249c3.22-2.623,5.128-6.785,5.014-10.937c-0.044-1.584-0.537-3.39-1.98-4.046
				c-0.992-0.451-2.2-0.203-3.101,0.409c-0.901,0.613-1.54,1.54-2.058,2.5c-1.113,2.065-1.526,4.326-0.993,6.611
				C641.667,96.071,642.927,97.313,644.252,99.249z"/>
			<path style="opacity:0.2;" d="M642.713,89.348c0.118-0.782,0.241-1.58,0.606-2.281c0.365-0.701,1.024-1.3,1.81-1.377
				c0.995-0.098,1.911,0.67,2.314,1.585c0.403,0.915,0.406,1.949,0.402,2.949c-0.336-0.94-1.241-2.117-2.111-2.608
				c-0.446-0.252-1.032-0.41-1.448-0.111c0.262,0.333,0.561,0.98,0.663,1.391c0.102,0.412-0.012,0.908-0.376,1.126
				c0.622,0.151,1.094,0.776,1.069,1.416c-0.025,0.64-0.545,1.226-1.177,1.328c-0.015,0.96,0.21,2.135,0.926,2.775
				c-1.352-0.06-2.708-0.951-3.182-2.218C641.733,92.054,642.511,90.686,642.713,89.348z"/>
		</g>
	</g>
</g>
</svg>
