<?xml version="1.0" encoding="utf-8"?>
<!-- Generator: Adobe Illustrator 25.2.1, SVG Export Plug-In . SVG Version: 6.00 Build 0)  -->
<svg version="1.1" id="Layer_1" xmlns="http://www.w3.org/2000/svg" xmlns:xlink="http://www.w3.org/1999/xlink" x="0px" y="0px"
	 viewBox="0 0 300 300" style="enable-background:new 0 0 300 300;" xml:space="preserve">
<style type="text/css">
	.st0{fill:#E93C3C;}
</style>
<g>
	<path class="st0" d="M62,67.2c14.3,0,28.2,0.1,42.1-0.1c1,0,2.3-1.3,3-2.3c7.5-11.2,16.5-21.1,27.6-28.8
		c32.9-22.8,71.9-20,101.7,7.2c20.5,18.8,32.6,42.4,38.6,69.1c8.5,37.5,5.1,73.9-11.9,108.6c-9.2,18.8-22.1,34.7-40.1,45.9
		c-30.7,19.1-66.8,16.1-94.7-7.8c-8.2-7-15.3-14.9-21.1-23.9c-1.2-1.9-2.5-2.5-4.7-2.5c-13.4,0.1-26.7,0.1-40.5,0.1
		c0,1.3,0,2.4,0,3.6c0,12.1,0,24.1,0,36.2c0,5.1-1.7,6.8-6.8,6.8c-9.4,0-18.8,0-28.1,0c-4.6,0-6.5-1.8-6.5-6.5
		c0-81.9,0-163.8,0-245.8c0-4.7,1.8-6.5,6.4-6.5c9.4,0,18.8,0,28.1,0c5.1,0,6.8,1.7,6.8,6.7c0,12,0,23.9,0,35.9
		C62,64.4,62,65.6,62,67.2z M269,141.1c-0.9-5.8-2-17.5-4.7-28.9c-5.8-24.4-17.1-46-36.3-62.7c-22.6-19.8-51.7-24-77.2-11.2
		C132.4,47.4,119.4,62,110,79.9c-18.2,34.8-21.4,71.4-12,109.2c6,24.4,17.4,46,37,62.2c21.5,17.8,45.7,23,72.1,12.3
		c17-6.9,29.6-19.4,39.5-34.6C262.9,204.1,269.1,176.4,269,141.1z M31.2,31.1c0,79.4,0,158.6,0,237.6c6.9,0,13.7,0,20.3,0
		c0-79.3,0-158.4,0-237.6C44.7,31.1,38,31.1,31.2,31.1z M62.2,77.6c0,48.4,0,96.5,0,144.6c12.5,0,24.7,0,37,0
		C76.9,174,77,125.8,99.2,77.6C86.8,77.6,74.6,77.6,62.2,77.6z"/>
	<path class="st0" d="M217.4,109.1c-0.4,1.9-0.7,4.4-1.6,6.7c-1,2.6-0.2,3.1,2.3,3.3c11.5,0.8,20.1,10.2,19.8,21.4
		c-0.3,8.7-6.1,16.3-14.7,18.8c-2,0.6-3,1.6-3.8,3.4c-10.9,23.5-21.9,47-32.9,70.5c-0.7,1.6-1.9,3.3-3.3,4.2
		c-2.7,1.8-5.7,0.3-7.4-3.3c-5.4-11.6-10.8-23.2-16.2-34.8c-5.6-12.1-11.3-24.2-16.9-36.3c-0.9-1.9-1.9-3-4-3.6
		c-9.7-2.9-15.8-12.3-14.5-22.1c1.3-10,9.9-17.8,20-18.2c0.8,0,1.5,0,2.3,0c2.2,0,2.8-0.9,1.6-2.8c-8.3-13.2-1.7-38.1,19.6-46.3
		c4-1.6,8.5-2.1,12.9-2.6c3.4-0.4,5.4,1.9,5.6,5.3c0.1,1.6,0,3.2,0,4.8c0.1,6.4,3.8,10.2,10.2,10.5c10.2,0.5,18.2,7.2,20.5,17.1
		C217.1,106.2,217.2,107.3,217.4,109.1z M175.6,78.2c-6.1,1.4-11.1,4.3-14.7,9.1c-5.7,7.8-8.1,16.1-3,25.3c0.7,1.2,1,2.6,1.2,4
		c0.8,7.5-4.6,12.7-13.1,12.8c-6.7,0.1-11.6,4.5-11.6,10.5c0.1,6.1,4.8,10.2,11.7,10.2c23.4,0,46.8,0,70.1,0
		c6.5,0,11.1-4.1,11.3-9.9c0.2-5.8-4.4-10.4-11-10.8c-9-0.5-14.1-7.9-10.6-16.3c2.9-7-2.6-14-9.4-14.7
		C183.4,96.9,177.6,91.4,175.6,78.2z M153,160.5c9.3,20,18.5,39.7,28,60c9.5-20.5,18.7-40.2,28-60
		C190.2,160.5,171.8,160.5,153,160.5z"/>
</g>
</svg>
