<?xml version="1.0" encoding="utf-8"?>
<!-- Generator: Adobe Illustrator 25.2.1, SVG Export Plug-In . SVG Version: 6.00 Build 0)  -->
<svg version="1.1" id="Layer_1" xmlns="http://www.w3.org/2000/svg" xmlns:xlink="http://www.w3.org/1999/xlink" x="0px" y="0px"
	 viewBox="0 0 300 300" style="enable-background:new 0 0 300 300;" xml:space="preserve">
<style type="text/css">
	.st0{fill:#E93C3C;}
</style>
<g>
	<g>
		<path class="st0" d="M107.1,104c-0.1,0.2-0.2,0.4-0.2,0.6c-1,3.4-4.3,5.2-7.7,4.3c-0.2-0.1-0.4-0.1-0.7-0.2c0,0.4,0,0.7,0,1
			c0,7.3,0,14.6,0,21.9c0,0.3,0,0.6,0,0.9c-0.1,0.7-0.6,1.1-1.4,1.1c-0.7,0-1.1-0.5-1.2-1.2c0-0.3,0-0.6,0-0.9c0-7.8,0-15.6,0-23.3
			c0-0.3,0-0.6,0-1.1c-1.5,1.3-3,2.1-4.8,2c-1.9-0.1-3.4-0.9-4.6-2.3c-1.3,1.5-2.9,2.3-4.8,2.3c-2,0-3.5-0.8-4.8-2.3
			c-2.9,3.1-7,3-9.8,0c-2.8,3.1-7,2.9-9.7,0c-1.3,1.4-2.8,2.3-4.8,2.3c-2,0-3.6-0.8-4.9-2.3c-1.3,1.5-2.9,2.3-4.8,2.3
			c-2,0-3.5-0.8-4.8-2.3c-3,3.1-6.7,2.9-9.5,0.3c0,0.4,0,0.8,0,1.1c0,11.5,0,22.9,0,34.4c0,0.2,0,0.5,0,0.7c0,0.9-0.6,1.5-1.4,1.5
			c-0.8,0-1.2-0.6-1.3-1.5c0-3.3,0-6.7,0-10c0-7.8,0-15.7,0-23.5c0-0.3,0-0.7,0-0.9c-1.2,0.1-2.3,0.3-3.4,0.1
			c-2.5-0.4-4.2-1.9-5-4.4c-0.1-0.2-0.2-0.4-0.2-0.6c0-2.4,0-4.8,0-7.2c2.1-3,4.2-6,6.1-9.1c1.5-2.3,3.2-4.1,6.1-4.5
			c0-2.8,0.1-5.6,0-8.4c-0.1-2.5,0.9-4.2,3.3-5c19.7,0,39.3,0,59,0c2.4,0.8,3.4,2.5,3.2,5c-0.1,1.4,0,2.7,0,4.1c0,1.4,0,2.8,0,4.2
			c2.8,0.3,4.5,2,6,4.3c2,3.1,4.2,6.2,6.3,9.3C107.1,99.2,107.1,101.6,107.1,104z M32,76.2c0.4,0,0.8,0,1.2,0c14.6,0,29.2,0,43.8,0
			c0.4,0,0.8-0.1,1,0.1c0.4,0.3,0.9,0.7,1,1.1c0.2,0.6-0.2,1.1-0.8,1.3c-0.4,0.1-0.8,0.1-1.2,0.1c-14.6,0-29.2,0-43.8,0
			c-0.4,0-0.7,0-1.1,0c0,1.5,0,2.9,0,4.4c20,0,40,0,60,0c0-1.5,0-2.9,0-4.4c-0.4,0-0.7,0-1.1,0c-2.2,0-4.3,0-6.5,0
			c-0.9,0-1.5-0.6-1.5-1.4c0-0.7,0.6-1.2,1.5-1.2c1.9,0,3.9,0,5.8,0c0.6,0,1.2,0,1.8,0c0-0.6,0-1,0-1.5c0-1.8-0.3-2.1-2.2-2.1
			c-18.6,0-37.2,0-55.8,0c-0.3,0-0.5,0-0.8,0c-0.8,0.1-1.3,0.5-1.4,1.3C32,74.6,32,75.3,32,76.2z M49.2,95.9c2.3,0,4.5,0,6.8,0
			c0.2-3.3,0.5-6.6,0.7-10c-1.4,0-2.8,0.1-4.2,0c-0.9-0.1-1.2,0.3-1.4,1.1c-0.4,1.7-0.8,3.4-1.1,5C49.8,93.3,49.5,94.6,49.2,95.9z
			 M67.4,85.9c0.3,3.4,0.5,6.7,0.8,10c2.3,0,4.5,0,6.8,0c-0.2-0.9-0.4-1.8-0.6-2.7c-0.5-2.1-0.9-4.2-1.5-6.3
			c-0.1-0.4-0.4-0.9-0.7-0.9C70.7,85.9,69.1,85.9,67.4,85.9z M65.5,95.9c-0.3-3.4-0.5-6.7-0.8-9.9c-1.8,0-3.5,0-5.3,0
			c-0.3,3.3-0.5,6.6-0.7,9.9C61,95.9,63.2,95.9,65.5,95.9z M84.4,95.9c-0.7-2-1.4-3.9-2.2-5.8c-0.4-1-0.7-2-1.2-3
			c-0.2-0.5-0.7-1.1-1.2-1.1c-1.4-0.1-2.9-0.1-4.4-0.1c0.8,3.4,1.5,6.7,2.3,10C79.9,95.9,82.1,95.9,84.4,95.9z M48.8,85.9
			c-1.1,0-2.1,0-3.2,0c-1.8,0-2.1,0.2-2.7,1.9c-0.9,2.5-1.9,5-2.8,7.5c-0.1,0.2-0.1,0.4-0.2,0.6c2.2,0,4.4,0,6.6,0
			C47.2,92.6,48,89.3,48.8,85.9z M30.4,95.9c2.3,0,4.4,0,6.6,0c1.2-3.3,2.5-6.6,3.7-10c-1,0-1.9,0.1-2.8,0c-1.7-0.2-2.7,0.7-3.5,2.1
			c-1.1,2.1-2.2,4.2-3.3,6.3C30.9,94.8,30.7,95.3,30.4,95.9z M83.5,85.9c1.2,3.3,2.4,6.5,3.6,9.6c0.1,0.2,0.5,0.4,0.7,0.4
			c1.2,0,2.5,0,3.7,0c0.7,0,1.5,0,2.3,0c-1.6-3-3.1-5.8-4.6-8.6c-0.4-0.8-1.1-1.4-2.1-1.4C86,85.9,84.8,85.9,83.5,85.9z M91.6,85.9
			c1.4,2.7,2.9,5.2,4.1,7.9c0.8,1.7,1.8,2.4,3.6,2.2c1.2-0.2,2.5,0,4,0c-2-2.9-3.8-5.7-5.8-8.4c-0.7-1-1.7-1.5-2.9-1.6
			C93.6,85.9,92.7,85.9,91.6,85.9z M21,96c2,0,3.8,0,5.5,0c0.6,0,1-0.2,1.3-0.8c1.5-2.9,3-5.7,4.5-8.5c0.1-0.2,0.2-0.5,0.3-0.8
			c-0.9,0-1.8,0-2.6,0c-1.3,0-2.5,0.5-3.3,1.6C24.8,90.3,22.9,93,21,96z M39.3,98.6c0,1.7-0.1,3.4,0,5c0.1,1.6,1.7,2.8,3.3,2.8
			c1.7,0,3.3-1.1,3.5-2.7c0.2-1.7,0-3.4,0-5.2C43.9,98.6,41.6,98.6,39.3,98.6z M78.1,98.6c0,1.8-0.1,3.5,0,5.1
			c0.2,1.6,1.7,2.7,3.3,2.7c1.6,0,3.3-1,3.5-2.6c0.2-1.7,0-3.5,0-5.3C82.7,98.6,80.4,98.6,78.1,98.6z M26.8,98.6c-2.4,0-4.7,0-7,0
			c0,1.6-0.1,3.2,0,4.8c0.1,1.9,1.8,3.2,3.7,3.1c1.8-0.1,3.2-1.6,3.3-3.4C26.9,101.7,26.8,100.2,26.8,98.6z M97.4,98.6
			c0,1.5,0,3,0,4.4c0,1.8,1.4,3.3,3.2,3.4c1.9,0.1,3.6-1.1,3.7-2.9c0.2-1.6,0-3.2,0-4.9C102.1,98.6,99.8,98.6,97.4,98.6z M58.6,98.6
			c0,1.6,0,3,0,4.5c0,1.7,1.4,3.2,3.1,3.4c1.8,0.2,3.5-0.9,3.8-2.6c0.2-1.7,0-3.5,0-5.2C63.2,98.6,61,98.6,58.6,98.6z M48.9,98.6
			c0,1.5,0,3,0,4.4c0,1.8,1.4,3.3,3.1,3.4c1.9,0.2,3.6-1,3.8-2.9c0.2-1.6,0-3.3,0-5C53.6,98.6,51.3,98.6,48.9,98.6z M75.3,98.7
			c-2.4,0-4.7,0-7,0c0,1.6-0.1,3,0,4.5c0.1,1.8,1.6,3.2,3.4,3.3c1.8,0.1,3.5-1.2,3.6-2.9C75.4,102,75.3,100.3,75.3,98.7z M29.5,98.6
			c0,1.7-0.1,3.3,0,4.9c0.2,1.7,1.7,2.9,3.4,2.9c1.7,0,3.3-1.2,3.5-2.8c0.2-1.7,0-3.4,0-5.1C34.2,98.6,31.9,98.6,29.5,98.6z
			 M87.7,98.6c0,1.6-0.1,3.2,0,4.7c0.1,1.7,1.5,3.1,3.2,3.2c1.8,0.1,3.4-1,3.7-2.7c0.2-1.7,0-3.4,0-5.2
			C92.4,98.6,90.1,98.6,87.7,98.6z"/>
		<path class="st0" d="M17.2,158.1c0.4-0.7,1-0.9,1.8-0.9c2.2,0,4.4,0,6.8,0c0-1.9,0-3.6,0-5.4c0-0.6,0-1.2,0-1.8
			c0-1.1,0.5-1.6,1.3-1.6c0.9,0,1.3,0.6,1.3,1.7c0,1.9,0,3.9,0,5.8c0,0.4,0,0.8,0,1.3c0.6,0,1.2,0,1.9,0c0-0.7,0-1.4,0-2.2
			c0-2.1,0.4-2.6,2.5-3.1c0-0.3,0-0.7,0-1c0-9.7,0-19.4,0-29.1c0-2.7,1.1-3.7,3.7-3.7c4.9,0,9.8,0,14.7,0c2.4,0,3.5,1.1,3.5,3.5
			c0,1.8,0,3.7,0,5.5c0,1-0.5,1.6-1.3,1.6c-0.8,0-1.3-0.6-1.3-1.6c0-1.8,0-3.7,0-5.5c0-0.6-0.1-0.9-0.8-0.9c-5,0-10,0-15,0
			c-0.9,0-0.8,0.5-0.8,1.1c0,8.2,0,16.4,0,24.6c0,1.9,0,3.7,0,5.6c5.6,0,11.1,0,16.6,0c0-0.4,0-0.7,0-1c0-5.6,0-11.2,0-16.8
			c0-0.3,0-0.7,0.1-1c0.2-0.6,0.7-1,1.3-0.9c0.7,0.1,1.1,0.5,1.2,1.1c0,0.3,0,0.6,0,0.9c0,5.6,0,11.1,0,16.7c0,0.3,0,0.6,0,1
			c0.2,0,0.4,0.1,0.5,0.1c1.3,0.2,2,0.9,2,2.2c0,0.9,0,1.9,0,2.9c1.7,0,3.4,0,5.1,0c0-0.3,0-0.7,0-1c0-8.4,0-16.8,0-25.2
			c0-0.3,0-0.6,0-0.9c0.1-0.7,0.5-1.1,1.2-1.1c0.8,0,1.2,0.4,1.3,1.1c0.1,0.3,0,0.5,0,0.8c0,5.1,0,10.2,0,15.3c0,0.3,0,0.6,0,1.1
			c0.3,0,0.6,0,0.9,0c2,0,4.1,0,6.1,0c1.7,0,2.5,0.9,2.6,2.5c0,2.1,0,4.3,0,6.4c0,0.3,0,0.6,0,1c0.9,0,1.6,0,2.5,0c0-0.3,0-0.7,0-1
			c0.1-0.7,0.5-1.1,1.2-1.2c0.7-0.1,1.1,0.3,1.3,0.9c0.2,0.6,0.2,1.4,1.1,1.3c1-0.1,0.8-1,0.8-1.7c0-3.4,0-6.7,0-10.1
			c0-0.3,0-0.6,0-1c-1.2,0-2.4,0-3.5,0c-2,0-4,0-6,0c-2.2,0-3.9-1.7-3.9-3.9c-0.1-2.7,0.2-3,2.9-3c2,0,4.1,0,6.2,0
			c0.1-0.4,0.2-0.7,0.3-1.1c0.6-1.9,1.8-3.4,3.7-4.2c0.3-0.1,0.5-0.4,0.7-0.6c0.6-0.8,1.6-0.8,2.2,0c0.1,0.2,0.3,0.5,0.5,0.5
			c2.3,0.9,3.5,2.7,4.1,4.9c0,0.1,0.1,0.2,0.1,0.4c2,0,4.1,0,6.1,0c0.4,0,0.8,0,1.1,0c0.8,0.1,1.4,0.5,1.5,1.4
			c0.5,3.9-1.9,5.7-4.6,5.6c-2.8-0.1-5.7,0-8.5,0c-0.1,0-0.1,0-0.2,0.1c0,0.2-0.1,0.4-0.1,0.6c0,3.6,0,7.1,0,10.7c0,0.1,0,0.2,0,0.4
			c0,0.6,0.3,1,0.9,1c0.6,0,0.9-0.3,1-0.9c0.2-1,0.8-1.5,1.6-1.3c0.6,0.2,1,0.6,1,1.3c0,0.3,0,0.6-0.1,0.9c0.9,0,1.8,0,2.8,0
			c0-0.3,0-0.6,0-0.9c0-2.2,0-4.4,0-6.6c0-1.6,0.9-2.4,2.5-2.4c2,0,4.1,0,6.1,0c0.3,0,0.6,0,0.9,0c0-0.4,0-0.8,0-1.1
			c0-5.1,0-10.2,0-15.3c0-0.3,0-0.7,0.1-1c0.2-0.6,0.8-1,1.4-0.8c0.4,0.2,0.8,0.6,1.1,1c0.2,0.2,0,0.6,0,0.9c0,8.4,0,16.7,0,25.1
			c0,0.3,0,0.7,0,1.1c1.2,0.2,2.5-0.4,3.3,1c0,0.6,0,1.2,0,1.8c-30,0-59.9,0-89.9,0C17.2,159.3,17.2,158.7,17.2,158.1z M54.7,154.8
			c-7.3,0-14.5,0-21.7,0c0,0.8,0,1.6,0,2.4c7.3,0,14.5,0,21.7,0C54.7,156.3,54.7,155.6,54.7,154.8z M72,157.2c0-2.5,0-4.9,0-7.3
			c-2.3,0-4.6,0-6.8,0c0,2.5,0,4.9,0,7.3C67.5,157.2,69.7,157.2,72,157.2z M101.1,157.2c0-2.5,0-4.9,0-7.3c-2.3,0-4.5,0-6.8,0
			c0,2.5,0,4.9,0,7.3C96.6,157.2,98.8,157.2,101.1,157.2z M95,140.2c-8,0-16.1,0-24.1,0c0,1.1,0.5,1.6,1.5,1.6c7.1,0,14.1,0,21.2,0
			C94.5,141.8,95,141.3,95,140.2z M86.1,137.5c-0.5-1.9-1.8-3-3.3-2.9c-1.3,0.1-2.5,1.4-2.6,2.9C82.2,137.5,84.1,137.5,86.1,137.5z"
			/>
		<path class="st0" d="M49.8,136.8c0,0.7-0.5,1.3-1.2,1.3c-0.7,0-1.4-0.6-1.4-1.3c0-0.7,0.6-1.3,1.3-1.3
			C49.2,135.5,49.8,136.1,49.8,136.8z"/>
	</g>
	<g>
		<path class="st0" d="M282.8,174.2c-0.1,0.2-0.2,0.4-0.2,0.6c-1,3.4-4.3,5.2-7.7,4.3c-0.2-0.1-0.4-0.1-0.7-0.2c0,0.4,0,0.7,0,1
			c0,7.3,0,14.6,0,21.9c0,0.3,0,0.6,0,0.9c-0.1,0.7-0.6,1.1-1.4,1.1c-0.7,0-1.1-0.5-1.2-1.2c0-0.3,0-0.6,0-0.9c0-7.8,0-15.6,0-23.3
			c0-0.3,0-0.6,0-1.1c-1.5,1.3-3,2.1-4.8,2c-1.9-0.1-3.4-0.9-4.6-2.3c-1.3,1.5-2.9,2.3-4.8,2.3c-2,0-3.5-0.8-4.8-2.3
			c-2.9,3.1-7,3-9.8,0c-2.8,3.1-7,2.9-9.7,0c-1.3,1.4-2.8,2.3-4.8,2.3c-2,0-3.6-0.8-4.9-2.3c-1.3,1.5-2.9,2.3-4.8,2.3
			c-2,0-3.5-0.8-4.8-2.3c-3,3.1-6.7,2.9-9.5,0.3c0,0.4,0,0.8,0,1.1c0,11.5,0,22.9,0,34.4c0,0.2,0,0.5,0,0.7c0,0.9-0.6,1.5-1.4,1.5
			c-0.8,0-1.2-0.6-1.3-1.5c0-3.3,0-6.7,0-10c0-7.8,0-15.7,0-23.5c0-0.3,0-0.7,0-0.9c-1.2,0.1-2.3,0.3-3.4,0.1
			c-2.5-0.4-4.2-1.9-5-4.4c-0.1-0.2-0.2-0.4-0.2-0.6c0-2.4,0-4.8,0-7.2c2.1-3,4.2-6,6.1-9.1c1.5-2.3,3.2-4.1,6.1-4.5
			c0-2.8,0.1-5.6,0-8.4c-0.1-2.5,0.9-4.2,3.3-5c19.7,0,39.3,0,59,0c2.4,0.8,3.4,2.5,3.2,5c-0.1,1.4,0,2.7,0,4.1c0,1.4,0,2.8,0,4.2
			c2.8,0.3,4.5,2,6,4.3c2,3.1,4.2,6.2,6.3,9.3C282.8,169.4,282.8,171.8,282.8,174.2z M207.8,146.4c0.4,0,0.8,0,1.2,0
			c14.6,0,29.2,0,43.8,0c0.4,0,0.8-0.1,1,0.1c0.4,0.3,0.9,0.7,1,1.1c0.2,0.6-0.2,1.1-0.8,1.3c-0.4,0.1-0.8,0.1-1.2,0.1
			c-14.6,0-29.2,0-43.8,0c-0.4,0-0.7,0-1.1,0c0,1.5,0,2.9,0,4.4c20,0,40,0,60,0c0-1.5,0-2.9,0-4.4c-0.4,0-0.7,0-1.1,0
			c-2.2,0-4.3,0-6.5,0c-0.9,0-1.5-0.6-1.5-1.4c0-0.7,0.6-1.2,1.5-1.2c1.9,0,3.9,0,5.8,0c0.6,0,1.2,0,1.8,0c0-0.6,0-1,0-1.5
			c0-1.8-0.3-2.1-2.2-2.1c-18.6,0-37.2,0-55.8,0c-0.3,0-0.5,0-0.8,0c-0.8,0.1-1.3,0.5-1.4,1.3C207.8,144.8,207.8,145.5,207.8,146.4z
			 M225,166.1c2.3,0,4.5,0,6.8,0c0.2-3.3,0.5-6.6,0.7-10c-1.4,0-2.8,0.1-4.2,0c-0.9-0.1-1.2,0.3-1.4,1.1c-0.4,1.7-0.8,3.4-1.1,5
			C225.6,163.5,225.3,164.8,225,166.1z M243.2,156.1c0.3,3.4,0.5,6.7,0.8,10c2.3,0,4.5,0,6.8,0c-0.2-0.9-0.4-1.8-0.6-2.7
			c-0.5-2.1-0.9-4.2-1.5-6.3c-0.1-0.4-0.4-0.9-0.7-0.9C246.5,156,244.9,156.1,243.2,156.1z M241.3,166.1c-0.3-3.4-0.5-6.7-0.8-9.9
			c-1.8,0-3.5,0-5.3,0c-0.3,3.3-0.5,6.6-0.7,9.9C236.8,166.1,239,166.1,241.3,166.1z M260.2,166.1c-0.7-2-1.4-3.9-2.2-5.8
			c-0.4-1-0.7-2-1.2-3c-0.2-0.5-0.7-1.1-1.2-1.1c-1.4-0.1-2.9-0.1-4.4-0.1c0.8,3.4,1.5,6.7,2.3,10
			C255.7,166.1,257.9,166.1,260.2,166.1z M224.5,156.1c-1.1,0-2.1,0-3.2,0c-1.8,0-2.1,0.2-2.7,1.9c-0.9,2.5-1.9,5-2.8,7.5
			c-0.1,0.2-0.1,0.4-0.2,0.6c2.2,0,4.4,0,6.6,0C223,162.8,223.8,159.5,224.5,156.1z M206.1,166.1c2.3,0,4.4,0,6.6,0
			c1.2-3.3,2.5-6.6,3.7-10c-1,0-1.9,0.1-2.8,0c-1.7-0.2-2.7,0.7-3.5,2.1c-1.1,2.1-2.2,4.2-3.3,6.3
			C206.7,165,206.5,165.5,206.1,166.1z M259.2,156.1c1.2,3.3,2.4,6.5,3.6,9.6c0.1,0.2,0.5,0.4,0.7,0.4c1.2,0,2.5,0,3.7,0
			c0.7,0,1.5,0,2.3,0c-1.6-3-3.1-5.8-4.6-8.6c-0.4-0.8-1.1-1.4-2.1-1.4C261.8,156.1,260.6,156.1,259.2,156.1z M267.3,156.1
			c1.4,2.7,2.9,5.2,4.1,7.9c0.8,1.7,1.8,2.4,3.6,2.2c1.2-0.2,2.5,0,4,0c-2-2.9-3.8-5.7-5.8-8.4c-0.7-1-1.7-1.5-2.9-1.6
			C269.4,156.1,268.4,156.1,267.3,156.1z M196.7,166.1c2,0,3.8,0,5.5,0c0.6,0,1-0.2,1.3-0.8c1.5-2.9,3-5.7,4.5-8.5
			c0.1-0.2,0.2-0.5,0.3-0.8c-0.9,0-1.8,0-2.6,0c-1.3,0-2.5,0.5-3.3,1.6C200.6,160.4,198.7,163.2,196.7,166.1z M215,168.8
			c0,1.7-0.1,3.4,0,5c0.1,1.6,1.7,2.8,3.3,2.8c1.7,0,3.3-1.1,3.5-2.7c0.2-1.7,0-3.4,0-5.2C219.7,168.8,217.4,168.8,215,168.8z
			 M253.9,168.8c0,1.8-0.1,3.5,0,5.1c0.2,1.6,1.7,2.7,3.3,2.7c1.6,0,3.3-1,3.5-2.6c0.2-1.7,0-3.5,0-5.3
			C258.4,168.8,256.2,168.8,253.9,168.8z M202.6,168.8c-2.4,0-4.7,0-7,0c0,1.6-0.1,3.2,0,4.8c0.1,1.9,1.8,3.2,3.7,3.1
			c1.8-0.1,3.2-1.6,3.3-3.4C202.6,171.8,202.6,170.4,202.6,168.8z M273.2,168.8c0,1.5,0,3,0,4.4c0,1.8,1.4,3.3,3.2,3.4
			c1.9,0.1,3.6-1.1,3.7-2.9c0.2-1.6,0-3.2,0-4.9C277.8,168.8,275.6,168.8,273.2,168.8z M234.4,168.8c0,1.6,0,3,0,4.5
			c0,1.7,1.4,3.2,3.1,3.4c1.8,0.2,3.5-0.9,3.8-2.6c0.2-1.7,0-3.5,0-5.2C239,168.8,236.7,168.8,234.4,168.8z M224.7,168.8
			c0,1.5,0,3,0,4.4c0,1.8,1.4,3.3,3.1,3.4c1.9,0.2,3.6-1,3.8-2.9c0.2-1.6,0-3.3,0-5C229.4,168.8,227.1,168.8,224.7,168.8z
			 M251.1,168.8c-2.4,0-4.7,0-7,0c0,1.6-0.1,3,0,4.5c0.1,1.8,1.6,3.2,3.4,3.3c1.8,0.1,3.5-1.2,3.6-2.9
			C251.2,172.1,251.1,170.5,251.1,168.8z M205.3,168.8c0,1.7-0.1,3.3,0,4.9c0.2,1.7,1.7,2.9,3.4,2.9c1.7,0,3.3-1.2,3.5-2.8
			c0.2-1.7,0-3.4,0-5.1C209.9,168.8,207.6,168.8,205.3,168.8z M263.5,168.8c0,1.6-0.1,3.2,0,4.7c0.1,1.7,1.5,3.1,3.2,3.2
			c1.8,0.1,3.4-1,3.7-2.7c0.2-1.7,0-3.4,0-5.2C268.1,168.8,265.9,168.8,263.5,168.8z"/>
		<path class="st0" d="M192.9,228.3c0.4-0.7,1-0.9,1.8-0.9c2.2,0,4.4,0,6.8,0c0-1.9,0-3.6,0-5.4c0-0.6,0-1.2,0-1.8
			c0-1.1,0.5-1.6,1.3-1.6c0.9,0,1.3,0.6,1.3,1.7c0,1.9,0,3.9,0,5.8c0,0.4,0,0.8,0,1.3c0.6,0,1.2,0,1.9,0c0-0.7,0-1.4,0-2.2
			c0-2.1,0.4-2.6,2.5-3.1c0-0.3,0-0.7,0-1c0-9.7,0-19.4,0-29.1c0-2.7,1.1-3.7,3.7-3.7c4.9,0,9.8,0,14.7,0c2.4,0,3.5,1.1,3.5,3.5
			c0,1.8,0,3.7,0,5.5c0,1-0.5,1.6-1.3,1.6c-0.8,0-1.3-0.6-1.3-1.6c0-1.8,0-3.7,0-5.5c0-0.6-0.1-0.9-0.8-0.9c-5,0-10,0-15,0
			c-0.9,0-0.8,0.5-0.8,1.1c0,8.2,0,16.4,0,24.6c0,1.9,0,3.7,0,5.6c5.6,0,11.1,0,16.6,0c0-0.4,0-0.7,0-1c0-5.6,0-11.2,0-16.8
			c0-0.3,0-0.7,0.1-1c0.2-0.6,0.7-1,1.3-0.9c0.7,0.1,1.1,0.5,1.2,1.1c0,0.3,0,0.6,0,0.9c0,5.6,0,11.1,0,16.7c0,0.3,0,0.6,0,1
			c0.2,0,0.4,0.1,0.5,0.1c1.3,0.2,2,0.9,2,2.2c0,0.9,0,1.9,0,2.9c1.7,0,3.4,0,5.1,0c0-0.3,0-0.7,0-1c0-8.4,0-16.8,0-25.2
			c0-0.3,0-0.6,0-0.9c0.1-0.7,0.5-1.1,1.2-1.1c0.8,0,1.2,0.4,1.3,1.1c0.1,0.3,0,0.5,0,0.8c0,5.1,0,10.2,0,15.3c0,0.3,0,0.6,0,1.1
			c0.3,0,0.6,0,0.9,0c2,0,4.1,0,6.1,0c1.7,0,2.5,0.9,2.6,2.5c0,2.1,0,4.3,0,6.4c0,0.3,0,0.6,0,1c0.9,0,1.6,0,2.5,0c0-0.3,0-0.7,0-1
			c0.1-0.7,0.5-1.1,1.2-1.2c0.7-0.1,1.1,0.3,1.3,0.9c0.2,0.6,0.2,1.4,1.1,1.3c1-0.1,0.8-1,0.8-1.7c0-3.4,0-6.7,0-10.1
			c0-0.3,0-0.6,0-1c-1.2,0-2.4,0-3.5,0c-2,0-4,0-6,0c-2.2,0-3.9-1.7-3.9-3.9c-0.1-2.7,0.2-3,2.9-3c2,0,4.1,0,6.2,0
			c0.1-0.4,0.2-0.7,0.3-1.1c0.6-1.9,1.8-3.4,3.7-4.2c0.3-0.1,0.5-0.4,0.7-0.6c0.6-0.8,1.6-0.8,2.2,0c0.1,0.2,0.3,0.5,0.5,0.5
			c2.3,0.9,3.5,2.7,4.1,4.9c0,0.1,0.1,0.2,0.1,0.4c2,0,4.1,0,6.1,0c0.4,0,0.8,0,1.1,0c0.8,0.1,1.4,0.5,1.5,1.4
			c0.5,3.9-1.9,5.7-4.6,5.6c-2.8-0.1-5.7,0-8.5,0c-0.1,0-0.1,0-0.2,0.1c0,0.2-0.1,0.4-0.1,0.6c0,3.6,0,7.1,0,10.7c0,0.1,0,0.2,0,0.4
			c0,0.6,0.3,1,0.9,1c0.6,0,0.9-0.3,1-0.9c0.2-1,0.8-1.5,1.6-1.3c0.6,0.2,1,0.6,1,1.3c0,0.3,0,0.6-0.1,0.9c0.9,0,1.8,0,2.8,0
			c0-0.3,0-0.6,0-0.9c0-2.2,0-4.4,0-6.6c0-1.6,0.9-2.4,2.5-2.4c2,0,4.1,0,6.1,0c0.3,0,0.6,0,0.9,0c0-0.4,0-0.8,0-1.1
			c0-5.1,0-10.2,0-15.3c0-0.3,0-0.7,0.1-1c0.2-0.6,0.8-1,1.4-0.8c0.4,0.2,0.8,0.6,1.1,1c0.2,0.2,0,0.6,0,0.9c0,8.4,0,16.7,0,25.1
			c0,0.3,0,0.7,0,1.1c1.2,0.2,2.5-0.4,3.3,1c0,0.6,0,1.2,0,1.8c-30,0-59.9,0-89.9,0C192.9,229.5,192.9,228.9,192.9,228.3z
			 M230.4,225c-7.3,0-14.5,0-21.7,0c0,0.8,0,1.6,0,2.4c7.3,0,14.5,0,21.7,0C230.4,226.5,230.4,225.7,230.4,225z M247.8,227.4
			c0-2.5,0-4.9,0-7.3c-2.3,0-4.6,0-6.8,0c0,2.5,0,4.9,0,7.3C243.2,227.4,245.5,227.4,247.8,227.4z M276.8,227.4c0-2.5,0-4.9,0-7.3
			c-2.3,0-4.5,0-6.8,0c0,2.5,0,4.9,0,7.3C272.3,227.4,274.5,227.4,276.8,227.4z M270.8,210.4c-8,0-16.1,0-24.1,0
			c0,1.1,0.5,1.6,1.5,1.6c7.1,0,14.1,0,21.2,0C270.3,211.9,270.7,211.5,270.8,210.4z M261.9,207.6c-0.5-1.9-1.8-3-3.3-2.9
			c-1.3,0.1-2.5,1.4-2.6,2.9C257.9,207.6,259.9,207.6,261.9,207.6z"/>
		<path class="st0" d="M225.6,206.9c0,0.7-0.5,1.3-1.2,1.3c-0.7,0-1.4-0.6-1.4-1.3c0-0.7,0.6-1.3,1.3-1.3
			C225,205.7,225.6,206.2,225.6,206.9z"/>
	</g>
	<g>
		<path class="st0" d="M159.1,108.3c4.9,0,9.9,0,14.8,0c0.8,0.5,1.2,1.2,1.1,2.1c-0.1,0.8,0,1.7,0,2.6c4.3,0,8.4,0,12.5,0
			c3,0,4.9,2,5,4.9c0,7.6,0,15.1,0,22.7c0,3.3-1.5,5.9-4.2,7.7c-0.5,0.3-0.6,0.6-0.6,1.1c0,11.6,0,23.2,0,34.8c0,0.3,0,0.5,0,0.8
			c1.2,0,2.3,0,3.3,0c0.9,0,1.5,0.7,1.5,1.6c0,0.8-0.6,1.5-1.5,1.5c-0.2,0-0.4,0-0.6,0c-25.2,0-50.5,0-75.7,0c-1,0-1.7-0.3-2.1-1.1
			c0-0.3,0-0.6,0-0.9c0.5-0.8,1.2-1.2,2.1-1.1c0.9,0.1,1.8,0,2.7,0c0-0.2,0-0.3,0-0.4c0-11.8,0-23.7,0-35.5c0-0.3-0.2-0.7-0.5-0.8
			c-1.9-1.3-3.3-3-3.9-5.2c-0.1-0.5-0.3-0.9-0.4-1.4c0-8.3,0-16.6,0-25c0.8-2.9,2.8-4,5.7-3.9c3.6,0.1,7.2,0,10.8,0
			c0.3,0,0.6,0,0.9,0c0-0.9,0-1.7,0-2.6c-0.1-1,0.3-1.7,1.1-2.1c4.9,0,9.9,0,14.8,0c0.9,0.6,1.2,1.2,1,2c-0.2,0.8-0.8,1.2-2,1.2
			c-3.6,0-7.3,0-10.9,0c-0.3,0-0.5,0-0.8,0c0,3.5,0,6.9,0,10.3c12.9,0,25.7,0,38.6,0c0-3.4,0-6.8,0-10.3c-0.3,0-0.6,0-0.9,0
			c-3.7,0-7.4,0-11.2,0c-1.1,0-1.8-0.7-1.8-1.6C158,109.1,158.5,108.7,159.1,108.3z M184.5,185.1c0-11.8,0-23.5,0-35.3
			c-3.7,0.3-6.6-1-8.9-3.9c-2,2.6-4.5,4-7.7,4c-3.2,0-5.7-1.5-7.7-4c-2,2.6-4.6,4-7.8,4c-3.2,0-5.8-1.5-7.7-4
			c-3.6,5-11.1,5.6-15.4,0.1c-2.2,2.9-5.2,4.2-8.8,3.9c0,11.8,0,23.5,0,35.3c1,0,2,0,3.1,0c0-0.4,0-0.7,0-1c0-8.7,0-17.3,0-26
			c0-1.5,0.5-2,2-2c4.5,0,9,0,13.5,0c1.6,0,2.1,0.5,2.1,2.1c0,8.6,0,17.3,0,25.9c0,0.3,0,0.6,0,0.9
			C155.7,185.1,170,185.1,184.5,185.1z M189.3,128c0-0.3,0-0.5,0-0.7c0-3,0-6.1,0-9.1c0-1.4-0.5-2-2-2c-3.9,0-7.8,0-11.6,0
			c-0.2,0-0.5,0-0.8,0c0,0.3,0,0.6,0,0.8c0,2,0,4.1,0,6.1c0,1.2-0.6,1.8-1.8,1.8c-13.8,0-27.5,0-41.3,0c-1.3,0-1.8-0.6-1.8-1.9
			c0-2,0-4.1,0-6.1c0-0.2,0-0.5,0-0.8c-4.2,0-8.3,0-12.4,0c-1.4,0-1.9,0.6-1.9,2c0,3,0,6.1,0,9.1c0,0.2,0,0.5,0,0.8
			C140.3,128,164.7,128,189.3,128z M146.3,131.2c0,3.2,0,6.3,0,9.4c0,3.4,2.8,6.2,6.2,6.2c3.5,0,6.3-2.7,6.3-6.2c0-2.9,0-5.8,0-8.7
			c0-0.2,0-0.5,0-0.7C154.6,131.2,150.5,131.2,146.3,131.2z M138.1,159.3c-3.8,0-7.6,0-11.3,0c0,5.2,0,10.4,0,15.5
			c3.8,0,7.6,0,11.3,0C138.1,169.6,138.1,164.4,138.1,159.3z M115.7,131.2c0,3.2,0,6.3,0,9.4c0,3.5,2.7,6.2,6.1,6.2
			c3.4,0,6.1-2.7,6.1-6.2c0-2.9,0-5.8,0-8.7c0-0.2,0-0.4,0-0.7C123.7,131.2,119.7,131.2,115.7,131.2z M131,131.2c0,0.3,0,0.5,0,0.7
			c0,2.9,0,5.8,0,8.7c0,3.5,2.7,6.2,6.1,6.2c3.4,0,6.1-2.7,6.1-6.2c0-2.9,0-5.8,0-8.7c0-0.2,0-0.4,0-0.7
			C139,131.2,135,131.2,131,131.2z M161.9,131.2c0,0.2,0,0.2,0,0.3c0,3,0,6,0,9c0,3.5,2.7,6.2,6.1,6.2c3.4,0,6.1-2.7,6.1-6.2
			c0-2.9,0-5.8,0-8.7c0-0.2,0-0.4,0-0.7C169.9,131.2,165.9,131.2,161.9,131.2z M177.2,131.2c0,0.3,0,0.5,0,0.7c0,2.9,0,5.9,0,8.8
			c0,3.4,2.7,6.1,6.1,6.1c3.4,0,6-2.7,6.1-6c0-3,0-6,0-9c0-0.2,0-0.3,0-0.6C185.3,131.2,181.3,131.2,177.2,131.2z M138.1,185.1
			c0-2.4,0-4.8,0-7.1c-3.8,0-7.6,0-11.3,0c0,2.4,0,4.7,0,7.1C130.6,185.1,134.3,185.1,138.1,185.1z"/>
		<path class="st0" d="M153,108.3c0.1,0.1,0.3,0.2,0.4,0.3c0.6,0.4,0.9,1,0.6,1.8c-0.2,0.7-0.8,1.1-1.5,1.1c-0.7,0-1.2-0.4-1.4-1.1
			c-0.2-0.7,0-1.3,0.6-1.8c0.1-0.1,0.2-0.2,0.4-0.3C152.3,108.3,152.7,108.3,153,108.3z"/>
		<path class="st0" d="M163.7,177.9c-5.2,0-10.4,0-15.6,0c-1.5,0-2-0.5-2-2.1c0-5.9,0-11.9,0-17.8c0-1.5,0.5-2,2-2
			c10.4,0,20.8,0,31.2,0c1.5,0,2,0.5,2,2.1c0,5.9,0,11.8,0,17.7c0,1.6-0.5,2.1-2.1,2.1C174.1,177.9,168.9,177.9,163.7,177.9z
			 M159,171.7c0,1.1,0,2.1,0,3.1c3.2,0,6.4,0,9.6,0c0-1,0-2,0-3.1c-0.5,0-0.9,0-1.4,0c-1,0-1.7-0.6-1.7-1.5c0-0.9,0.7-1.6,1.7-1.6
			c2.1,0,4.1,0,6.2,0c1,0,1.7,0.7,1.7,1.6c0,0.9-0.7,1.5-1.7,1.5c-0.5,0-1,0-1.5,0c0,1.1,0,2.1,0,3.1c2.2,0,4.3,0,6.5,0
			c0-5.2,0-10.4,0-15.5c-9.7,0-19.3,0-28.9,0c0,5.2,0,10.4,0,15.5c2.2,0,4.3,0,6.5,0c0-1,0-2,0-3.1c-0.6,0-1.1,0-1.7,0
			c-0.9,0-1.6-0.7-1.6-1.6c0-0.8,0.7-1.5,1.6-1.5c2.2,0,4.4,0,6.6,0c0.9,0,1.5,0.7,1.5,1.5c0,0.8-0.6,1.5-1.5,1.6
			C160.1,171.7,159.6,171.7,159,171.7z"/>
	</g>
</g>
</svg>
