<?xml version="1.0" encoding="utf-8"?>
<!-- Generator: Adobe Illustrator 25.2.1, SVG Export Plug-In . SVG Version: 6.00 Build 0)  -->
<svg version="1.1" id="Layer_1" xmlns="http://www.w3.org/2000/svg" xmlns:xlink="http://www.w3.org/1999/xlink" x="0px" y="0px"
	 viewBox="0 0 300 300" style="enable-background:new 0 0 300 300;" xml:space="preserve">
<style type="text/css">
	.st0{fill:#E93C3C;}
</style>
<g>
	<path class="st0" d="M240.9,262.7c5.8,2.5,7.1,4.4,7.1,10.7c0,1.4,0,2.7,0,4.1c-0.2,4.3-3.5,7.6-7.8,7.9c-0.9,0.1-1.8,0.1-2.7,0.1
		c-58.3,0-116.7,0-175,0c-2.7,0-5.3-0.1-7.4-1.9c-0.5-0.4-0.9-0.9-1.3-1.4c-3.6-4.6-2.2-14.5,2.4-18.2c0.8-0.6,1.2-2.1,1.2-3.2
		c0.1-23.5,0-47.1,0-70.6c0-13.6,0-27.2,0-40.8c0-1.8-0.5-2.8-2.2-3.8c-5.2-2.9-7.8-7.6-8-13.5c-0.1-4.1-0.1-8.3,0-12.4
		c0-0.8,0.2-1.6,0.4-2.4c3-9.4,6-18.9,8.9-28.3c0.8-2.8,2.3-3.9,5.3-3.8c6,0.2,12.1,0.1,18.3,0.1c0-3,0-5.8,0-8.8
		c-1.8-0.2-3.6-0.3-5.3-0.6c-8.5-1.8-15.5-8.4-16.2-17.1c-0.7-8.8-0.8-17.9,0-26.7c0.9-9.8,9.7-16.9,19.6-17.2
		c5.9-0.2,11.9-0.1,17.8-0.1c41.1,0,82.2,0,123.3,0c9.4,0,16.5,3.6,20.5,12.2c1.3,2.8,1.8,6,2,9.1c0.3,6.1,0.1,12.3,0.1,18.4
		c-0.1,12.2-8,20.7-20.2,21.8c-0.6,0.1-1.2,0.2-2,0.3c0,2.8,0,5.6,0,8.7c5.1,0,10.3,0,15.4,0c4.8,0,4.9,0,6.6,4.6
		c3.5,9.2,7,18.3,10.5,27.5c0.3,0.8,0.5,1.7,0.5,2.6c0,4.1,0,8.3,0,12.4c-0.1,6.6-3.8,12.1-10,14.4c-1.5,0.6-2.1,1.1-2.1,2.8
		c0.1,37.2,0,74.5,0,111.7C240.8,261.6,240.8,262.2,240.9,262.7z M76.8,141.6c-3.5,4.3-8.1,6.1-13.2,6.2c0,38.5,0,76.6,0,114.9
		c57,0,113.8,0,171,0c0-1.2,0-2.3,0-3.3c0-36.2,0-72.5,0-108.7c0-0.5,0.2-1.2,0-1.6c-0.3-0.7-0.7-1.5-1.3-1.9
		c-2.8-1.7-5.7-3.3-8.8-5c-2.8,3.4-6.9,5.6-12,5.6c-5,0-9.1-2.3-12.3-6.1c-8.4,8.1-15.7,8.1-25,0.2c-8.3,7.9-14.9,7.9-24.8,0.1
		c-3.1,3.7-7.1,5.8-12,5.8c-4.8,0-8.8-2.3-11.8-5.9c-6.7,7.3-17.1,8.4-24.9,0C94.6,149.4,84.7,149.9,76.8,141.6z M149.9,70
		c23.4,0,46.9,0,70.3,0c9.1,0,15.3-6,15.5-15.1c0.1-6.3,0.1-12.6,0-18.9c-0.2-9.1-6.4-15.1-15.5-15.1c-46.8,0-93.6,0-140.3,0
		c-9.3,0-15.6,6.2-15.7,15.6c-0.1,5.9-0.1,11.9,0,17.8c0.1,9.7,6.2,15.8,16,15.8C103.4,70,126.6,70,149.9,70z M150.3,269
		C150.3,269,150.3,269,150.3,269c-28.7,0-57.5,0-86.2,0c-1.1,0-2.2,0-3.2,0c-1.8,0-2.6,0.9-2.7,2.6c0,0.5,0,1.1,0,1.6c0,6,0,6,5.9,6
		c57.2,0,114.4,0,171.7,0c6.3,0,6.3,0,6.2-6.2c0-3.7-0.4-4.1-4-4.1C208.7,269,179.5,269,150.3,269z M193.5,76.3c-29.1,0-58,0-87.1,0
		c0,2.9,0,5.7,0,8.6c29.1,0,58,0,87.1,0C193.5,82,193.5,79.2,193.5,76.3z M80.4,91.2c-5.6,0-10.8,0.1-16,0c-1.6,0-2.3,0.5-2.8,2.1
		c-2,6.6-4.2,13.2-6.2,19.8c-0.3,0.9-0.5,1.8-0.8,3.1c6.5,0,12.7,0,18.9-0.1c0.5,0,1.2-0.9,1.4-1.5c0.8-2.8,1.4-5.6,2.1-8.4
		C78.1,101.3,79.2,96.4,80.4,91.2z M105.1,115.9c6.3,0,12.3,0,18.6,0c0.3-8.2,0.6-16.3,0.8-24.5c-5.5,0-10.7,0-16.1,0
		C107.2,99.6,106.1,107.7,105.1,115.9z M171.7,116c-0.9-8.4-1.8-16.5-2.7-24.6c-5.5,0-10.7,0-15.7,0c0,8.3,0,16.4,0,24.6
		C159.6,116,165.4,116,171.7,116z M196.3,115.9c-1.6-8.1-3.2-15.9-4.8-23.6c-0.1-0.5-0.9-1.2-1.4-1.2c-4.8-0.1-9.7-0.1-14.8-0.1
		c0.9,8.5,1.8,16.7,2.7,24.8C184.2,115.9,190,115.9,196.3,115.9z M220.7,115.9c-2.3-8-4.6-15.8-6.9-23.5c-0.2-0.5-1-1.2-1.5-1.2
		c-4.8-0.1-9.7-0.1-14.8-0.1c1.7,8.5,3.4,16.5,5,24.7C208.6,115.9,214.4,115.9,220.7,115.9z M245.3,116c-3.1-8-6.1-15.8-9.1-23.6
		c-0.2-0.5-0.8-1.1-1.3-1.1c-4.8-0.1-9.6,0-14.5,0c0,0.6-0.1,0.9-0.1,1.1c2.1,7.4,4.3,14.9,6.5,22.3c0.2,0.6,1.2,1.3,1.9,1.3
		C234.1,116,239.5,116,245.3,116z M130.3,91.3c0,8.3,0,16.4,0,24.6c5.4,0,11.1,0,16.5,0c0-8.3,0-16.3,0-24.6
		C141.3,91.3,136.1,91.3,130.3,91.3z M81,115.8c6.1,0,11.9,0,17.8,0c1.1-8.3,2.1-16.3,3.2-24.5c-5.3,0-10.2,0-15.2,0
		C84.9,99.5,83,107.6,81,115.8z M53.6,122.5c0,4-0.4,7.9,0.1,11.6c0.7,4.7,4.7,7.3,9.9,7.3c5,0,9.3-2.7,9.9-7
		c0.5-3.8,0.1-7.8,0.1-11.9C66.9,122.5,60.2,122.5,53.6,122.5z M123.4,122.5c-6.4,0-12.5,0-18.8,0c0,2.9,0,5.6,0,8.2
		c0,0.9,0,1.8,0.1,2.7c0.7,4.6,4.5,8,9.1,8c4.7,0.1,9-3.1,9.5-7.6C123.7,130.2,123.4,126.4,123.4,122.5z M203,122.4c0,2.8,0,5.4,0,8
		c0,1,0,2,0.1,3c0.6,4.5,4.3,7.9,8.7,8.1c4.7,0.2,8.9-2.5,9.5-7c0.5-3.9,0.1-8,0.1-12.1C215.5,122.4,209.5,122.4,203,122.4z
		 M228.1,122.5c0,3.9-0.3,7.6,0.1,11.2c0.4,4.2,4.1,7.5,8.1,7.7c4.9,0.3,9.1-2.3,9.9-6.8c0.7-3.9,0.5-8,0.7-12.1
		C240.4,122.5,234.4,122.5,228.1,122.5z M153.7,122.4c0,4.2-0.4,8.1,0.1,11.9c0.5,4.1,4.4,7,8.6,7.2c4.4,0.1,8.6-2.5,9.2-6.7
		c0.6-4,0.5-8.2,0.6-12.3C165.7,122.4,159.7,122.4,153.7,122.4z M178.4,122.5c0,3.9-0.3,7.8,0.1,11.6c0.5,4.3,4.4,7.3,8.7,7.4
		c4.4,0.1,8.6-2.7,9.2-6.8c0.6-4,0.5-8,0.7-12.2C190.6,122.5,184.5,122.5,178.4,122.5z M98.2,122.5c-6.1,0-12,0-18,0
		c0,3.8-0.2,7.4,0,11c0.3,4.3,4.1,7.8,8.5,8c4.6,0.2,8.9-2.8,9.4-7.2C98.5,130.4,98.2,126.5,98.2,122.5z M129.9,122.5
		c0,3.6,0,7.1,0,10.6c0.1,4.4,3.1,7.8,7.2,8.3c4.6,0.6,9-2.1,9.6-6.6c0.5-4,0.1-8.2,0.1-12.3C141.2,122.5,135.6,122.5,129.9,122.5z
		 M199.9,84.9c4.6,0,9,0,13.4,0c0-2.9,0-5.7,0-8.6c-4.5,0-8.9,0-13.4,0C199.9,79.2,199.9,82,199.9,84.9z M100.1,76.3
		c-4.6,0-9,0-13.4,0c0,2.9,0,5.7,0,8.5c4.6,0,9,0,13.4,0C100.1,81.9,100.1,79.3,100.1,76.3z"/>
	<path class="st0" d="M149.9,258.9c-29.7,0-53.6-24-53.5-53.7c0-29.5,24.2-53.6,53.8-53.5c29.5,0.1,53.5,24.3,53.4,53.9
		C203.5,235.1,179.4,258.9,149.9,258.9z M149.9,157.8c-26.2,0.1-47.5,21.5-47.4,47.6c0.1,26.2,21.6,47.5,47.9,47.4
		c25.9-0.1,47.2-21.6,47.1-47.6C197.4,179.1,175.9,157.7,149.9,157.8z"/>
	<path class="st0" d="M175.4,33.2c-6.1,0-11.6,0-17.1,0c-2.8,0-4.2-1.1-4-3.2c0.2-2.5,1.9-2.9,4-2.9c7.7,0,15.3-0.1,23,0.1
		c1.3,0,3.3,0.8,3.7,1.8c0.4,1-0.2,3-1.1,4c-6.4,7.5-13,14.9-19.6,22.4c-0.6,0.6-1.1,1.3-2.1,2.5c5,0,9.5,0,14,0c2.2,0,4.3,0,6.5,0
		c2,0,3.3,1.1,3.3,3.1c0,1.9-1.3,3-3.2,3c-9.1,0-18.2,0.1-27.3-0.1c-1,0-2.8-1.1-2.9-1.8c-0.2-1.3,0.3-3,1.1-4
		c6.4-7.5,13-14.9,19.6-22.4C173.9,35,174.5,34.3,175.4,33.2z"/>
	<path class="st0" d="M138.3,32.8c-3.3,0-6.1,0-8.8,0c-3,0-5.9,0-8.9,0c-2,0-3.4-1-3.4-3c0-2,1.3-3,3.3-3.1c0.3,0,0.5,0,0.8,0
		c7.6,0,15.1-0.1,22.7,0.1c1.4,0,3.3,0.9,3.9,2c0.5,0.9-0.3,2.9-1.2,3.9c-6.4,7.5-13,14.9-19.6,22.4c-0.6,0.6-1.1,1.3-2,2.4
		c6.1,0,11.8,0,17.4,0c0.8,0,1.6,0,2.4,0c2.2-0.1,3.9,0.7,3.9,3.1c0,2.4-1.8,3.1-3.9,3.1c-5.1,0-10.3,0-15.4,0
		c-3.4,0-6.9,0.2-10.3-0.1c-1.3-0.1-3.2-0.8-3.7-1.8c-0.4-1,0.2-3,1.1-4c6.4-7.5,13-14.9,19.6-22.4C136.7,34.7,137.3,34,138.3,32.8z
		"/>
	<path class="st0" d="M224.4,61.5c-0.7,0.7-1.6,2.2-2.4,2.2c-1.2,0-3.1-0.9-3.6-1.9c-1.7-3.4-3.1-7.1-4.5-10.7
		c-0.6-1.8-1.5-2.6-3.5-2.5c-3.2,0.2-7.2-1-9.5,0.6c-2.2,1.5-2.7,5.6-3.9,8.6c-0.5,1.2-1,2.5-1.5,3.8c-0.8,2-2.2,3-4.2,2.2
		c-2.1-0.8-2.3-2.6-1.6-4.5c3.2-8.4,6.4-16.8,9.7-25.2c0.2-0.6,0.5-1.2,0.7-1.8c2.1-5.6,1.6-5.3,8.6-5c1,0,2.4,1.1,2.8,2.1
		c4.2,9.9,8.3,19.9,12.3,29.9C224,59.8,224.1,60.3,224.4,61.5z M206.5,33.1c-1.3,3.4-2.4,6.2-3.5,9.2c2.6,0,4.7,0,7.3,0
		C209,39.2,207.9,36.4,206.5,33.1z"/>
	<path class="st0" d="M81.6,51.4c0,2.8,0,5.6,0,8.3c0,2-0.5,3.7-2.9,3.7c-2.5,0-3.1-1.7-3.1-3.8c0-8.7,0-17.5,0-26.2
		c0-6.8,0-6.8,6.8-6.8c2.9,0,5.8,0.1,8.6,0.4c5.9,0.7,9.6,4.8,10,10.9c0.4,6-3.1,11.1-8.7,12.3C89,51.1,85.5,51.1,81.6,51.4z
		 M82,33.2c0,4,0,7.8,0,11.8c1.9,0,3.7,0,5.5,0c1,0,2-0.2,2.9-0.4c3.2-0.7,4.7-2.8,4.5-6.3c-0.2-3-1.7-4.8-4.9-5.1
		C87.4,33,84.8,33.2,82,33.2z"/>
	<path class="st0" d="M111,45.3c0,4.8,0,9.5,0,14.3c0,2.1-0.6,3.9-3,3.9c-2.5,0.1-3.2-1.6-3.2-3.8c0-9.7,0-19.4,0-29.1
		c0-2.1,0.7-3.9,3.1-3.8c2.4,0,3.1,1.8,3.1,3.9C111,35.6,111,40.4,111,45.3z"/>
	<path class="st0" d="M115.5,229.1c-0.1,0-0.2,0-0.3,0c-1.5-0.4-3.6-0.4-4.5-1.5c-1.5-1.6,0-3.3,1.1-4.8
		c6.8-9.5,13.6-19.1,20.4-28.6c7.2-10.1,14.4-20.3,21.6-30.4c2.3-3.2,3.6-3.4,6.6-0.8c16.5,14.3,26.7,32.3,31.1,53.7
		c0.9,4.2,0,5.3-4.1,5.7C163.4,224.6,139.5,226.8,115.5,229.1C115.5,229.1,115.5,229.1,115.5,229.1z M170.8,217.6
		c-4.3-14.2-11.3-26.4-21.4-37c-10,14-19.7,27.7-29.7,41.9C137,220.8,153.7,219.2,170.8,217.6z M185.2,216.2
		c-4.4-18.8-13.3-34.4-27.4-47.4c-1.6,2.3-3.1,4.4-4.7,6.6c11.5,11.9,19.4,25.7,24,41.5C179.8,216.8,182.2,216.5,185.2,216.2z"/>
	<path class="st0" d="M153.3,200.2c0.8,1.2,2.1,2.3,2.2,3.6c0.2,1.8-1.2,3-3.1,2.9c-1.8-0.1-3.2-1.3-2.9-3.1
		c0.2-1.3,1.6-2.3,2.4-3.5C152.5,200.1,152.9,200.1,153.3,200.2z"/>
	<path class="st0" d="M146.5,217.2c-1.2,0.8-2.3,2.1-3.6,2.3c-1.7,0.2-3-1.2-3-3.1c0.1-1.8,1.3-3.3,3.1-2.9c1.3,0.3,2.4,1.6,3.5,2.5
		C146.5,216.4,146.5,216.8,146.5,217.2z"/>
	<path class="st0" d="M145,202.1c-1.2,0.8-2.3,2.1-3.5,2.4c-1.8,0.3-3-1.1-3.1-3c0-1.9,1.2-3.3,3-3c1.3,0.2,2.4,1.5,3.6,2.3
		C145,201.3,145,201.7,145,202.1z"/>
	<path class="st0" d="M164.8,209.2c-0.3,2.8-1.4,3.9-3.3,3.8c-1.8-0.1-3-1.2-2.9-3.2c0.1-1.9,1.4-3.2,3.1-2.8
		C163,207.3,164,208.7,164.8,209.2z"/>
	<path class="st0" d="M151.6,188.2c0.5,0.8,1.8,1.9,2,3.2c0.2,1.8-1.1,3-3,2.9c-1.9-0.1-3-1.2-3-3.1
		C147.6,189.3,148.8,188.3,151.6,188.2z"/>
	<path class="st0" d="M149.5,211c1.2-0.8,2.3-2.1,3.5-2.3c1.7-0.2,3,1.1,3,3c0,2-1.3,3.2-3,2.9c-1.3-0.2-2.3-1.6-3.5-2.4
		C149.5,211.8,149.5,211.4,149.5,211z"/>
	<path class="st0" d="M127.1,217.1c0.2-2.8,1.2-4,3.1-3.9c1.9,0,3,1.1,3.1,3c0,1.9-1.2,3.2-3,3C129,218.9,127.9,217.6,127.1,217.1z"
		/>
</g>
</svg>
