<?xml version="1.0" encoding="utf-8"?>
<!-- Generator: Adobe Illustrator 25.2.1, SVG Export Plug-In . SVG Version: 6.00 Build 0)  -->
<svg version="1.1" id="Layer_1" xmlns="http://www.w3.org/2000/svg" xmlns:xlink="http://www.w3.org/1999/xlink" x="0px" y="0px"
	 viewBox="0 0 300 300" style="enable-background:new 0 0 300 300;" xml:space="preserve">
<style type="text/css">
	.st0{fill:#E93C3C;}
</style>
<g>
	<path class="st0" d="M291.2,216.2c-0.7,2.3-1.1,4.6-2,6.8c-3.4,8.8-9.8,14.7-18.7,17.9c-0.8,0.3-1.6,0.6-2.4,0.7
		c-3.8,0.5-5.6,2.3-6.4,6.5c-1.5,7.8-6.9,12.5-14.6,14.5c-13.9,3.5-27.8,7-41.7,10.5c-6.1,1.5-12.3,3.1-18.4,4.6
		c-2.9,0.7-5.1-0.4-5.7-2.8c-0.6-2.5,0.7-4.4,3.6-5.2c19.8-5,39.5-10,59.3-14.9c4.8-1.2,8.2-3.8,9.7-9.2c-2.2,0.4-4,0.8-5.8,1
		c-7.5,1.2-14.5-3.6-15.9-11.1c-1.4-7.1,3.1-14.2,10.2-16.1c2.6-0.7,5.2-1.2,8.1-1.9c-2.7-15.8-6.7-31.1-11.6-46.5
		c-2.2,0.6-4.3,1.1-6.4,1.7c-8.5,2.4-16.1-1.4-18.4-9.3c-2.2-7.7,2.3-15,10.6-17.4c1.2-0.4,2.4-0.8,4-1.2c-3.3-3.3-6.8-4.9-11.1-3.8
		c-13.7,3.3-27.4,6.8-41.2,10.2c-12.6,3.1-25.1,6.3-37.7,9.5c-7.5,1.9-10.8,6.5-9.9,14.1c2.4,20.5,6.3,40.7,12.3,60.4
		c3.2,10.4,6.9,20.7,10.7,31c2.6,7.2,7.6,9.7,15,8c0.4-0.1,0.7-0.2,1.1-0.2c2.5-0.5,4.6,0.7,5.1,3c0.5,2.2-0.6,4.1-2.9,5
		c-10.3,3.7-21.4-1.1-25.5-11.3c-8.1-20-14.4-40.5-18.5-61.6c-0.8-4.3-2.4-6.1-6.7-7.2c-22-5.8-43.9-12-65.9-18
		c-9.3-2.6-14.9-9.3-15.9-19c-0.1-0.8-1-1.8-1.8-2.1c-1.9-0.9-4-1.4-6-2.1c-15.1-5.3-23.9-19.5-20.7-35.2
		c2.7-13.4,6.8-26.5,10.4-39.7c0.7-2.6,3-3.7,5.4-2.9c2.2,0.7,3.1,2.8,2.4,5.4c-0.1,0.4-0.2,0.9-0.4,1.3
		c-3.1,11.7-6.4,23.4-9.3,35.1c-3.2,13,3,24,15.8,28.3c1.6,0.6,3.3,1.1,5.2,1.7c0.7-4.1,1.4-7.9,2.1-12.1c-1.2-0.5-2.4-0.9-3.6-1.3
		c-6.5-2.3-9.4-7.1-7.6-13.7c3.8-14.3,7.7-28.5,11.8-42.7c1.8-6.4,6.7-9,13.2-7.7c1.2,0.3,2.5,0.5,4,0.8c0.8-1.9,1.5-3.8,2.2-5.6
		c0.7-1.9,1.5-3.7,2.2-5.7c-9.4-3.1-18.4-3.3-26.3,3.5c-1.2,1.1-2.3,2.4-3.4,3.6c-1.9,2.1-4.2,2.5-6.1,0.9c-1.9-1.5-2.1-3.9-0.3-6.1
		c8.4-10.4,19.2-14,32.2-11.5c1.2,0.2,2.4,0.4,3.5,0.8c2.8,1.1,5,0.5,6.1-2.4c0.3-0.8,0.6-1.9,0.4-2.7c-2.3-9-0.2-16.9,6.7-23
		c7.2-6.4,15.6-7.2,24.5-3.4c0.7,0.3,2,0.2,2.6-0.2c8.8-5.8,18.2-4,24.3,4.6c0.2,0.2,0.4,0.4,0,0c4.7-0.2,8.9-0.9,12.9-0.3
		c3.4,0.5,6.5,2.6,9.8,4c1.2,0.5,2.5,1.1,3.6,0.9c8.1-1.3,15,2.2,18.8,9.4c0.5,0.9,1.7,1.8,2.8,2c17.1,3.3,24.2,22.9,13.2,36.4
		c-1,1.3-1,2.4-1,3.9c-0.1,5.6-0.5,11.1-1,16.7c-0.1,1.9-0.6,3.8-1,6.1c1.4-0.6,2.4-1.1,3.4-1.4c5.3-1.8,10.3-1.2,15,1.8
		c0.9,0.6,2.4,0.8,3.4,0.5c8.2-2.5,15.5-1.1,21.8,4.7c6.3,5.9,8.1,13.3,6,21.7c-0.9,3.4,1.5,6.1,4.9,5.3c7.3-1.7,14.5-2.3,21.7,0.6
		c9,3.7,15.2,10.2,17.7,19.5c4,15,7.5,30.1,11.3,45.1c0.1,0.3,0.3,0.6,0.5,0.9C291.2,211,291.2,213.6,291.2,216.2z M177,111.9
		c1-6.1,2.1-12.1,2.8-18.1c0.9-7.5-2.5-12.4-9.8-14.4c-26.9-7.4-53.8-14.8-80.7-22.2c-8-2.2-13.3,0.5-16.5,8.1
		C60,95.7,51.2,127.1,46.7,159.8c-1.2,9,1.9,13.8,10.5,16.1c15,4.1,29.9,8.3,44.9,12.4c7,1.9,14.1,3.9,21.5,5.9
		c-0.5-3.3-1.1-6.3-1.4-9.3c-0.4-5.7-0.8-11.5-0.8-17.2c0-1.6,0.2-2.8-0.9-4.2c-9.3-11.7-3.9-29.1,10.3-33.7c2.5-0.8,8-4.4,9.6-6.3
		c0.2-0.2,0.4-0.4,0.6-0.6c5.2-5.4,11.6-6.4,20.4-2.9C165.2,115.1,170.5,112.6,177,111.9z M77.3,49.4c5.1-1.9,9.9-1.4,15,0
		c22.1,6.2,44.2,12.1,66.3,18.4c8.3,2.4,17.3,2.9,24,9.4c2.5-3,3.5-6.6,3-10.1c-1.1-7.5-6.8-12.4-14.4-12.5c-3.5,0-4.6-0.8-5.3-3.9
		c-1.5-6.5-6.4-9-12.7-6.4c-2.1,0.9-3.8,0.6-5.5-1.1c-6.1-6.1-11.7-6.7-19.3-2.3c-3,1.8-5.7,0.8-6.6-2.6c-1-3.7-2.9-6.3-6.8-7.1
		c-3.8-0.8-6.6,0.7-8.9,3.6c-1.9,2.3-3.8,2.5-6.3,0.8c-0.8-0.5-1.5-1.1-2.3-1.5c-4.9-2.7-11.1-2.2-15.5,1.3
		C77.8,38.7,75.9,44.3,77.3,49.4z M227.6,133.9c0.9-6.1-0.8-10.6-5.3-13.8c-4.6-3.2-9.4-3.3-14.3-0.6c-3.3,1.8-4.4,1.6-6.9-1.1
		c-3.7-4-9.1-3.9-12.4,0.4c-1.8,2.4-3.8,3-6.7,2.1c-6.4-1.9-12.3,0.7-15.6,6.6c-2.2,4-4.7,4.4-8,1.2c-2.6-2.5-5.8-3.2-8.9-1.9
		c-2.6,1.2-4.1,3.2-4.7,6c-0.8,3.9-1.9,4.6-5.9,4.4c-1.2-0.1-2.4-0.1-3.6,0c-5.1,0.8-8.6,3.6-10.4,8.3c-1.6,4.3-1.2,8.4,1.2,11.7
		c3.6-1.6,6.8-3.6,10.3-4.5c23.3-6,46.6-11.8,70-17.6C213.2,133.5,220.1,130.6,227.6,133.9z M282.9,211.8c0-0.3,0-1.4-0.2-2.3
		c-3.7-15.1-7.2-30.3-11.4-45.4c-2.9-10.3-13-16.5-23.5-14.7c-7,1.2-14,3-20.9,4.8c-3.8,1-5.5,3.9-4.6,7.2c0.9,3.2,4,4.5,7.8,3.6
		c5.9-1.4,11.8-2.9,17.7-4.2c6.7-1.4,11.5,1.4,13.2,8c3.5,13.5,7,27,10.2,40.6c1.6,6.6-1.3,11.4-7.9,13.3
		c-5.9,1.7-11.9,3.1-17.8,4.7c-3.6,0.9-5.6,3.6-5,6.8c0.6,3.2,3.6,5.1,7.1,4.3c7-1.7,14.1-3.4,21-5.6
		C277.4,229.8,282.9,221.5,282.9,211.8z M42.2,133.9c4.4-16.1,8.8-32.1,13.3-48.1c-4.7-1.6-5.2-1.5-6.5,3.2
		c-3.6,12.9-7.2,25.8-10.7,38.7C37,132.3,37.5,132.8,42.2,133.9z M247.7,169.4c3.8,15.2,7.6,30.4,11.4,45.6c4.1-0.5,4.6-1.2,3.6-5.2
		c-3.1-12.6-6.3-25.1-9.5-37.6C252.3,168.2,251.5,167.9,247.7,169.4z"/>
	<path class="st0" d="M291.2,104.2c-2.3,7.1-7.5,10.4-14.7,11.2c-3.5,0.3-6.9,1.2-10.3,1.9c-7.7,1.4-14.2-2.7-16.2-10.2
		c-2-7.7,1.5-14.5,9-17.1c4.3-1.4,8.5-2.8,12.8-4.2c8.8-2.8,16,1.1,18.3,10.1c0.2,0.9,0.7,1.8,1,2.8
		C291.2,100.5,291.2,102.3,291.2,104.2z M264.1,109.2c4.6-0.9,10-1.7,15.4-3c2.5-0.6,3.6-2.8,3.3-5.4c-0.2-1.4-0.6-2.9-1.1-4.3
		c-0.9-2.6-3.2-4.1-5.9-3.3c-5.1,1.5-10.2,3.1-15.2,5c-2.5,0.9-3.5,3.4-2.9,6.1C258.7,107.6,260.4,109.2,264.1,109.2z"/>
	<path class="st0" d="M208.9,17c8.8,0.7,14.9,4.2,16.2,11.7c0.4,2.2,0.2,4.8-0.5,7c-1.4,4.7-3.2,9.4-4.9,14
		c-2.8,7.2-9.6,10.4-17.3,8.2c-7.3-2.2-11.2-8.7-9.7-16.2c1-4.8,1.9-9.5,3-14.3C197.2,21.1,202.6,16.9,208.9,17z M200.7,44
		c0,3.6,1.7,5.5,4.9,6.2c3,0.6,5.2-0.4,6.2-3.2c1.8-4.5,3.4-9.1,4.9-13.7c1-2.9,0.1-5.3-2.3-6.6c-3.9-2.1-7.5-2-9.4,0.3
		c-0.4,0.4-0.7,0.9-0.8,1.4C202.9,33.8,201.7,39.3,200.7,44z"/>
	<path class="st0" d="M269.3,55.3c0,4.7-1.5,8-4.5,10.7c-3.9,3.4-7.8,6.8-11.8,10c-5.8,4.7-13.3,4-18.6-1.5
		c-5.3-5.5-5.7-13-0.8-18.7c3.3-3.8,6.7-7.6,10.1-11.3c5.3-5.7,13.5-5.8,19.2-0.5C266.4,47.3,269.5,50.8,269.3,55.3z M261.8,55.8
		c-1.6-2-2.8-4-4.4-5.6c-2.5-2.5-5.3-2.4-7.7,0.1c-3.3,3.5-6.4,7-9.6,10.7c-2.3,2.6-2.1,5.3,0.4,7.8c2.4,2.4,5,2.6,7.6,0.6
		c3.7-3,7.4-6.1,10.9-9.3C260,59.1,260.6,57.6,261.8,55.8z"/>
	<path class="st0" d="M219.1,225.1c0,8.7-7,15.8-15.7,15.8c-8.7,0-15.9-7.2-15.9-16c0.1-8.7,7.2-15.7,15.9-15.6
		C212.2,209.4,219.1,216.4,219.1,225.1z M203.2,232.7c4.1,0.1,7.5-3.3,7.6-7.4c0.1-4.2-3.2-7.5-7.4-7.6c-4.2-0.1-7.6,3.2-7.6,7.4
		C195.7,229.1,199.1,232.6,203.2,232.7z"/>
	<path class="st0" d="M187,197.3c0,8.1-6.4,14.5-14.5,14.5c-8,0-14.6-6.5-14.6-14.5c0-8,6.6-14.6,14.6-14.6
		C180.5,182.7,187,189.2,187,197.3z M178.7,197.3c0-3.5-2.7-6.4-6.2-6.4c-3.4,0-6.3,2.9-6.3,6.4c0,3.4,2.8,6.1,6.1,6.2
		C175.9,203.6,178.7,200.9,178.7,197.3z"/>
	<path class="st0" d="M207.4,192.1c0,2.4-1.7,4.2-4.1,4.2c-2.3,0-4.2-1.9-4.2-4.2c0-2.3,1.8-4.2,4.1-4.2
		C205.7,187.9,207.4,189.6,207.4,192.1z"/>
	<path class="st0" d="M222.2,244.3c2.3,0,4.1,1.8,4.2,4.2c0,2.4-1.7,4.2-4,4.3c-2.4,0-4.1-1.7-4.2-4.1
		C218.1,246.2,219.9,244.3,222.2,244.3z"/>
	<path class="st0" d="M168.3,247.5c2.3,0,4.2,1.8,4.2,4.2c0,2.3-1.8,4.3-4.1,4.3c-2.3,0-4.1-1.8-4.1-4.2
		C164.2,249.3,165.9,247.5,168.3,247.5z"/>
	<path class="st0" d="M82.8,146.2c-9.8,0-17.8-7.8-17.8-17.6c0-9.8,7.8-17.8,17.6-17.8c9.8-0.1,17.8,7.9,17.8,17.6
		C100.4,138.3,92.6,146.2,82.8,146.2z M82.5,138c5.3,0.1,9.5-4,9.5-9.3c0-5.2-4.1-9.5-9.3-9.6c-5.2-0.1-9.5,4.1-9.5,9.3
		C73.2,133.7,77.3,137.9,82.5,138z"/>
	<path class="st0" d="M122.9,98.7c0,7.5-6.3,13.7-13.8,13.6c-7.5-0.1-13.4-6.2-13.4-13.6c0-7.5,6.1-13.7,13.6-13.7
		C116.8,85,123,91.2,122.9,98.7z M109.3,93.2c-2.9,0-5.2,2.3-5.3,5.2c-0.1,3,2.3,5.5,5.3,5.5c2.8,0,5.3-2.4,5.4-5.2
		C114.7,95.8,112.3,93.2,109.3,93.2z"/>
	<path class="st0" d="M96.2,164.3c-2.3,0-4.1-2-4.1-4.3c0-2.3,1.9-4.2,4.2-4.2c2.3,0,4.1,1.9,4,4.3
		C100.3,162.4,98.4,164.3,96.2,164.3z"/>
	<path class="st0" d="M157.7,95.6c0,2.4-1.7,4.2-4.1,4.2c-2.3,0-4.2-1.9-4.2-4.2c0-2.3,1.8-4.2,4.1-4.2
		C156,91.4,157.7,93.2,157.7,95.6z"/>
</g>
</svg>
