<svg id="Layer_1" data-name="Layer 1" xmlns="http://www.w3.org/2000/svg" viewBox="0 0 300 300"><defs><style>.cls-1{fill:#e93c3c;}</style></defs><path class="cls-1" d="M6.41,95.23V89.62c.23-.39.49-.77.68-1.18,7.23-15.57,14.5-31.12,21.62-46.74a7.08,7.08,0,0,1,7.17-4.64q114.1,0,228.19,0a7.09,7.09,0,0,1,7.2,4.61c7,15.28,14.14,30.46,21.07,45.76a13.39,13.39,0,0,1,1.06,6.47,27,27,0,0,1-9.17,18.32,5.12,5.12,0,0,0-1.89,4.31q.06,66,0,132v3.18c2.21,0,4.07-.12,5.92,0,3.84.3,6.39,4,4.84,7.38-.68,1.48-2.28,2.54-3.47,3.79H6.41v-7.29c2.31-5,7.07-3.73,11.21-4v-3.71q0-63.7.08-127.43c0-4.2-.83-7.33-3.91-10.55-2.84-3-4.31-7.27-6.26-11A20.38,20.38,0,0,1,6.41,95.23ZM271,251.59V119.14a28.09,28.09,0,0,1-16.13-1.2A30.47,30.47,0,0,1,242,108.41c-11,13.85-32.36,16.34-46.18.07-5.87,7.21-13.42,11.27-22.75,11.31S156.05,115.73,150,108.3c-6,7.49-13.62,11.46-23,11.49s-17-4.13-23-11.38c-10.89,13.72-32.19,16.47-46.16.1-7.54,9-17.17,12.7-28.9,10.77V251.56H184.25v-3.48c0-27.94-.08-55.89,0-83.84a33.34,33.34,0,1,1,66.67.1c.06,27.94,0,55.89,0,83.84v3.41ZM239.59,202.7V170.06H195.7v81.49h43.86V214.29c-6.06-.45-8.23-1.91-8.35-5.52C231.08,205,233.18,203.44,239.59,202.7ZM144.2,85.48v-37H116.27c-1.9,12.37-3.79,24.58-5.7,37Zm11.64-37.06V85.49h33.59C187.5,73,185.6,60.73,183.7,48.42Zm-50.94-.11c-9.19,0-17.86-.05-26.52.1-.66,0-1.61,1.3-1.89,2.17C73,61.51,69.68,72.47,66.31,83.42c-.2.65-.27,1.33-.44,2.2,10.77,0,21.22,0,31.67-.09.66,0,1.76-1.18,1.9-2,1-5.88,1.92-11.78,2.82-17.68C103.13,60.2,104,54.5,104.9,48.31Zm90.43,0a11.85,11.85,0,0,0,0,1.53c1.72,11.35,3.48,22.69,5.15,34,.25,1.73,1.23,1.76,2.54,1.76,7.94,0,15.88,0,23.82,0h7c.15-.43.23-.53.21-.61-3.58-11.77-7.14-23.54-10.8-35.29a2.34,2.34,0,0,0-1.71-1.35C212.9,48.28,204.23,48.31,195.33,48.31Zm-130,.17c-1.12-.07-1.92-.17-2.73-.17-7.28,0-14.57.08-21.85-.07-2.15,0-3.09.78-3.93,2.62C32,61.56,27,72.2,22.06,82.87c-.37.81-.68,1.65-1.14,2.75,10.72,0,21.06,0,31.41-.08.73,0,1.82-1.1,2.1-1.91,1.34-3.87,2.45-7.83,3.65-11.75C60.46,64.16,62.86,56.44,65.32,48.48Zm169.51-.18a12.49,12.49,0,0,0,.24,1.36c3.5,11.4,7,22.79,10.48,34.21.5,1.68,1.5,1.78,2.9,1.77,8.87,0,17.74,0,26.61,0h4.05c-.58-1.37-.95-2.31-1.37-3.23-4-8.54-7.9-17.09-11.89-25.62-1.29-2.78-2-6.55-4.24-8s-6-.48-9-.5C246.73,48.28,240.88,48.3,234.83,48.3Zm3.87,110.26c-1.78-10.12-12.41-17.29-23.74-16.24-8.82.81-18.29,9.24-18.16,16.24ZM19,97c1.52,6.48,8.68,11.65,16,11.65S49.45,103.52,51.07,97Zm78.24-.12H64.83a17,17,0,0,0,32.37,0Zm45.94.18H110.88a17,17,0,0,0,32.26,0Zm13.76,0c1.86,6.78,9,11.8,16.44,11.62S187.72,103.2,189,97Zm45.89-.07c2.55,7.58,10.27,12.5,17.79,11.61,7.17-.85,13.73-6.16,14.3-11.61Zm78.33.1H248.86a17,17,0,0,0,32.26,0Z"/><path class="cls-1" d="M60.39,142.62V223c5.89,0,11.74.07,17.59-.08.82,0,1.72-1,2.41-1.69,9.54-9.5,19-19.09,28.64-28.47a8.36,8.36,0,0,1,5.56-2.37c1.54.09,3.45,1.82,4.34,3.32,1.23,2.07.47,4.37-1.27,6.13q-6.52,6.57-13.07,13.1c-3.16,3.16-6.33,6.3-9.92,9.87h67V156.09c-.9.83-1.58,1.41-2.21,2q-11.31,11.3-22.62,22.6a17.67,17.67,0,0,1-2.28,2.05,5.54,5.54,0,0,1-7.71-7.69,21.56,21.56,0,0,1,2.46-2.69l29.91-29.9c-1.22-.1-2-.21-2.76-.22-7.47,0-14.95,0-22.43,0-3.84,0-6.38-2.28-6.43-5.56a5.32,5.32,0,0,1,5.16-5.56q17.52-.16,35,0c3,0,5,2.24,5.21,5.21.06.75,0,1.5,0,2.25v88c0,5.89-1.77,7.62-7.74,7.62q-54.27,0-108.53,0c-5.94,0-7.72-1.77-7.72-7.66q0-44,0-88c0-5.77,1.72-7.49,7.53-7.49h25c4.19,0,6.68,2.05,6.75,5.45s-2.59,5.73-6.8,5.76c-6.82,0-13.65,0-20.47.07C60.85,142.34,60.69,142.48,60.39,142.62Z"/><path class="cls-1" d="M115.91,161.11a14.91,14.91,0,0,1-2.11,3.45q-14.56,14.76-29.31,29.36c-2.76,2.74-6.09,2.81-8.44.38s-2.18-5.57.47-8.24Q91.24,171.26,106,156.52a5.58,5.58,0,0,1,6.63-1.46C114.84,156,115.91,157.78,115.91,161.11Z"/><path class="cls-1" d="M113.52,136.64a5.59,5.59,0,1,1-11.18,0,5.59,5.59,0,0,1,11.18,0Z"/></svg>